<?xml version="1.0" encoding="UTF-8" standalone="no"?>
<svg
   xmlns:dc="http://purl.org/dc/elements/1.1/"
   xmlns:cc="http://creativecommons.org/ns#"
   xmlns:rdf="http://www.w3.org/1999/02/22-rdf-syntax-ns#"
   xmlns:svg="http://www.w3.org/2000/svg"
   xmlns="http://www.w3.org/2000/svg"
   xmlns:xlink="http://www.w3.org/1999/xlink"
   xmlns:sodipodi="http://sodipodi.sourceforge.net/DTD/sodipodi-0.dtd"
   xmlns:inkscape="http://www.inkscape.org/namespaces/inkscape"
   inkscape:version="1.0beta2 (2b71d25, 2019-12-03)"
   sodipodi:docname="scala.svg"
   id="svg457"
   width="210mm"
   viewBox="0 0 595.27559 841.88973"
   version="1.1"
   height="297mm">
  <metadata
     id="metadata461">
    <rdf:RDF>
      <cc:Work
         rdf:about="">
        <dc:format>image/svg+xml</dc:format>
        <dc:type
           rdf:resource="http://purl.org/dc/dcmitype/StillImage" />
        <dc:title></dc:title>
      </cc:Work>
    </rdf:RDF>
  </metadata>
  <sodipodi:namedview
     inkscape:current-layer="svg457"
     inkscape:window-maximized="0"
     inkscape:window-y="23"
     inkscape:window-x="0"
     inkscape:cy="116.56712"
     inkscape:cx="388.60249"
     inkscape:zoom="6.8345637"
     units="mm"
     showgrid="false"
     id="namedview459"
     inkscape:window-height="1033"
     inkscape:window-width="1505"
     inkscape:pageshadow="2"
     inkscape:pageopacity="0"
     guidetolerance="10"
     gridtolerance="10"
     objecttolerance="10"
     borderopacity="1"
     inkscape:document-rotation="0"
     bordercolor="#666666"
     pagecolor="#ffffff" />
  <defs
     id="defs12">
    <style
       id="style10"
       type="text/css">
*{stroke-linecap:butt;stroke-linejoin:round;}
  </style>
  </defs>
  <g
     id="g1469">
    <g
       id="xtick_1"
       transform="matrix(0.2890571,0,0,0.2890571,231.24608,38.526982)">
      <g
         id="text_1">
        <!-- 2 -->
        <defs
           id="defs21">
          <path
             inkscape:connector-curvature="0"
             id="ArialMT-50"
             d="M 50.34375,8.453125 V 0 H 3.03125 Q 2.9375,3.171875 4.046875,6.109375 5.859375,10.9375 9.828125,15.625 13.8125,20.3125 21.34375,26.46875 q 11.671875,9.5625 15.765625,15.15625 4.109375,5.59375 4.109375,10.578125 0,5.21875 -3.75,8.796875 -3.734375,3.59375 -9.734375,3.59375 -6.34375,0 -10.15625,-3.8125 Q 13.765625,56.984375 13.71875,50.25 L 4.6875,51.171875 q 0.921875,10.109375 6.96875,15.40625 6.0625,5.296875 16.28125,5.296875 10.296875,0 16.296875,-5.71875 Q 50.25,60.453125 50.25,52 50.25,47.703125 48.484375,43.546875 46.734375,39.40625 42.65625,34.8125 38.578125,30.21875 29.109375,22.21875 21.1875,15.578125 18.9375,13.203125 q -2.234375,-2.359375 -3.703125,-4.75 z" />
        </defs>
        <g
           id="g25"
           transform="matrix(0.11,0,0,-0.11,84.028484,310.84282)"
           style="fill:#262626">
          <use
             height="100%"
             width="100%"
             y="0"
             x="0"
             id="use23"
             xlink:href="#ArialMT-50" />
        </g>
      </g>
    </g>
    <g
       id="xtick_2"
       transform="matrix(0.2890571,0,0,0.2890571,231.24608,38.526982)">
      <g
         id="text_2">
        <!-- 3 -->
        <defs
           id="defs30">
          <path
             inkscape:connector-curvature="0"
             id="ArialMT-51"
             d="m 4.203125,18.890625 8.78125,1.171875 Q 14.5,12.59375 18.140625,9.296875 21.78125,6 27,6 33.203125,6 37.46875,10.296875 41.75,14.59375 41.75,20.953125 q 0,6.046875 -3.953125,9.96875 -3.953125,3.9375 -10.0625,3.9375 -2.484375,0 -6.203125,-0.96875 l 0.984375,7.71875 Q 23.390625,41.5 23.921875,41.5 q 5.625,0 10.109375,2.921875 4.5,2.9375 4.5,9.046875 0,4.828125 -3.28125,8 -3.265625,3.1875 -8.4375,3.1875 -5.125,0 -8.546875,-3.234375 -3.421875,-3.21875 -4.390625,-9.65625 l -8.796875,1.5625 q 1.609375,8.828125 7.3125,13.6875 5.71875,4.859375 14.21875,4.859375 5.859375,0 10.78125,-2.515625 4.9375,-2.515625 7.546875,-6.859375 2.625,-4.34375 2.625,-9.234375 0,-4.625 -2.5,-8.4375 -2.484375,-3.8125 -7.359375,-6.0625 6.34375,-1.453125 9.859375,-6.078125 3.515625,-4.609375 3.515625,-11.546875 0,-9.375 -6.84375,-15.890625 -6.828125,-6.515625 -17.28125,-6.515625 -9.421875,0 -15.65625,5.609375 -6.21875,5.625 -7.09375,14.546875 z" />
        </defs>
        <g
           id="g34"
           transform="matrix(0.11,0,0,-0.11,114.32248,310.84282)"
           style="fill:#262626">
          <use
             height="100%"
             width="100%"
             y="0"
             x="0"
             id="use32"
             xlink:href="#ArialMT-51" />
        </g>
      </g>
    </g>
    <g
       id="xtick_3"
       transform="matrix(0.2890571,0,0,0.2890571,231.24608,38.526982)">
      <g
         id="text_3">
        <!-- 4 -->
        <defs
           id="defs39">
          <path
             inkscape:connector-curvature="0"
             id="ArialMT-52"
             d="m 32.328125,0 v 17.140625 h -31.0625 v 8.0625 l 32.671875,46.375 h 7.171875 v -46.375 h 9.671875 v -8.0625 H 41.109375 V 0 Z m 0,25.203125 V 57.46875 L 9.90625,25.203125 Z" />
        </defs>
        <g
           id="g43"
           transform="matrix(0.11,0,0,-0.11,144.61648,310.84282)"
           style="fill:#262626">
          <use
             height="100%"
             width="100%"
             y="0"
             x="0"
             id="use41"
             xlink:href="#ArialMT-52" />
        </g>
      </g>
    </g>
    <g
       id="xtick_4"
       transform="matrix(0.2890571,0,0,0.2890571,231.24608,38.526982)">
      <g
         id="text_4">
        <!-- 5 -->
        <defs
           id="defs48">
          <path
             inkscape:connector-curvature="0"
             id="ArialMT-53"
             d="M 4.15625,18.75 13.375,19.53125 Q 14.40625,12.796875 18.140625,9.390625 21.875,6 27.15625,6 33.5,6 37.890625,10.78125 42.28125,15.578125 42.28125,23.484375 42.28125,31 38.0625,35.34375 33.84375,39.703125 27,39.703125 q -4.25,0 -7.671875,-1.9375 -3.40625,-1.921875 -5.359375,-5 l -8.25,1.078125 6.921875,36.765625 H 48.25 v -8.40625 H 19.671875 L 15.828125,42.96875 q 6.4375,4.5 13.515625,4.5 9.375,0 15.8125,-6.5 6.453125,-6.5 6.453125,-16.703125 0,-9.71875 -5.65625,-16.796875 -6.890625,-8.6875 -18.796875,-8.6875 -9.765625,0 -15.953125,5.46875 Q 5.03125,9.71875 4.15625,18.75 Z" />
        </defs>
        <g
           id="g52"
           transform="matrix(0.11,0,0,-0.11,174.91048,310.84282)"
           style="fill:#262626">
          <use
             height="100%"
             width="100%"
             y="0"
             x="0"
             id="use50"
             xlink:href="#ArialMT-53" />
        </g>
      </g>
    </g>
    <g
       id="xtick_5"
       transform="matrix(0.2890571,0,0,0.2890571,231.24608,38.526982)">
      <g
         id="text_5">
        <!-- 6 -->
        <defs
           id="defs57">
          <path
             inkscape:connector-curvature="0"
             id="ArialMT-54"
             d="M 49.75,54.046875 41.015625,53.375 q -1.171875,5.171875 -3.3125,7.515625 -3.578125,3.765625 -8.796875,3.765625 -4.203125,0 -7.375,-2.34375 Q 17.390625,59.28125 14.984375,53.46875 12.59375,47.65625 12.5,36.921875 15.671875,41.75 20.265625,44.09375 q 4.59375,2.34375 9.625,2.34375 8.78125,0 14.953125,-6.46875 Q 51.03125,33.5 51.03125,23.25 51.03125,16.5 48.125,10.71875 45.21875,4.9375 40.140625,1.859375 35.0625,-1.21875 28.609375,-1.21875 17.625,-1.21875 10.6875,6.859375 3.765625,14.9375 3.765625,33.5 q 0,20.75 7.65625,30.171875 6.6875,8.203125 18.015625,8.203125 8.453125,0 13.84375,-4.734375 Q 48.6875,62.40625 49.75,54.046875 Z M 13.875,23.1875 q 0,-4.53125 1.921875,-8.6875 Q 17.71875,10.359375 21.1875,8.171875 24.65625,6 28.46875,6 q 5.5625,0 9.5625,4.484375 4.015625,4.5 4.015625,12.21875 0,7.421875 -3.96875,11.6875 -3.953125,4.28125 -9.953125,4.28125 -5.953125,0 -10.109375,-4.28125 Q 13.875,30.125 13.875,23.1875 Z" />
        </defs>
        <g
           id="g61"
           transform="matrix(0.11,0,0,-0.11,205.20448,310.84282)"
           style="fill:#262626">
          <use
             height="100%"
             width="100%"
             y="0"
             x="0"
             id="use59"
             xlink:href="#ArialMT-54" />
        </g>
      </g>
    </g>
    <g
       id="xtick_6"
       transform="matrix(0.2890571,0,0,0.2890571,231.24608,38.526982)">
      <g
         id="text_6">
        <!-- 7 -->
        <defs
           id="defs66">
          <path
             inkscape:connector-curvature="0"
             id="ArialMT-55"
             d="m 4.734375,62.203125 v 8.453125 h 46.34375 V 63.8125 Q 44.234375,56.546875 37.515625,44.484375 30.8125,32.421875 27.15625,19.671875 24.515625,10.6875 23.78125,0 H 14.75 q 0.140625,8.453125 3.3125,20.40625 3.171875,11.96875 9.109375,23.078125 5.9375,11.109375 12.625,18.71875 z" />
        </defs>
        <g
           id="g70"
           transform="matrix(0.11,0,0,-0.11,235.49848,310.84282)"
           style="fill:#262626">
          <use
             height="100%"
             width="100%"
             y="0"
             x="0"
             id="use68"
             xlink:href="#ArialMT-55" />
        </g>
      </g>
    </g>
    <g
       id="xtick_7"
       transform="matrix(0.2890571,0,0,0.2890571,231.24608,38.526982)">
      <g
         id="text_7">
        <!-- 8 -->
        <defs
           id="defs75">
          <path
             inkscape:connector-curvature="0"
             id="ArialMT-56"
             d="m 17.671875,38.8125 q -5.46875,2.015625 -8.109375,5.71875 -2.625,3.71875 -2.625,8.890625 0,7.8125 5.609375,13.125 5.625,5.328125 14.9375,5.328125 9.375,0 15.09375,-5.453125 5.71875,-5.4375 5.71875,-13.25 0,-4.984375 -2.625,-8.671875 Q 43.0625,40.828125 37.75,38.8125 q 6.59375,-2.140625 10.03125,-6.9375 3.4375,-4.78125 3.4375,-11.421875 0,-9.171875 -6.5,-15.421875 -6.484375,-6.25 -17.078125,-6.25 -10.59375,0 -17.09375,6.265625 -6.5,6.28125 -6.5,15.65625 0,6.984375 3.546875,11.6875 3.546875,4.71875 10.078125,6.421875 z m -1.75,14.90625 q 0,-5.078125 3.265625,-8.3125 3.28125,-3.21875 8.5,-3.21875 5.078125,0 8.328125,3.1875 3.25,3.203125 3.25,7.84375 0,4.84375 -3.359375,8.140625 -3.34375,3.296875 -8.3125,3.296875 -5.03125,0 -8.359375,-3.234375 -3.3125,-3.21875 -3.3125,-7.703125 z M 13.09375,20.65625 q 0,-3.765625 1.78125,-7.28125 Q 16.65625,9.859375 20.171875,7.921875 23.6875,6 27.734375,6 34.03125,6 38.125,10.046875 q 4.109375,4.0625 4.109375,10.3125 0,6.34375 -4.21875,10.5 -4.21875,4.15625 -10.578125,4.15625 -6.203125,0 -10.28125,-4.109375 -4.0625,-4.09375 -4.0625,-10.25 z" />
        </defs>
        <g
           id="g79"
           transform="matrix(0.11,0,0,-0.11,265.79248,310.84282)"
           style="fill:#262626">
          <use
             height="100%"
             width="100%"
             y="0"
             x="0"
             id="use77"
             xlink:href="#ArialMT-56" />
        </g>
      </g>
    </g>
    <g
       id="xtick_8"
       transform="matrix(0.2890571,0,0,0.2890571,231.24608,38.526982)">
      <g
         id="text_8">
        <!-- 9 -->
        <defs
           id="defs84">
          <path
             inkscape:connector-curvature="0"
             id="ArialMT-57"
             d="m 5.46875,16.546875 8.453125,0.78125 Q 14.984375,11.375 18.015625,8.6875 21.046875,6 25.78125,6 q 4.046875,0 7.09375,1.859375 3.0625,1.859375 5.015625,4.953125 1.953125,3.109375 3.265625,8.375 1.328125,5.28125 1.328125,10.75 0,0.578125 -0.04687,1.75 Q 39.79688,29.5 35.23438,26.875 q -4.5625,-2.609375 -9.890625,-2.609375 -8.890625,0 -15.046875,6.4375 -6.140625,6.453125 -6.140625,17 0,10.890625 6.421875,17.53125 Q 17,71.875 26.65625,71.875 q 6.984375,0 12.765625,-3.765625 5.796875,-3.75 8.796875,-10.71875 3,-6.953125 3,-20.140625 0,-13.71875 -2.984375,-21.84375 -2.96875,-8.125 -8.859375,-12.375 -5.875,-4.25 -13.78125,-4.25 -8.40625,0 -13.734375,4.65625 -5.3125,4.671875 -6.390625,13.109375 z m 35.984375,31.59375 q 0,7.578125 -4.03125,12.015625 -4.015625,4.4375 -9.6875,4.4375 -5.859375,0 -10.203125,-4.78125 -4.34375,-4.78125 -4.34375,-12.40625 0,-6.828125 4.125,-11.109375 4.125,-4.265625 10.171875,-4.265625 6.109375,0 10.03125,4.265625 3.9375,4.28125 3.9375,11.84375 z" />
        </defs>
        <g
           id="g88"
           transform="matrix(0.11,0,0,-0.11,296.08648,310.84282)"
           style="fill:#262626">
          <use
             height="100%"
             width="100%"
             y="0"
             x="0"
             id="use86"
             xlink:href="#ArialMT-57" />
        </g>
      </g>
    </g>
    <g
       id="xtick_9"
       transform="matrix(0.2890571,0,0,0.2890571,231.24608,38.526982)">
      <g
         id="text_9">
        <!-- 10 -->
        <defs
           id="defs94">
          <path
             inkscape:connector-curvature="0"
             id="ArialMT-49"
             d="m 37.25,0 h -8.78125 v 56 q -3.171875,-3.015625 -8.328125,-6.046875 -5.15625,-3.03125 -9.25,-4.546875 v 8.5 q 7.375,3.46875 12.890625,8.390625 5.515625,4.9375 7.8125,9.578125 H 37.25 Z" />
          <path
             inkscape:connector-curvature="0"
             id="ArialMT-48"
             d="m 4.15625,35.296875 q 0,12.703125 2.609375,20.4375 2.609375,7.75 7.75,11.9375 5.15625,4.203125 12.96875,4.203125 5.765625,0 10.109375,-2.328125 4.34375,-2.3125 7.171875,-6.6875 Q 47.609375,58.5 49.21875,52.21875 q 1.609375,-6.265625 1.609375,-16.921875 0,-12.59375 -2.59375,-20.328125 Q 45.65625,7.234375 40.5,3 35.359375,-1.21875 27.484375,-1.21875 q -10.34375,0 -16.25,7.421875 -7.078125,8.9375 -7.078125,29.09375 z m 9.03125,0 q 0,-17.625 4.125,-23.46875 Q 21.4375,6 27.484375,6 q 6.0625,0 10.1875,5.859375 4.125,5.859375 4.125,23.4375 0,17.6875 -4.125,23.484375 -4.125,5.8125 -10.28125,5.8125 -6.046875,0 -9.671875,-5.125 Q 13.1875,52.9375 13.1875,35.296875 Z" />
        </defs>
        <g
           id="g100"
           transform="matrix(0.11,0,0,-0.11,323.32197,310.84282)"
           style="fill:#262626">
          <use
             height="100%"
             width="100%"
             y="0"
             x="0"
             id="use96"
             xlink:href="#ArialMT-49" />
          <use
             height="100%"
             width="100%"
             y="0"
             id="use98"
             xlink:href="#ArialMT-48"
             x="55.615234" />
        </g>
      </g>
    </g>
    <g
       id="xtick_10"
       transform="matrix(0.2890571,0,0,0.2890571,231.24608,38.526982)">
      <g
         id="text_10">
        <!-- 11 -->
        <g
           id="g108"
           transform="matrix(0.11,0,0,-0.11,353.62198,310.84282)"
           style="fill:#262626">
          <use
             height="100%"
             width="100%"
             y="0"
             x="0"
             id="use104"
             xlink:href="#ArialMT-49" />
          <use
             height="100%"
             width="100%"
             y="0"
             id="use106"
             xlink:href="#ArialMT-49"
             x="55.505859" />
        </g>
      </g>
    </g>
    <g
       id="text_11"
       transform="matrix(0.2890571,0,0,0.2890571,231.24608,38.526982)">
      <!-- Number of Control Sites -->
      <defs
         id="defs128">
        <path
           inkscape:connector-curvature="0"
           id="ArialMT-78"
           d="m 7.625,0 v 71.578125 h 9.703125 L 54.9375,15.375 v 56.203125 h 9.078125 V 0 h -9.71875 L 16.703125,56.25 V 0 Z" />
        <path
           inkscape:connector-curvature="0"
           id="ArialMT-117"
           d="m 40.578125,0 v 7.625 q -6.0625,-8.796875 -16.453125,-8.796875 -4.59375,0 -8.578125,1.75 Q 11.578125,2.34375 9.640625,5 7.71875,7.671875 6.9375,11.53125 6.390625,14.109375 6.390625,19.734375 v 32.125 H 15.1875 V 23.09375 q 0,-6.875 0.53125,-9.28125 0.828125,-3.453125 3.515625,-5.4375 2.6875,-1.984375 6.640625,-1.984375 3.953125,0 7.421875,2.03125 3.46875,2.03125 4.90625,5.515625 1.453125,3.5 1.453125,10.140625 v 27.78125 H 48.4375 V 0 Z" />
        <path
           inkscape:connector-curvature="0"
           id="ArialMT-109"
           d="m 6.59375,0 v 51.859375 h 7.859375 v -7.28125 q 2.4375,3.8125 6.484375,6.125 4.0625,2.328125 9.234375,2.328125 5.765625,0 9.453125,-2.390625 3.6875,-2.390625 5.203125,-6.6875 6.15625,9.078125 16.015625,9.078125 7.71875,0 11.859375,-4.28125 4.15625,-4.265625 4.15625,-13.15625 V 0 h -8.75 v 32.671875 q 0,5.265625 -0.859375,7.578125 -0.84375,2.328125 -3.09375,3.734375 -2.234375,1.421875 -5.265625,1.421875 -5.46875,0 -9.09375,-3.640625 Q 46.1875,38.140625 46.1875,30.125 V 0 h -8.78125 v 33.6875 q 0,5.859375 -2.15625,8.78125 -2.140625,2.9375 -7.03125,2.9375 -3.703125,0 -6.859375,-1.953125 Q 18.21875,41.5 16.796875,37.734375 15.375,33.984375 15.375,26.90625 V 0 Z" />
        <path
           inkscape:connector-curvature="0"
           id="ArialMT-98"
           d="m 14.703125,0 h -8.15625 v 71.578125 h 8.78125 v -25.53125 q 5.578125,6.984375 14.21875,6.984375 4.78125,0 9.046875,-1.9375 Q 42.875,49.171875 45.625,45.671875 48.390625,42.1875 49.953125,37.25 q 1.5625,-4.921875 1.5625,-10.546875 0,-13.328125 -6.59375,-20.609375 -6.59375,-7.265625 -15.8125,-7.265625 -9.1875,0 -14.40625,7.671875 z M 14.59375,26.3125 Q 14.59375,17 17.140625,12.84375 21.296875,6.0625 28.375,6.0625 q 5.75,0 9.953125,5 4.203125,5 4.203125,14.921875 0,10.15625 -4.03125,14.984375 -4.03125,4.828125 -9.734375,4.828125 -5.765625,0 -9.96875,-5 -4.203125,-5 -4.203125,-14.484375 z" />
        <path
           inkscape:connector-curvature="0"
           id="ArialMT-101"
           d="m 42.09375,16.703125 9.078125,-1.125 Q 49.03125,7.625 43.21875,3.21875 37.40625,-1.171875 28.375,-1.171875 q -11.375,0 -18.046875,7 -6.671875,7.015625 -6.671875,19.65625 0,13.09375 6.734375,20.3125 6.75,7.234375 17.484375,7.234375 10.40625,0 17,-7.078125 6.59375,-7.078125 6.59375,-19.921875 0,-0.78125 -0.04687,-2.34375 H 12.75 q 0.484375,-8.546875 4.828125,-13.09375 4.34375,-4.53125 10.84375,-4.53125 4.828125,0 8.25,2.53125 3.421875,2.546875 5.421875,8.109375 z M 13.234375,30.90625 H 42.1875 q -0.578125,6.546875 -3.3125,9.8125 -4.203125,5.078125 -10.890625,5.078125 -6.0625,0 -10.1875,-4.046875 -4.125,-4.046875 -4.5625,-10.84375 z" />
        <path
           inkscape:connector-curvature="0"
           id="ArialMT-114"
           d="m 6.5,0 v 51.859375 h 7.90625 V 44 Q 17.4375,49.515625 20,51.265625 q 2.5625,1.765625 5.640625,1.765625 4.4375,0 9.03125,-2.828125 l -3.03125,-8.15625 q -3.21875,1.90625 -6.4375,1.90625 -2.890625,0 -5.1875,-1.734375 -2.296875,-1.734375 -3.265625,-4.8125 -1.46875,-4.6875 -1.46875,-10.25 V 0 Z" />
        <path
           inkscape:connector-curvature="0"
           d=""
           id="ArialMT-32" />
        <path
           inkscape:connector-curvature="0"
           id="ArialMT-111"
           d="m 3.328125,25.921875 q 0,14.40625 8,21.34375 6.6875,5.765625 16.3125,5.765625 10.6875,0 17.46875,-7.015625 6.796875,-7 6.796875,-19.359375 0,-10 -3,-15.75 -3,-5.734375 -8.75,-8.90625 Q 34.421875,-1.171875 27.640625,-1.171875 16.75,-1.171875 10.03125,5.8125 3.328125,12.796875 3.328125,25.921875 Z m 9.03125,0 q 0,-9.953125 4.34375,-14.90625 4.34375,-4.953125 10.9375,-4.953125 6.546875,0 10.890625,4.96875 4.34375,4.984375 4.34375,15.1875 0,9.625 -4.375,14.578125 Q 34.125,45.75 27.640625,45.75 q -6.59375,0 -10.9375,-4.9375 -4.34375,-4.921875 -4.34375,-14.890625 z" />
        <path
           inkscape:connector-curvature="0"
           id="ArialMT-102"
           d="M 8.6875,0 V 45.015625 H 0.921875 v 6.84375 H 8.6875 V 57.375 q 0,5.21875 0.9375,7.765625 1.265625,3.421875 4.453125,5.53125 3.203125,2.125 8.96875,2.125 3.71875,0 8.203125,-0.875 l -1.3125,-7.65625 Q 27.203125,64.75 24.75,64.75 q -4,0 -5.65625,-1.71875 -1.65625,-1.703125 -1.65625,-6.390625 v -4.78125 h 10.109375 v -6.84375 H 17.4375 V 0 Z" />
        <path
           inkscape:connector-curvature="0"
           id="ArialMT-67"
           d="m 58.796875,25.09375 9.46875,-2.390625 Q 65.28125,11.03125 57.546875,4.90625 49.8125,-1.21875 38.625,-1.21875 q -11.578125,0 -18.828125,4.703125 -7.25,4.71875 -11.03125,13.65625 -3.78125,8.9375 -3.78125,19.1875 0,11.1875 4.265625,19.5 4.28125,8.328125 12.15625,12.640625 7.890625,4.328125 17.359375,4.328125 10.75,0 18.0625,-5.46875 7.328125,-5.46875 10.21875,-15.375 L 57.71875,49.75 q -2.5,7.8125 -7.234375,11.375 -4.734375,3.578125 -11.90625,3.578125 -8.25,0 -13.796875,-3.96875 -5.546875,-3.953125 -7.796875,-10.625 Q 14.75,43.453125 14.75,36.375 q 0,-9.125 2.65625,-15.9375 2.65625,-6.8125 8.265625,-10.1875 5.625,-3.359375 12.171875,-3.359375 7.953125,0 13.46875,4.578125 5.53125,4.59375 7.484375,13.625 z" />
        <path
           inkscape:connector-curvature="0"
           id="ArialMT-110"
           d="M 6.59375,0 V 51.859375 H 14.5 v -7.375 q 5.71875,8.546875 16.5,8.546875 4.6875,0 8.625,-1.6875 3.9375,-1.6875 5.890625,-4.421875 Q 47.46875,44.1875 48.25,40.4375 48.734375,37.984375 48.734375,31.890625 V 0 H 39.9375 v 31.546875 q 0,5.375 -1.03125,8.03125 -1.015625,2.65625 -3.625,4.234375 -2.609375,1.59375 -6.125,1.59375 -5.625,0 -9.703125,-3.5625 Q 15.375,38.28125 15.375,28.328125 V 0 Z" />
        <path
           inkscape:connector-curvature="0"
           id="ArialMT-116"
           d="M 25.78125,7.859375 27.046875,0.09375 Q 23.34375,-0.6875 20.40625,-0.6875 15.625,-0.6875 12.984375,0.828125 10.359375,2.34375 9.28125,4.8125 8.203125,7.28125 8.203125,15.1875 v 29.828125 h -6.4375 v 6.84375 h 6.4375 v 12.84375 L 16.9375,69.96875 V 51.859375 h 8.84375 v -6.84375 H 16.9375 v -30.3125 q 0,-3.765625 0.46875,-4.84375 0.46875,-1.0625 1.515625,-1.703125 1.046875,-0.640625 3,-0.640625 1.46875,0 3.859375,0.34375 z" />
        <path
           inkscape:connector-curvature="0"
           id="ArialMT-108"
           d="M 6.390625,0 V 71.578125 H 15.1875 V 0 Z" />
        <path
           inkscape:connector-curvature="0"
           id="ArialMT-83"
           d="m 4.5,23 8.921875,0.78125 q 0.640625,-5.375 2.953125,-8.8125 2.328125,-3.4375 7.203125,-5.5625 4.890625,-2.125 11,-2.125 5.40625,0 9.5625,1.609375 4.15625,1.609375 6.171875,4.40625 2.03125,2.8125 2.03125,6.140625 0,3.359375 -1.953125,5.875 -1.953125,2.515625 -6.4375,4.234375 -2.890625,1.125 -12.75,3.484375 -9.859375,2.375 -13.8125,4.46875 -5.140625,2.6875 -7.65625,6.65625 -2.5,3.984375 -2.5,8.921875 0,5.421875 3.0625,10.125 3.078125,4.71875 8.984375,7.15625 5.921875,2.4375 13.140625,2.4375 7.953125,0 14.03125,-2.5625 6.09375,-2.5625 9.359375,-7.546875 3.265625,-4.96875 3.515625,-11.265625 L 50.25,50.734375 q -0.734375,6.78125 -4.96875,10.25 -4.21875,3.46875 -12.46875,3.46875 -8.59375,0 -12.53125,-3.15625 -3.921875,-3.140625 -3.921875,-7.578125 0,-3.859375 2.78125,-6.359375 2.734375,-2.484375 14.28125,-5.09375 11.546875,-2.609375 15.84375,-4.5625 6.25,-2.890625 9.21875,-7.3125 2.984375,-4.40625 2.984375,-10.171875 0,-5.71875 -3.265625,-10.78125 -3.265625,-5.046875 -9.40625,-7.859375 -6.125,-2.796875 -13.78125,-2.796875 -9.71875,0 -16.296875,2.828125 Q 12.15625,4.4375 8.421875,10.125 4.6875,15.828125 4.5,23 Z" />
        <path
           inkscape:connector-curvature="0"
           id="ArialMT-105"
           d="M 6.640625,61.46875 V 71.578125 H 15.4375 V 61.46875 Z M 6.640625,0 V 51.859375 H 15.4375 V 0 Z" />
        <path
           inkscape:connector-curvature="0"
           id="ArialMT-115"
           d="m 3.078125,15.484375 8.6875,1.359375 Q 12.5,11.625 15.84375,8.84375 19.1875,6.0625 25.203125,6.0625 q 6.046875,0 8.96875,2.453125 2.9375,2.46875 2.9375,5.796875 0,2.96875 -2.59375,4.6875 Q 32.71875,20.171875 25.53125,21.96875 15.875,24.421875 12.140625,26.203125 8.40625,27.984375 6.46875,31.125 q -1.921875,3.15625 -1.921875,6.96875 0,3.453125 1.578125,6.40625 1.59375,2.96875 4.328125,4.921875 2.046875,1.5 5.578125,2.546875 3.546875,1.0625 7.609375,1.0625 6.09375,0 10.703125,-1.765625 4.625,-1.75 6.8125,-4.765625 2.203125,-3 3.03125,-8.015625 L 35.59375,37.3125 q -0.578125,4 -3.390625,6.234375 -2.8125,2.25 -7.9375,2.25 -6.046875,0 -8.640625,-2 -2.59375,-2 -2.59375,-4.6875 0,-1.703125 1.078125,-3.078125 1.078125,-1.40625 3.375,-2.34375 1.3125,-0.484375 7.765625,-2.234375 9.328125,-2.5 13,-4.09375 3.6875,-1.578125 5.78125,-4.609375 2.109375,-3.015625 2.109375,-7.515625 0,-4.390625 -2.5625,-8.28125 -2.5625,-3.875 -7.40625,-6 -4.828125,-2.125 -10.921875,-2.125 -10.109375,0 -15.40625,4.203125 -5.296875,4.203125 -6.765625,12.453125 z" />
      </defs>
      <g
         id="g176"
         transform="matrix(0.12,0,0,-0.12,159.38812,325.61844)"
         style="fill:#262626">
        <use
           height="100%"
           width="100%"
           y="0"
           x="0"
           id="use130"
           xlink:href="#ArialMT-78" />
        <use
           height="100%"
           width="100%"
           y="0"
           id="use132"
           xlink:href="#ArialMT-117"
           x="72.216797" />
        <use
           height="100%"
           width="100%"
           y="0"
           id="use134"
           xlink:href="#ArialMT-109"
           x="127.83203" />
        <use
           height="100%"
           width="100%"
           y="0"
           id="use136"
           xlink:href="#ArialMT-98"
           x="211.13281" />
        <use
           height="100%"
           width="100%"
           y="0"
           id="use138"
           xlink:href="#ArialMT-101"
           x="266.74805" />
        <use
           height="100%"
           width="100%"
           y="0"
           id="use140"
           xlink:href="#ArialMT-114"
           x="322.36328" />
        <use
           height="100%"
           width="100%"
           y="0"
           id="use142"
           xlink:href="#ArialMT-32"
           x="355.66406" />
        <use
           height="100%"
           width="100%"
           y="0"
           id="use144"
           xlink:href="#ArialMT-111"
           x="383.44727" />
        <use
           height="100%"
           width="100%"
           y="0"
           id="use146"
           xlink:href="#ArialMT-102"
           x="439.0625" />
        <use
           height="100%"
           width="100%"
           y="0"
           id="use148"
           xlink:href="#ArialMT-32"
           x="466.8457" />
        <use
           height="100%"
           width="100%"
           y="0"
           id="use150"
           xlink:href="#ArialMT-67"
           x="494.62891" />
        <use
           height="100%"
           width="100%"
           y="0"
           id="use152"
           xlink:href="#ArialMT-111"
           x="566.8457" />
        <use
           height="100%"
           width="100%"
           y="0"
           id="use154"
           xlink:href="#ArialMT-110"
           x="622.46094" />
        <use
           height="100%"
           width="100%"
           y="0"
           id="use156"
           xlink:href="#ArialMT-116"
           x="678.07617" />
        <use
           height="100%"
           width="100%"
           y="0"
           id="use158"
           xlink:href="#ArialMT-114"
           x="705.85938" />
        <use
           height="100%"
           width="100%"
           y="0"
           id="use160"
           xlink:href="#ArialMT-111"
           x="739.16016" />
        <use
           height="100%"
           width="100%"
           y="0"
           id="use162"
           xlink:href="#ArialMT-108"
           x="794.77539" />
        <use
           height="100%"
           width="100%"
           y="0"
           id="use164"
           xlink:href="#ArialMT-32"
           x="816.99219" />
        <use
           height="100%"
           width="100%"
           y="0"
           id="use166"
           xlink:href="#ArialMT-83"
           x="844.77539" />
        <use
           height="100%"
           width="100%"
           y="0"
           id="use168"
           xlink:href="#ArialMT-105"
           x="911.47461" />
        <use
           height="100%"
           width="100%"
           y="0"
           id="use170"
           xlink:href="#ArialMT-116"
           x="933.69141" />
        <use
           height="100%"
           width="100%"
           y="0"
           id="use172"
           xlink:href="#ArialMT-101"
           x="961.47461" />
        <use
           height="100%"
           width="100%"
           y="0"
           id="use174"
           xlink:href="#ArialMT-115"
           x="1017.0898" />
      </g>
    </g>
    <g
       id="ytick_1"
       transform="matrix(0.2890571,0,0,0.2890571,231.24608,38.526982)">
      <g
         id="line2d_1">
        <path
           inkscape:connector-curvature="0"
           id="path180"
           style="fill:none;stroke:#cccccc;stroke-linecap:round"
           d="M 71.94,293.46922 H 374.88"
           clip-path="url(#pd1f2e4c766)" />
      </g>
      <g
         id="text_12">
        <!-- 0 -->
        <g
           id="g185"
           transform="matrix(0.11,0,0,-0.11,56.322969,297.40602)"
           style="fill:#262626">
          <use
             height="100%"
             width="100%"
             y="0"
             x="0"
             id="use183"
             xlink:href="#ArialMT-48" />
        </g>
      </g>
    </g>
    <g
       id="ytick_2"
       transform="matrix(0.2890571,0,0,0.2890571,231.24608,38.526982)">
      <g
         id="line2d_2">
        <path
           inkscape:connector-curvature="0"
           id="path189"
           style="fill:none;stroke:#cccccc;stroke-linecap:round"
           d="M 71.94,255.53727 H 374.88"
           clip-path="url(#pd1f2e4c766)" />
      </g>
      <g
         id="text_13">
        <!-- 1 -->
        <g
           id="g194"
           transform="matrix(0.11,0,0,-0.11,56.322969,259.47407)"
           style="fill:#262626">
          <use
             height="100%"
             width="100%"
             y="0"
             x="0"
             id="use192"
             xlink:href="#ArialMT-49" />
        </g>
      </g>
    </g>
    <g
       id="ytick_3"
       transform="matrix(0.2890571,0,0,0.2890571,231.24608,38.526982)">
      <g
         id="line2d_3">
        <path
           inkscape:connector-curvature="0"
           id="path198"
           style="fill:none;stroke:#cccccc;stroke-linecap:round"
           d="M 71.94,217.60532 H 374.88"
           clip-path="url(#pd1f2e4c766)" />
      </g>
      <g
         id="text_14">
        <!-- 2 -->
        <g
           id="g203"
           transform="matrix(0.11,0,0,-0.11,56.322969,221.54212)"
           style="fill:#262626">
          <use
             height="100%"
             width="100%"
             y="0"
             x="0"
             id="use201"
             xlink:href="#ArialMT-50" />
        </g>
      </g>
    </g>
    <g
       id="ytick_4"
       transform="matrix(0.2890571,0,0,0.2890571,231.24608,38.526982)">
      <g
         id="line2d_4">
        <path
           inkscape:connector-curvature="0"
           id="path207"
           style="fill:none;stroke:#cccccc;stroke-linecap:round"
           d="M 71.94,179.67337 H 374.88"
           clip-path="url(#pd1f2e4c766)" />
      </g>
      <g
         id="text_15">
        <!-- 3 -->
        <g
           id="g212"
           transform="matrix(0.11,0,0,-0.11,56.322969,183.61017)"
           style="fill:#262626">
          <use
             height="100%"
             width="100%"
             y="0"
             x="0"
             id="use210"
             xlink:href="#ArialMT-51" />
        </g>
      </g>
    </g>
    <g
       id="ytick_5"
       transform="matrix(0.2890571,0,0,0.2890571,231.24608,38.526982)">
      <g
         id="line2d_5">
        <path
           inkscape:connector-curvature="0"
           id="path216"
           style="fill:none;stroke:#cccccc;stroke-linecap:round"
           d="M 71.94,141.74142 H 374.88"
           clip-path="url(#pd1f2e4c766)" />
      </g>
      <g
         id="text_16">
        <!-- 4 -->
        <g
           id="g221"
           transform="matrix(0.11,0,0,-0.11,56.322969,145.67822)"
           style="fill:#262626">
          <use
             height="100%"
             width="100%"
             y="0"
             x="0"
             id="use219"
             xlink:href="#ArialMT-52" />
        </g>
      </g>
    </g>
    <g
       id="ytick_6"
       transform="matrix(0.2890571,0,0,0.2890571,231.24608,38.526982)">
      <g
         id="line2d_6">
        <path
           inkscape:connector-curvature="0"
           id="path225"
           style="fill:none;stroke:#cccccc;stroke-linecap:round"
           d="M 71.94,103.80947 H 374.88"
           clip-path="url(#pd1f2e4c766)" />
      </g>
      <g
         id="text_17">
        <!-- 5 -->
        <g
           id="g230"
           transform="matrix(0.11,0,0,-0.11,56.322969,107.74627)"
           style="fill:#262626">
          <use
             height="100%"
             width="100%"
             y="0"
             x="0"
             id="use228"
             xlink:href="#ArialMT-53" />
        </g>
      </g>
    </g>
    <g
       id="ytick_7"
       transform="matrix(0.2890571,0,0,0.2890571,231.24608,38.526982)">
      <g
         id="line2d_7">
        <path
           inkscape:connector-curvature="0"
           id="path234"
           style="fill:none;stroke:#cccccc;stroke-linecap:round"
           d="M 71.94,65.87752 H 374.88"
           clip-path="url(#pd1f2e4c766)" />
      </g>
      <g
         id="text_18">
        <!-- 6 -->
        <g
           id="g239"
           transform="matrix(0.11,0,0,-0.11,56.322969,69.814317)"
           style="fill:#262626">
          <use
             height="100%"
             width="100%"
             y="0"
             x="0"
             id="use237"
             xlink:href="#ArialMT-54" />
        </g>
      </g>
    </g>
    <g
       id="ytick_8"
       transform="matrix(0.2890571,0,0,0.2890571,231.24608,38.526982)">
      <g
         id="line2d_8">
        <path
           inkscape:connector-curvature="0"
           id="path243"
           style="fill:none;stroke:#cccccc;stroke-linecap:round"
           d="M 71.94,27.945569 H 374.88"
           clip-path="url(#pd1f2e4c766)" />
      </g>
      <g
         id="text_19">
        <!-- 7 -->
        <g
           id="g248"
           transform="matrix(0.11,0,0,-0.11,56.322969,31.882366)"
           style="fill:#262626">
          <use
             height="100%"
             width="100%"
             y="0"
             x="0"
             id="use246"
             xlink:href="#ArialMT-55" />
        </g>
      </g>
    </g>
    <g
       id="text_20"
       transform="matrix(0.2890571,0,0,0.2890571,231.24608,38.526982)">
      <!-- Wall Clock Time (min) -->
      <defs
         id="defs259">
        <path
           inkscape:connector-curvature="0"
           id="ArialMT-87"
           d="m 20.21875,0 -19,71.578125 H 10.9375 L 21.828125,24.65625 q 1.75,-7.375 3.03125,-14.640625 2.734375,11.46875 3.21875,13.234375 l 13.625,48.328125 H 53.125 l 10.25,-36.21875 q 3.859375,-13.484375 5.578125,-25.34375 1.359375,6.78125 3.5625,15.578125 l 11.21875,45.984375 h 9.53125 L 73.640625,0 H 64.5 L 49.421875,54.546875 q -1.90625,6.828125 -2.25,8.390625 -1.125,-4.921875 -2.109375,-8.390625 L 29.890625,0 Z" />
        <path
           inkscape:connector-curvature="0"
           id="ArialMT-97"
           d="M 40.4375,6.390625 Q 35.546875,2.25 31.03125,0.53125 q -4.515625,-1.703125 -9.6875,-1.703125 -8.546875,0 -13.140625,4.171875 -4.59375,4.171875 -4.59375,10.671875 0,3.8125 1.734375,6.953125 1.734375,3.15625 4.546875,5.0625 2.8125,1.90625 6.328125,2.875 2.578125,0.6875 7.8125,1.328125 10.640625,1.265625 15.671875,3.015625 0.04687,1.8125 0.04687,2.296875 0,5.375 -2.5,7.578125 -3.359375,2.96875 -10,2.96875 -6.203125,0 -9.15625,-2.171875 -2.953125,-2.171875 -4.375,-7.6875 L 5.125,37.0625 q 1.171875,5.515625 3.859375,8.90625 2.6875,3.390625 7.765625,5.21875 5.078125,1.84375 11.765625,1.84375 6.640625,0 10.78125,-1.5625 4.15625,-1.5625 6.109375,-3.9375 1.953125,-2.359375 2.734375,-5.984375 0.4375,-2.234375 0.4375,-8.09375 v -11.71875 q 0,-12.265625 0.5625,-15.515625 Q 49.703125,2.984375 51.375,0 h -9.1875 q -1.359375,2.734375 -1.75,6.390625 z M 39.703125,26.03125 Q 34.90625,24.078125 25.34375,22.703125 19.921875,21.921875 17.671875,20.9375 15.4375,19.96875 14.203125,18.09375 q -1.21875,-1.875 -1.21875,-4.171875 0,-3.515625 2.65625,-5.859375 2.671875,-2.34375 7.796875,-2.34375 5.078125,0 9.03125,2.21875 3.953125,2.21875 5.8125,6.078125 1.421875,2.984375 1.421875,8.78125 z" />
        <path
           inkscape:connector-curvature="0"
           id="ArialMT-99"
           d="m 40.4375,19 8.640625,-1.125 Q 47.65625,8.9375 41.8125,3.875 35.984375,-1.171875 27.484375,-1.171875 16.84375,-1.171875 10.375,5.78125 3.90625,12.75 3.90625,25.734375 q 0,8.390625 2.78125,14.6875 2.78125,6.3125 8.46875,9.453125 5.6875,3.15625 12.390625,3.15625 8.4375,0 13.8125,-4.28125 5.375,-4.265625 6.890625,-12.125 l -8.546875,-1.328125 q -1.21875,5.234375 -4.328125,7.859375 -3.09375,2.640625 -7.5,2.640625 -6.640625,0 -10.796875,-4.765625 -4.140625,-4.75 -4.140625,-15.046875 0,-10.453125 4,-15.1875 Q 20.953125,6.0625 27.390625,6.0625 32.5625,6.0625 36.03125,9.234375 39.5,12.40625 40.4375,19 Z" />
        <path
           inkscape:connector-curvature="0"
           id="ArialMT-107"
           d="M 6.640625,0 V 71.578125 H 15.4375 v -40.8125 l 20.796875,21.09375 h 11.375 L 27.78125,32.625 49.609375,0 H 38.765625 L 21.625,26.515625 15.4375,20.5625 V 0 Z" />
        <path
           inkscape:connector-curvature="0"
           id="ArialMT-84"
           d="M 25.921875,0 V 63.140625 H 2.34375 v 8.4375 h 56.734375 v -8.4375 H 35.40625 V 0 Z" />
        <path
           inkscape:connector-curvature="0"
           id="ArialMT-40"
           d="m 23.390625,-21.046875 q -7.28125,9.1875 -12.3125,21.484375 Q 6.0625,12.75 6.0625,25.921875 q 0,11.625 3.75,22.265625 4.390625,12.359375 13.578125,24.609375 H 29.6875 q -5.90625,-10.15625 -7.8125,-14.5 -2.984375,-6.734375 -4.6875,-14.0625 -2.09375,-9.125 -2.09375,-18.359375 0,-23.484375 14.59375,-46.921875 z" />
        <path
           inkscape:connector-curvature="0"
           id="ArialMT-41"
           d="M 12.359375,-21.046875 H 6.0625 q 14.59375,23.4375 14.59375,46.921875 0,9.1875 -2.09375,18.21875 -1.671875,7.328125 -4.640625,14.0625 -1.90625,4.390625 -7.859375,14.640625 h 6.296875 Q 21.53125,60.546875 25.921875,48.1875 29.6875,37.546875 29.6875,25.921875 29.6875,12.75 24.625,0.4375 19.578125,-11.859375 12.359375,-21.046875 Z" />
      </defs>
      <g
         id="g303"
         transform="matrix(0,-0.12,-0.12,0,49.797344,211.98825)"
         style="fill:#262626">
        <use
           height="100%"
           width="100%"
           y="0"
           x="0"
           id="use261"
           xlink:href="#ArialMT-87" />
        <use
           height="100%"
           width="100%"
           y="0"
           id="use263"
           xlink:href="#ArialMT-97"
           x="94.337891" />
        <use
           height="100%"
           width="100%"
           y="0"
           id="use265"
           xlink:href="#ArialMT-108"
           x="149.95312" />
        <use
           height="100%"
           width="100%"
           y="0"
           id="use267"
           xlink:href="#ArialMT-108"
           x="172.16992" />
        <use
           height="100%"
           width="100%"
           y="0"
           id="use269"
           xlink:href="#ArialMT-32"
           x="194.38672" />
        <use
           height="100%"
           width="100%"
           y="0"
           id="use271"
           xlink:href="#ArialMT-67"
           x="222.16992" />
        <use
           height="100%"
           width="100%"
           y="0"
           id="use273"
           xlink:href="#ArialMT-108"
           x="294.38672" />
        <use
           height="100%"
           width="100%"
           y="0"
           id="use275"
           xlink:href="#ArialMT-111"
           x="316.60352" />
        <use
           height="100%"
           width="100%"
           y="0"
           id="use277"
           xlink:href="#ArialMT-99"
           x="372.21875" />
        <use
           height="100%"
           width="100%"
           y="0"
           id="use279"
           xlink:href="#ArialMT-107"
           x="422.21875" />
        <use
           height="100%"
           width="100%"
           y="0"
           id="use281"
           xlink:href="#ArialMT-32"
           x="472.21875" />
        <use
           height="100%"
           width="100%"
           y="0"
           id="use283"
           xlink:href="#ArialMT-84"
           x="499.98633" />
        <use
           height="100%"
           width="100%"
           y="0"
           id="use285"
           xlink:href="#ArialMT-105"
           x="561.02344" />
        <use
           height="100%"
           width="100%"
           y="0"
           id="use287"
           xlink:href="#ArialMT-109"
           x="583.24023" />
        <use
           height="100%"
           width="100%"
           y="0"
           id="use289"
           xlink:href="#ArialMT-101"
           x="666.54102" />
        <use
           height="100%"
           width="100%"
           y="0"
           id="use291"
           xlink:href="#ArialMT-32"
           x="722.15625" />
        <use
           height="100%"
           width="100%"
           y="0"
           id="use293"
           xlink:href="#ArialMT-40"
           x="749.93945" />
        <use
           height="100%"
           width="100%"
           y="0"
           id="use295"
           xlink:href="#ArialMT-109"
           x="783.24023" />
        <use
           height="100%"
           width="100%"
           y="0"
           id="use297"
           xlink:href="#ArialMT-105"
           x="866.54102" />
        <use
           height="100%"
           width="100%"
           y="0"
           id="use299"
           xlink:href="#ArialMT-110"
           x="888.75781" />
        <use
           height="100%"
           width="100%"
           y="0"
           id="use301"
           xlink:href="#ArialMT-41"
           x="944.37305" />
      </g>
    </g>
    <g
       id="PathCollection_1"
       transform="matrix(0.2890571,0,0,0.2890571,231.24608,38.526982)">
      <defs
         id="defs308">
        <path
           d="m 0,3.383948 c 0.897434,0 1.758231,-0.356554 2.392813,-0.991135 C 3.027394,1.758231 3.383948,0.897434 3.383948,0 c 0,-0.897434 -0.356554,-1.758231 -0.991135,-2.392813 C 1.758231,-3.027394 0.897434,-3.383948 0,-3.383948 c -0.897434,0 -1.758231,0.356554 -2.392813,0.991135 C -3.027394,-1.758231 -3.383948,-0.897434 -3.383948,0 c 0,0.897434 0.356554,1.758231 0.991135,2.392813 C -1.758231,3.027394 -0.897434,3.383948 0,3.383948 Z"
           id="C0_0_64e7f6be67"
           inkscape:connector-curvature="0" />
      </defs>
      <g
         clip-path="url(#pd1f2e4c766)"
         id="g312">
        <use
           style="fill:#4c72b0;stroke:#4c72b0;stroke-width:2.025"
           x="87.086998"
           xlink:href="#C0_0_64e7f6be67"
           y="24.728516"
           id="use310"
           width="100%"
           height="100%" />
      </g>
      <g
         clip-path="url(#pd1f2e4c766)"
         id="g316">
        <use
           style="fill:#4c72b0;stroke:#4c72b0;stroke-width:2.025"
           x="117.381"
           xlink:href="#C0_0_64e7f6be67"
           y="86.912369"
           id="use314"
           width="100%"
           height="100%" />
      </g>
      <g
         clip-path="url(#pd1f2e4c766)"
         id="g320">
        <use
           style="fill:#4c72b0;stroke:#4c72b0;stroke-width:2.025"
           x="147.675"
           xlink:href="#C0_0_64e7f6be67"
           y="47.10297"
           id="use318"
           width="100%"
           height="100%" />
      </g>
      <g
         clip-path="url(#pd1f2e4c766)"
         id="g324">
        <use
           style="fill:#4c72b0;stroke:#4c72b0;stroke-width:2.025"
           x="177.96899"
           xlink:href="#C0_0_64e7f6be67"
           y="62.420704"
           id="use322"
           width="100%"
           height="100%" />
      </g>
      <g
         clip-path="url(#pd1f2e4c766)"
         id="g328">
        <use
           style="fill:#4c72b0;stroke:#4c72b0;stroke-width:2.025"
           x="208.263"
           xlink:href="#C0_0_64e7f6be67"
           y="48.302158"
           id="use326"
           width="100%"
           height="100%" />
      </g>
      <g
         clip-path="url(#pd1f2e4c766)"
         id="g332">
        <use
           style="fill:#4c72b0;stroke:#4c72b0;stroke-width:2.025"
           x="238.55701"
           xlink:href="#C0_0_64e7f6be67"
           y="60.578888"
           id="use330"
           width="100%"
           height="100%" />
      </g>
      <g
         clip-path="url(#pd1f2e4c766)"
         id="g336">
        <use
           style="fill:#4c72b0;stroke:#4c72b0;stroke-width:2.025"
           x="268.85101"
           xlink:href="#C0_0_64e7f6be67"
           y="60.652195"
           id="use334"
           width="100%"
           height="100%" />
      </g>
      <g
         clip-path="url(#pd1f2e4c766)"
         id="g340">
        <use
           style="fill:#4c72b0;stroke:#4c72b0;stroke-width:2.025"
           x="299.14499"
           xlink:href="#C0_0_64e7f6be67"
           y="71.734192"
           id="use338"
           width="100%"
           height="100%" />
      </g>
      <g
         clip-path="url(#pd1f2e4c766)"
         id="g344">
        <use
           style="fill:#4c72b0;stroke:#4c72b0;stroke-width:2.025"
           x="329.439"
           xlink:href="#C0_0_64e7f6be67"
           y="80.449753"
           id="use342"
           width="100%"
           height="100%" />
      </g>
      <g
         clip-path="url(#pd1f2e4c766)"
         id="g348">
        <use
           style="fill:#4c72b0;stroke:#4c72b0;stroke-width:2.025"
           x="359.733"
           xlink:href="#C0_0_64e7f6be67"
           y="76.807014"
           id="use346"
           width="100%"
           height="100%" />
      </g>
    </g>
    <g
       id="line2d_9"
       transform="matrix(0.2890571,0,0,0.2890571,231.24608,38.526982)">
      <path
         clip-path="url(#pd1f2e4c766)"
         d="m 87.087,24.728516 30.294,62.183849 30.294,-39.809396 30.294,15.317736 30.294,-14.118546 30.294,12.27673 30.294,0.07331 30.294,11.081996 30.294,8.715563 30.294,-3.642741"
         style="fill:none;stroke:#4c72b0;stroke-width:2.7;stroke-linecap:round"
         id="path351"
         inkscape:connector-curvature="0" />
    </g>
    <g
       id="line2d_10"
       transform="matrix(0.2890571,0,0,0.2890571,231.24608,38.526982)">
      <path
         clip-path="url(#pd1f2e4c766)"
         d="M 87.087,32.563218 V 16.893813"
         style="fill:none;stroke:#4c72b0;stroke-width:2.7;stroke-linecap:round"
         id="path354"
         inkscape:connector-curvature="0" />
    </g>
    <g
       id="line2d_11"
       transform="matrix(0.2890571,0,0,0.2890571,231.24608,38.526982)">
      <path
         clip-path="url(#pd1f2e4c766)"
         d="m 84.0576,32.563218 h 6.0588"
         style="fill:none;stroke:#4c72b0;stroke-width:2.7;stroke-linecap:round"
         id="path357"
         inkscape:connector-curvature="0" />
    </g>
    <g
       id="line2d_12"
       transform="matrix(0.2890571,0,0,0.2890571,231.24608,38.526982)">
      <path
         clip-path="url(#pd1f2e4c766)"
         d="m 84.0576,16.893813 h 6.0588"
         style="fill:none;stroke:#4c72b0;stroke-width:2.7;stroke-linecap:round"
         id="path360"
         inkscape:connector-curvature="0" />
    </g>
    <g
       id="line2d_13"
       transform="matrix(0.2890571,0,0,0.2890571,231.24608,38.526982)">
      <path
         clip-path="url(#pd1f2e4c766)"
         d="M 117.381,90.962077 V 82.70677"
         style="fill:none;stroke:#4c72b0;stroke-width:2.7;stroke-linecap:round"
         id="path363"
         inkscape:connector-curvature="0" />
    </g>
    <g
       id="line2d_14"
       transform="matrix(0.2890571,0,0,0.2890571,231.24608,38.526982)">
      <path
         clip-path="url(#pd1f2e4c766)"
         d="m 114.3516,90.962077 h 6.0588"
         style="fill:none;stroke:#4c72b0;stroke-width:2.7;stroke-linecap:round"
         id="path366"
         inkscape:connector-curvature="0" />
    </g>
    <g
       id="line2d_15"
       transform="matrix(0.2890571,0,0,0.2890571,231.24608,38.526982)">
      <path
         clip-path="url(#pd1f2e4c766)"
         d="m 114.3516,82.70677 h 6.0588"
         style="fill:none;stroke:#4c72b0;stroke-width:2.7;stroke-linecap:round"
         id="path369"
         inkscape:connector-curvature="0" />
    </g>
    <g
       id="line2d_16"
       transform="matrix(0.2890571,0,0,0.2890571,231.24608,38.526982)">
      <path
         clip-path="url(#pd1f2e4c766)"
         d="M 147.675,67.732854 V 21.524781"
         style="fill:none;stroke:#4c72b0;stroke-width:2.7;stroke-linecap:round"
         id="path372"
         inkscape:connector-curvature="0" />
    </g>
    <g
       id="line2d_17"
       transform="matrix(0.2890571,0,0,0.2890571,231.24608,38.526982)">
      <path
         clip-path="url(#pd1f2e4c766)"
         d="m 144.6456,67.732854 h 6.0588"
         style="fill:none;stroke:#4c72b0;stroke-width:2.7;stroke-linecap:round"
         id="path375"
         inkscape:connector-curvature="0" />
    </g>
    <g
       id="line2d_18"
       transform="matrix(0.2890571,0,0,0.2890571,231.24608,38.526982)">
      <path
         clip-path="url(#pd1f2e4c766)"
         d="m 144.6456,21.524781 h 6.0588"
         style="fill:none;stroke:#4c72b0;stroke-width:2.7;stroke-linecap:round"
         id="path378"
         inkscape:connector-curvature="0" />
    </g>
    <g
       id="line2d_19"
       transform="matrix(0.2890571,0,0,0.2890571,231.24608,38.526982)">
      <path
         clip-path="url(#pd1f2e4c766)"
         d="M 177.969,81.073342 V 43.671681"
         style="fill:none;stroke:#4c72b0;stroke-width:2.7;stroke-linecap:round"
         id="path381"
         inkscape:connector-curvature="0" />
    </g>
    <g
       id="line2d_20"
       transform="matrix(0.2890571,0,0,0.2890571,231.24608,38.526982)">
      <path
         clip-path="url(#pd1f2e4c766)"
         d="m 174.9396,81.073342 h 6.0588"
         style="fill:none;stroke:#4c72b0;stroke-width:2.7;stroke-linecap:round"
         id="path384"
         inkscape:connector-curvature="0" />
    </g>
    <g
       id="line2d_21"
       transform="matrix(0.2890571,0,0,0.2890571,231.24608,38.526982)">
      <path
         clip-path="url(#pd1f2e4c766)"
         d="m 174.9396,43.671681 h 6.0588"
         style="fill:none;stroke:#4c72b0;stroke-width:2.7;stroke-linecap:round"
         id="path387"
         inkscape:connector-curvature="0" />
    </g>
    <g
       id="line2d_22"
       transform="matrix(0.2890571,0,0,0.2890571,231.24608,38.526982)">
      <path
         clip-path="url(#pd1f2e4c766)"
         d="M 208.263,65.140472 V 32.403859"
         style="fill:none;stroke:#4c72b0;stroke-width:2.7;stroke-linecap:round"
         id="path390"
         inkscape:connector-curvature="0" />
    </g>
    <g
       id="line2d_23"
       transform="matrix(0.2890571,0,0,0.2890571,231.24608,38.526982)">
      <path
         clip-path="url(#pd1f2e4c766)"
         d="m 205.2336,65.140472 h 6.0588"
         style="fill:none;stroke:#4c72b0;stroke-width:2.7;stroke-linecap:round"
         id="path393"
         inkscape:connector-curvature="0" />
    </g>
    <g
       id="line2d_24"
       transform="matrix(0.2890571,0,0,0.2890571,231.24608,38.526982)">
      <path
         clip-path="url(#pd1f2e4c766)"
         d="m 205.2336,32.403859 h 6.0588"
         style="fill:none;stroke:#4c72b0;stroke-width:2.7;stroke-linecap:round"
         id="path396"
         inkscape:connector-curvature="0" />
    </g>
    <g
       id="line2d_25"
       transform="matrix(0.2890571,0,0,0.2890571,231.24608,38.526982)">
      <path
         clip-path="url(#pd1f2e4c766)"
         d="M 238.557,72.972021 V 46.540149"
         style="fill:none;stroke:#4c72b0;stroke-width:2.7;stroke-linecap:round"
         id="path399"
         inkscape:connector-curvature="0" />
    </g>
    <g
       id="line2d_26"
       transform="matrix(0.2890571,0,0,0.2890571,231.24608,38.526982)">
      <path
         clip-path="url(#pd1f2e4c766)"
         d="m 235.5276,72.972021 h 6.0588"
         style="fill:none;stroke:#4c72b0;stroke-width:2.7;stroke-linecap:round"
         id="path402"
         inkscape:connector-curvature="0" />
    </g>
    <g
       id="line2d_27"
       transform="matrix(0.2890571,0,0,0.2890571,231.24608,38.526982)">
      <path
         clip-path="url(#pd1f2e4c766)"
         d="m 235.5276,46.540149 h 6.0588"
         style="fill:none;stroke:#4c72b0;stroke-width:2.7;stroke-linecap:round"
         id="path405"
         inkscape:connector-curvature="0" />
    </g>
    <g
       id="line2d_28"
       transform="matrix(0.2890571,0,0,0.2890571,231.24608,38.526982)">
      <path
         clip-path="url(#pd1f2e4c766)"
         d="M 268.851,70.460634 V 50.843756"
         style="fill:none;stroke:#4c72b0;stroke-width:2.7;stroke-linecap:round"
         id="path408"
         inkscape:connector-curvature="0" />
    </g>
    <g
       id="line2d_29"
       transform="matrix(0.2890571,0,0,0.2890571,231.24608,38.526982)">
      <path
         clip-path="url(#pd1f2e4c766)"
         d="m 265.8216,70.460634 h 6.0588"
         style="fill:none;stroke:#4c72b0;stroke-width:2.7;stroke-linecap:round"
         id="path411"
         inkscape:connector-curvature="0" />
    </g>
    <g
       id="line2d_30"
       transform="matrix(0.2890571,0,0,0.2890571,231.24608,38.526982)">
      <path
         clip-path="url(#pd1f2e4c766)"
         d="m 265.8216,50.843756 h 6.0588"
         style="fill:none;stroke:#4c72b0;stroke-width:2.7;stroke-linecap:round"
         id="path414"
         inkscape:connector-curvature="0" />
    </g>
    <g
       id="line2d_31"
       transform="matrix(0.2890571,0,0,0.2890571,231.24608,38.526982)">
      <path
         clip-path="url(#pd1f2e4c766)"
         d="M 299.145,81.860553 V 62.444943"
         style="fill:none;stroke:#4c72b0;stroke-width:2.7;stroke-linecap:round"
         id="path417"
         inkscape:connector-curvature="0" />
    </g>
    <g
       id="line2d_32"
       transform="matrix(0.2890571,0,0,0.2890571,231.24608,38.526982)">
      <path
         clip-path="url(#pd1f2e4c766)"
         d="m 296.1156,81.860553 h 6.0588"
         style="fill:none;stroke:#4c72b0;stroke-width:2.7;stroke-linecap:round"
         id="path420"
         inkscape:connector-curvature="0" />
    </g>
    <g
       id="line2d_33"
       transform="matrix(0.2890571,0,0,0.2890571,231.24608,38.526982)">
      <path
         clip-path="url(#pd1f2e4c766)"
         d="m 296.1156,62.444943 h 6.0588"
         style="fill:none;stroke:#4c72b0;stroke-width:2.7;stroke-linecap:round"
         id="path423"
         inkscape:connector-curvature="0" />
    </g>
    <g
       id="line2d_34"
       transform="matrix(0.2890571,0,0,0.2890571,231.24608,38.526982)">
      <path
         clip-path="url(#pd1f2e4c766)"
         d="M 329.439,84.72989 V 76.210739"
         style="fill:none;stroke:#4c72b0;stroke-width:2.7;stroke-linecap:round"
         id="path426"
         inkscape:connector-curvature="0" />
    </g>
    <g
       id="line2d_35"
       transform="matrix(0.2890571,0,0,0.2890571,231.24608,38.526982)">
      <path
         clip-path="url(#pd1f2e4c766)"
         d="m 326.4096,84.72989 h 6.0588"
         style="fill:none;stroke:#4c72b0;stroke-width:2.7;stroke-linecap:round"
         id="path429"
         inkscape:connector-curvature="0" />
    </g>
    <g
       id="line2d_36"
       transform="matrix(0.2890571,0,0,0.2890571,231.24608,38.526982)">
      <path
         clip-path="url(#pd1f2e4c766)"
         d="m 326.4096,76.210739 h 6.0588"
         style="fill:none;stroke:#4c72b0;stroke-width:2.7;stroke-linecap:round"
         id="path432"
         inkscape:connector-curvature="0" />
    </g>
    <g
       id="line2d_37"
       transform="matrix(0.2890571,0,0,0.2890571,231.24608,38.526982)">
      <path
         clip-path="url(#pd1f2e4c766)"
         d="M 359.733,78.369093 V 75.341578"
         style="fill:none;stroke:#4c72b0;stroke-width:2.7;stroke-linecap:round"
         id="path435"
         inkscape:connector-curvature="0" />
    </g>
    <g
       id="line2d_38"
       transform="matrix(0.2890571,0,0,0.2890571,231.24608,38.526982)">
      <path
         clip-path="url(#pd1f2e4c766)"
         d="m 356.7036,78.369093 h 6.0588"
         style="fill:none;stroke:#4c72b0;stroke-width:2.7;stroke-linecap:round"
         id="path438"
         inkscape:connector-curvature="0" />
    </g>
    <g
       id="line2d_39"
       transform="matrix(0.2890571,0,0,0.2890571,231.24608,38.526982)">
      <path
         clip-path="url(#pd1f2e4c766)"
         d="m 356.7036,75.341578 h 6.0588"
         style="fill:none;stroke:#4c72b0;stroke-width:2.7;stroke-linecap:round"
         id="path441"
         inkscape:connector-curvature="0" />
    </g>
    <g
       id="patch_3"
       transform="matrix(0.2890571,0,0,0.2890571,231.24608,38.526982)">
      <path
         d="M 71.94,293.46922 V 13.1904"
         style="fill:none;stroke:#cccccc;stroke-width:1.25;stroke-linecap:square;stroke-linejoin:miter"
         id="path444"
         inkscape:connector-curvature="0" />
    </g>
    <g
       id="patch_4"
       transform="matrix(0.2890571,0,0,0.2890571,231.24608,38.526982)">
      <path
         d="M 71.94,293.46922 H 374.88"
         style="fill:none;stroke:#cccccc;stroke-width:1.25;stroke-linecap:square;stroke-linejoin:miter"
         id="path447"
         inkscape:connector-curvature="0" />
    </g>
  </g>
  <defs
     id="defs455">
    <clipPath
       id="pd1f2e4c766">
      <rect
         id="rect452"
         y="13.1904"
         x="71.940002"
         width="302.94"
         height="280.27884" />
    </clipPath>
  </defs>
</svg>
