<?xml version="1.0" encoding="utf-8" standalone="no"?>
<!DOCTYPE svg PUBLIC "-//W3C//DTD SVG 1.1//EN"
  "http://www.w3.org/Graphics/SVG/1.1/DTD/svg11.dtd">
<!-- Created with matplotlib (https://matplotlib.org/) -->
<svg height="345.6pt" version="1.1" viewBox="0 0 460.8 345.6" width="460.8pt" xmlns="http://www.w3.org/2000/svg" xmlns:xlink="http://www.w3.org/1999/xlink">
 <defs>
  <style type="text/css">
*{stroke-linecap:butt;stroke-linejoin:round;}
  </style>
 </defs>
 <g id="figure_1">
  <g id="patch_1">
   <path d="M 0 345.6 
L 460.8 345.6 
L 460.8 0 
L 0 0 
z
" style="fill:#ffffff;"/>
  </g>
  <g id="axes_1">
   <g id="patch_2">
    <path d="M 57.6 307.584 
L 414.72 307.584 
L 414.72 41.472 
L 57.6 41.472 
z
" style="fill:#ffffff;"/>
   </g>
   <g id="PolyCollection_1">
    <path clip-path="url(#p612aca08be)" d="M 73.832727 307.577998 
L 73.832727 307.584 
L 77.112066 307.584 
L 80.391405 307.584 
L 83.670744 307.584 
L 86.950083 307.584 
L 90.229421 307.584 
L 93.50876 307.584 
L 96.788099 307.584 
L 100.067438 307.584 
L 103.346777 307.584 
L 106.626116 307.584 
L 109.905455 307.584 
L 113.184793 307.584 
L 116.464132 307.584 
L 119.743471 307.584 
L 123.02281 307.584 
L 126.302149 307.584 
L 129.581488 307.584 
L 132.860826 307.584 
L 136.140165 307.584 
L 139.419504 307.584 
L 142.698843 307.584 
L 145.978182 307.584 
L 149.257521 307.584 
L 152.53686 307.584 
L 155.816198 307.584 
L 159.095537 307.584 
L 162.374876 307.584 
L 165.654215 307.584 
L 168.933554 307.584 
L 172.212893 307.584 
L 175.492231 307.584 
L 178.77157 307.584 
L 182.050909 307.584 
L 185.330248 307.584 
L 188.609587 307.584 
L 191.888926 307.584 
L 195.168264 307.584 
L 198.447603 307.584 
L 201.726942 307.584 
L 205.006281 307.584 
L 208.28562 307.584 
L 211.564959 307.584 
L 214.844298 307.584 
L 218.123636 307.584 
L 221.402975 307.584 
L 224.682314 307.584 
L 227.961653 307.584 
L 231.240992 307.584 
L 234.520331 307.584 
L 237.799669 307.584 
L 241.079008 307.584 
L 244.358347 307.584 
L 247.637686 307.584 
L 250.917025 307.584 
L 254.196364 307.584 
L 257.475702 307.584 
L 260.755041 307.584 
L 264.03438 307.584 
L 267.313719 307.584 
L 270.593058 307.584 
L 273.872397 307.584 
L 277.151736 307.584 
L 280.431074 307.584 
L 283.710413 307.584 
L 286.989752 307.584 
L 290.269091 307.584 
L 293.54843 307.584 
L 296.827769 307.584 
L 300.107107 307.584 
L 303.386446 307.584 
L 306.665785 307.584 
L 309.945124 307.584 
L 313.224463 307.584 
L 316.503802 307.584 
L 319.78314 307.584 
L 323.062479 307.584 
L 326.341818 307.584 
L 329.621157 307.584 
L 332.900496 307.584 
L 336.179835 307.584 
L 339.459174 307.584 
L 342.738512 307.584 
L 346.017851 307.584 
L 349.29719 307.584 
L 352.576529 307.584 
L 355.855868 307.584 
L 359.135207 307.584 
L 362.414545 307.584 
L 365.693884 307.584 
L 368.973223 307.584 
L 372.252562 307.584 
L 375.531901 307.584 
L 378.81124 307.584 
L 382.090579 307.584 
L 385.369917 307.584 
L 388.649256 307.584 
L 391.928595 307.584 
L 395.207934 307.584 
L 398.487273 307.584 
L 398.487273 307.577959 
L 398.487273 307.577959 
L 395.207934 307.565962 
L 391.928595 307.537507 
L 388.649256 307.480327 
L 385.369917 307.383284 
L 382.090579 307.244697 
L 378.81124 307.078889 
L 375.531901 306.913566 
L 372.252562 306.776924 
L 368.973223 306.682624 
L 365.693884 306.621959 
L 362.414545 306.565283 
L 359.135207 306.471106 
L 355.855868 306.30303 
L 352.576529 306.049517 
L 349.29719 305.729543 
L 346.017851 305.370701 
L 342.738512 304.972784 
L 339.459174 304.489598 
L 336.179835 303.846892 
L 332.900496 302.981842 
L 329.621157 301.876005 
L 326.341818 300.563222 
L 323.062479 299.105145 
L 319.78314 297.538423 
L 316.503802 295.820579 
L 313.224463 293.817283 
L 309.945124 291.350132 
L 306.665785 288.278027 
L 303.386446 284.568483 
L 300.107107 280.335949 
L 296.827769 275.838985 
L 293.54843 271.419253 
L 290.269091 267.373597 
L 286.989752 263.804781 
L 283.710413 260.544332 
L 280.431074 257.201486 
L 277.151736 253.286408 
L 273.872397 248.311043 
L 270.593058 241.844857 
L 267.313719 233.580576 
L 264.03438 223.43163 
L 260.755041 211.605443 
L 257.475702 198.598735 
L 254.196364 185.112556 
L 250.917025 171.89524 
L 247.637686 159.530531 
L 244.358347 148.25353 
L 241.079008 137.904228 
L 237.799669 128.0414 
L 234.520331 118.157029 
L 231.240992 107.941763 
L 227.961653 97.53346 
L 224.682314 87.588639 
L 221.402975 79.062204 
L 218.123636 72.834614 
L 214.844298 69.460729 
L 211.564959 69.106817 
L 208.28562 71.51248 
L 205.006281 75.940696 
L 201.726942 81.335747 
L 198.447603 86.798918 
L 195.168264 92.080979 
L 191.888926 97.661585 
L 188.609587 104.366186 
L 185.330248 112.889799 
L 182.050909 123.557608 
L 178.77157 136.297418 
L 175.492231 150.63943 
L 172.212893 165.732116 
L 168.933554 180.513072 
L 165.654215 194.04905 
L 162.374876 205.856253 
L 159.095537 216.008287 
L 155.816198 225.001299 
L 152.53686 233.476303 
L 149.257521 241.935967 
L 145.978182 250.581155 
L 142.698843 259.323027 
L 139.419504 267.904397 
L 136.140165 276.004387 
L 132.860826 283.280563 
L 129.581488 289.412967 
L 126.302149 294.204916 
L 123.02281 297.68947 
L 119.743471 300.135454 
L 116.464132 301.917005 
L 113.184793 303.333224 
L 109.905455 304.511345 
L 106.626116 305.448216 
L 103.346777 306.122393 
L 100.067438 306.567313 
L 96.788099 306.861644 
L 93.50876 307.078243 
L 90.229421 307.252384 
L 86.950083 307.388296 
L 83.670744 307.482432 
L 80.391405 307.538187 
L 77.112066 307.56614 
L 73.832727 307.577998 
z
" style="fill:#008000;fill-opacity:0.25;"/>
   </g>
   <g id="patch_3">
    <path clip-path="url(#p612aca08be)" d="M 99.177144 307.584 
L 107.004736 307.584 
L 107.004736 306.127448 
L 99.177144 306.127448 
z
" style="fill:#008000;opacity:0.4;"/>
   </g>
   <g id="patch_4">
    <path clip-path="url(#p612aca08be)" d="M 107.004736 307.584 
L 114.832327 307.584 
L 114.832327 307.584 
L 107.004736 307.584 
z
" style="fill:#008000;opacity:0.4;"/>
   </g>
   <g id="patch_5">
    <path clip-path="url(#p612aca08be)" d="M 114.832327 307.584 
L 122.659919 307.584 
L 122.659919 297.388138 
L 114.832327 297.388138 
z
" style="fill:#008000;opacity:0.4;"/>
   </g>
   <g id="patch_6">
    <path clip-path="url(#p612aca08be)" d="M 122.659919 307.584 
L 130.487511 307.584 
L 130.487511 301.757793 
L 122.659919 301.757793 
z
" style="fill:#008000;opacity:0.4;"/>
   </g>
   <g id="patch_7">
    <path clip-path="url(#p612aca08be)" d="M 130.487511 307.584 
L 138.315103 307.584 
L 138.315103 282.822621 
L 130.487511 282.822621 
z
" style="fill:#008000;opacity:0.4;"/>
   </g>
   <g id="patch_8">
    <path clip-path="url(#p612aca08be)" d="M 138.315103 307.584 
L 146.142695 307.584 
L 146.142695 265.344 
L 138.315103 265.344 
z
" style="fill:#008000;opacity:0.4;"/>
   </g>
   <g id="patch_9">
    <path clip-path="url(#p612aca08be)" d="M 146.142695 307.584 
L 153.970286 307.584 
L 153.970286 227.473655 
L 146.142695 227.473655 
z
" style="fill:#008000;opacity:0.4;"/>
   </g>
   <g id="patch_10">
    <path clip-path="url(#p612aca08be)" d="M 153.970286 307.584 
L 161.797878 307.584 
L 161.797878 228.930207 
L 153.970286 228.930207 
z
" style="fill:#008000;opacity:0.4;"/>
   </g>
   <g id="patch_11">
    <path clip-path="url(#p612aca08be)" d="M 161.797878 307.584 
L 169.62547 307.584 
L 169.62547 202.712276 
L 161.797878 202.712276 
z
" style="fill:#008000;opacity:0.4;"/>
   </g>
   <g id="patch_12">
    <path clip-path="url(#p612aca08be)" d="M 169.62547 307.584 
L 177.453062 307.584 
L 177.453062 163.385379 
L 169.62547 163.385379 
z
" style="fill:#008000;opacity:0.4;"/>
   </g>
   <g id="patch_13">
    <path clip-path="url(#p612aca08be)" d="M 177.453062 307.584 
L 185.280653 307.584 
L 185.280653 115.319172 
L 177.453062 115.319172 
z
" style="fill:#008000;opacity:0.4;"/>
   </g>
   <g id="patch_14">
    <path clip-path="url(#p612aca08be)" d="M 185.280653 307.584 
L 193.108245 307.584 
L 193.108245 86.188138 
L 185.280653 86.188138 
z
" style="fill:#008000;opacity:0.4;"/>
   </g>
   <g id="patch_15">
    <path clip-path="url(#p612aca08be)" d="M 193.108245 307.584 
L 200.935837 307.584 
L 200.935837 99.297103 
L 193.108245 99.297103 
z
" style="fill:#008000;opacity:0.4;"/>
   </g>
   <g id="patch_16">
    <path clip-path="url(#p612aca08be)" d="M 200.935837 307.584 
L 208.763429 307.584 
L 208.763429 81.818483 
L 200.935837 81.818483 
z
" style="fill:#008000;opacity:0.4;"/>
   </g>
   <g id="patch_17">
    <path clip-path="url(#p612aca08be)" d="M 208.763429 307.584 
L 216.591021 307.584 
L 216.591021 54.144 
L 208.763429 54.144 
z
" style="fill:#008000;opacity:0.4;"/>
   </g>
   <g id="patch_18">
    <path clip-path="url(#p612aca08be)" d="M 216.591021 307.584 
L 224.418612 307.584 
L 224.418612 54.144 
L 216.591021 54.144 
z
" style="fill:#008000;opacity:0.4;"/>
   </g>
   <g id="patch_19">
    <path clip-path="url(#p612aca08be)" d="M 224.418612 307.584 
L 232.246204 307.584 
L 232.246204 112.406069 
L 224.418612 112.406069 
z
" style="fill:#008000;opacity:0.4;"/>
   </g>
   <g id="patch_20">
    <path clip-path="url(#p612aca08be)" d="M 232.246204 307.584 
L 240.073796 307.584 
L 240.073796 115.319172 
L 232.246204 115.319172 
z
" style="fill:#008000;opacity:0.4;"/>
   </g>
   <g id="patch_21">
    <path clip-path="url(#p612aca08be)" d="M 240.073796 307.584 
L 247.901388 307.584 
L 247.901388 161.928828 
L 240.073796 161.928828 
z
" style="fill:#008000;opacity:0.4;"/>
   </g>
   <g id="patch_22">
    <path clip-path="url(#p612aca08be)" d="M 247.901388 307.584 
L 255.728979 307.584 
L 255.728979 161.928828 
L 247.901388 161.928828 
z
" style="fill:#008000;opacity:0.4;"/>
   </g>
   <g id="patch_23">
    <path clip-path="url(#p612aca08be)" d="M 255.728979 307.584 
L 263.556571 307.584 
L 263.556571 198.342621 
L 255.728979 198.342621 
z
" style="fill:#008000;opacity:0.4;"/>
   </g>
   <g id="patch_24">
    <path clip-path="url(#p612aca08be)" d="M 263.556571 307.584 
L 271.384163 307.584 
L 271.384163 252.235034 
L 263.556571 252.235034 
z
" style="fill:#008000;opacity:0.4;"/>
   </g>
   <g id="patch_25">
    <path clip-path="url(#p612aca08be)" d="M 271.384163 307.584 
L 279.211755 307.584 
L 279.211755 247.865379 
L 271.384163 247.865379 
z
" style="fill:#008000;opacity:0.4;"/>
   </g>
   <g id="patch_26">
    <path clip-path="url(#p612aca08be)" d="M 279.211755 307.584 
L 287.039347 307.584 
L 287.039347 263.887448 
L 279.211755 263.887448 
z
" style="fill:#008000;opacity:0.4;"/>
   </g>
   <g id="patch_27">
    <path clip-path="url(#p612aca08be)" d="M 287.039347 307.584 
L 294.866938 307.584 
L 294.866938 263.887448 
L 287.039347 263.887448 
z
" style="fill:#008000;opacity:0.4;"/>
   </g>
   <g id="patch_28">
    <path clip-path="url(#p612aca08be)" d="M 294.866938 307.584 
L 302.69453 307.584 
L 302.69453 282.822621 
L 294.866938 282.822621 
z
" style="fill:#008000;opacity:0.4;"/>
   </g>
   <g id="patch_29">
    <path clip-path="url(#p612aca08be)" d="M 302.69453 307.584 
L 310.522122 307.584 
L 310.522122 291.561931 
L 302.69453 291.561931 
z
" style="fill:#008000;opacity:0.4;"/>
   </g>
   <g id="patch_30">
    <path clip-path="url(#p612aca08be)" d="M 310.522122 307.584 
L 318.349714 307.584 
L 318.349714 295.931586 
L 310.522122 295.931586 
z
" style="fill:#008000;opacity:0.4;"/>
   </g>
   <g id="patch_31">
    <path clip-path="url(#p612aca08be)" d="M 318.349714 307.584 
L 326.177305 307.584 
L 326.177305 297.388138 
L 318.349714 297.388138 
z
" style="fill:#008000;opacity:0.4;"/>
   </g>
   <g id="patch_32">
    <path clip-path="url(#p612aca08be)" d="M 326.177305 307.584 
L 334.004897 307.584 
L 334.004897 303.214345 
L 326.177305 303.214345 
z
" style="fill:#008000;opacity:0.4;"/>
   </g>
   <g id="patch_33">
    <path clip-path="url(#p612aca08be)" d="M 334.004897 307.584 
L 341.832489 307.584 
L 341.832489 304.670897 
L 334.004897 304.670897 
z
" style="fill:#008000;opacity:0.4;"/>
   </g>
   <g id="patch_34">
    <path clip-path="url(#p612aca08be)" d="M 341.832489 307.584 
L 349.660081 307.584 
L 349.660081 304.670897 
L 341.832489 304.670897 
z
" style="fill:#008000;opacity:0.4;"/>
   </g>
   <g id="patch_35">
    <path clip-path="url(#p612aca08be)" d="M 349.660081 307.584 
L 357.487673 307.584 
L 357.487673 307.584 
L 349.660081 307.584 
z
" style="fill:#008000;opacity:0.4;"/>
   </g>
   <g id="patch_36">
    <path clip-path="url(#p612aca08be)" d="M 357.487673 307.584 
L 365.315264 307.584 
L 365.315264 306.127448 
L 357.487673 306.127448 
z
" style="fill:#008000;opacity:0.4;"/>
   </g>
   <g id="patch_37">
    <path clip-path="url(#p612aca08be)" d="M 365.315264 307.584 
L 373.142856 307.584 
L 373.142856 306.127448 
L 365.315264 306.127448 
z
" style="fill:#008000;opacity:0.4;"/>
   </g>
   <g id="matplotlib.axis_1">
    <g id="xtick_1">
     <g id="line2d_1">
      <defs>
       <path d="M 0 0 
L 0 3.5 
" id="m78b9ae33d4" style="stroke:#000000;stroke-width:0.8;"/>
      </defs>
      <g>
       <use style="stroke:#000000;stroke-width:0.8;" x="76.935394" xlink:href="#m78b9ae33d4" y="307.584"/>
      </g>
     </g>
     <g id="text_1">
      <!-- 2.0 -->
      <defs>
       <path d="M 19.1875 8.296875 
L 53.609375 8.296875 
L 53.609375 0 
L 7.328125 0 
L 7.328125 8.296875 
Q 12.9375 14.109375 22.625 23.890625 
Q 32.328125 33.6875 34.8125 36.53125 
Q 39.546875 41.84375 41.421875 45.53125 
Q 43.3125 49.21875 43.3125 52.78125 
Q 43.3125 58.59375 39.234375 62.25 
Q 35.15625 65.921875 28.609375 65.921875 
Q 23.96875 65.921875 18.8125 64.3125 
Q 13.671875 62.703125 7.8125 59.421875 
L 7.8125 69.390625 
Q 13.765625 71.78125 18.9375 73 
Q 24.125 74.21875 28.421875 74.21875 
Q 39.75 74.21875 46.484375 68.546875 
Q 53.21875 62.890625 53.21875 53.421875 
Q 53.21875 48.921875 51.53125 44.890625 
Q 49.859375 40.875 45.40625 35.40625 
Q 44.1875 33.984375 37.640625 27.21875 
Q 31.109375 20.453125 19.1875 8.296875 
z
" id="DejaVuSans-50"/>
       <path d="M 10.6875 12.40625 
L 21 12.40625 
L 21 0 
L 10.6875 0 
z
" id="DejaVuSans-46"/>
       <path d="M 31.78125 66.40625 
Q 24.171875 66.40625 20.328125 58.90625 
Q 16.5 51.421875 16.5 36.375 
Q 16.5 21.390625 20.328125 13.890625 
Q 24.171875 6.390625 31.78125 6.390625 
Q 39.453125 6.390625 43.28125 13.890625 
Q 47.125 21.390625 47.125 36.375 
Q 47.125 51.421875 43.28125 58.90625 
Q 39.453125 66.40625 31.78125 66.40625 
z
M 31.78125 74.21875 
Q 44.046875 74.21875 50.515625 64.515625 
Q 56.984375 54.828125 56.984375 36.375 
Q 56.984375 17.96875 50.515625 8.265625 
Q 44.046875 -1.421875 31.78125 -1.421875 
Q 19.53125 -1.421875 13.0625 8.265625 
Q 6.59375 17.96875 6.59375 36.375 
Q 6.59375 54.828125 13.0625 64.515625 
Q 19.53125 74.21875 31.78125 74.21875 
z
" id="DejaVuSans-48"/>
      </defs>
      <g transform="translate(68.983832 322.182437)scale(0.1 -0.1)">
       <use xlink:href="#DejaVuSans-50"/>
       <use x="63.623047" xlink:href="#DejaVuSans-46"/>
       <use x="95.410156" xlink:href="#DejaVuSans-48"/>
      </g>
     </g>
    </g>
    <g id="xtick_2">
     <g id="line2d_2">
      <g>
       <use style="stroke:#000000;stroke-width:0.8;" x="130.871383" xlink:href="#m78b9ae33d4" y="307.584"/>
      </g>
     </g>
     <g id="text_2">
      <!-- 2.5 -->
      <defs>
       <path d="M 10.796875 72.90625 
L 49.515625 72.90625 
L 49.515625 64.59375 
L 19.828125 64.59375 
L 19.828125 46.734375 
Q 21.96875 47.46875 24.109375 47.828125 
Q 26.265625 48.1875 28.421875 48.1875 
Q 40.625 48.1875 47.75 41.5 
Q 54.890625 34.8125 54.890625 23.390625 
Q 54.890625 11.625 47.5625 5.09375 
Q 40.234375 -1.421875 26.90625 -1.421875 
Q 22.3125 -1.421875 17.546875 -0.640625 
Q 12.796875 0.140625 7.71875 1.703125 
L 7.71875 11.625 
Q 12.109375 9.234375 16.796875 8.0625 
Q 21.484375 6.890625 26.703125 6.890625 
Q 35.15625 6.890625 40.078125 11.328125 
Q 45.015625 15.765625 45.015625 23.390625 
Q 45.015625 31 40.078125 35.4375 
Q 35.15625 39.890625 26.703125 39.890625 
Q 22.75 39.890625 18.8125 39.015625 
Q 14.890625 38.140625 10.796875 36.28125 
z
" id="DejaVuSans-53"/>
      </defs>
      <g transform="translate(122.919821 322.182437)scale(0.1 -0.1)">
       <use xlink:href="#DejaVuSans-50"/>
       <use x="63.623047" xlink:href="#DejaVuSans-46"/>
       <use x="95.410156" xlink:href="#DejaVuSans-53"/>
      </g>
     </g>
    </g>
    <g id="xtick_3">
     <g id="line2d_3">
      <g>
       <use style="stroke:#000000;stroke-width:0.8;" x="184.807373" xlink:href="#m78b9ae33d4" y="307.584"/>
      </g>
     </g>
     <g id="text_3">
      <!-- 3.0 -->
      <defs>
       <path d="M 40.578125 39.3125 
Q 47.65625 37.796875 51.625 33 
Q 55.609375 28.21875 55.609375 21.1875 
Q 55.609375 10.40625 48.1875 4.484375 
Q 40.765625 -1.421875 27.09375 -1.421875 
Q 22.515625 -1.421875 17.65625 -0.515625 
Q 12.796875 0.390625 7.625 2.203125 
L 7.625 11.71875 
Q 11.71875 9.328125 16.59375 8.109375 
Q 21.484375 6.890625 26.8125 6.890625 
Q 36.078125 6.890625 40.9375 10.546875 
Q 45.796875 14.203125 45.796875 21.1875 
Q 45.796875 27.640625 41.28125 31.265625 
Q 36.765625 34.90625 28.71875 34.90625 
L 20.21875 34.90625 
L 20.21875 43.015625 
L 29.109375 43.015625 
Q 36.375 43.015625 40.234375 45.921875 
Q 44.09375 48.828125 44.09375 54.296875 
Q 44.09375 59.90625 40.109375 62.90625 
Q 36.140625 65.921875 28.71875 65.921875 
Q 24.65625 65.921875 20.015625 65.03125 
Q 15.375 64.15625 9.8125 62.3125 
L 9.8125 71.09375 
Q 15.4375 72.65625 20.34375 73.4375 
Q 25.25 74.21875 29.59375 74.21875 
Q 40.828125 74.21875 47.359375 69.109375 
Q 53.90625 64.015625 53.90625 55.328125 
Q 53.90625 49.265625 50.4375 45.09375 
Q 46.96875 40.921875 40.578125 39.3125 
z
" id="DejaVuSans-51"/>
      </defs>
      <g transform="translate(176.85581 322.182437)scale(0.1 -0.1)">
       <use xlink:href="#DejaVuSans-51"/>
       <use x="63.623047" xlink:href="#DejaVuSans-46"/>
       <use x="95.410156" xlink:href="#DejaVuSans-48"/>
      </g>
     </g>
    </g>
    <g id="xtick_4">
     <g id="line2d_4">
      <g>
       <use style="stroke:#000000;stroke-width:0.8;" x="238.743362" xlink:href="#m78b9ae33d4" y="307.584"/>
      </g>
     </g>
     <g id="text_4">
      <!-- 3.5 -->
      <g transform="translate(230.791799 322.182437)scale(0.1 -0.1)">
       <use xlink:href="#DejaVuSans-51"/>
       <use x="63.623047" xlink:href="#DejaVuSans-46"/>
       <use x="95.410156" xlink:href="#DejaVuSans-53"/>
      </g>
     </g>
    </g>
    <g id="xtick_5">
     <g id="line2d_5">
      <g>
       <use style="stroke:#000000;stroke-width:0.8;" x="292.679351" xlink:href="#m78b9ae33d4" y="307.584"/>
      </g>
     </g>
     <g id="text_5">
      <!-- 4.0 -->
      <defs>
       <path d="M 37.796875 64.3125 
L 12.890625 25.390625 
L 37.796875 25.390625 
z
M 35.203125 72.90625 
L 47.609375 72.90625 
L 47.609375 25.390625 
L 58.015625 25.390625 
L 58.015625 17.1875 
L 47.609375 17.1875 
L 47.609375 0 
L 37.796875 0 
L 37.796875 17.1875 
L 4.890625 17.1875 
L 4.890625 26.703125 
z
" id="DejaVuSans-52"/>
      </defs>
      <g transform="translate(284.727789 322.182437)scale(0.1 -0.1)">
       <use xlink:href="#DejaVuSans-52"/>
       <use x="63.623047" xlink:href="#DejaVuSans-46"/>
       <use x="95.410156" xlink:href="#DejaVuSans-48"/>
      </g>
     </g>
    </g>
    <g id="xtick_6">
     <g id="line2d_6">
      <g>
       <use style="stroke:#000000;stroke-width:0.8;" x="346.61534" xlink:href="#m78b9ae33d4" y="307.584"/>
      </g>
     </g>
     <g id="text_6">
      <!-- 4.5 -->
      <g transform="translate(338.663778 322.182437)scale(0.1 -0.1)">
       <use xlink:href="#DejaVuSans-52"/>
       <use x="63.623047" xlink:href="#DejaVuSans-46"/>
       <use x="95.410156" xlink:href="#DejaVuSans-53"/>
      </g>
     </g>
    </g>
    <g id="xtick_7">
     <g id="line2d_7">
      <g>
       <use style="stroke:#000000;stroke-width:0.8;" x="400.551329" xlink:href="#m78b9ae33d4" y="307.584"/>
      </g>
     </g>
     <g id="text_7">
      <!-- 5.0 -->
      <g transform="translate(392.599767 322.182437)scale(0.1 -0.1)">
       <use xlink:href="#DejaVuSans-53"/>
       <use x="63.623047" xlink:href="#DejaVuSans-46"/>
       <use x="95.410156" xlink:href="#DejaVuSans-48"/>
      </g>
     </g>
    </g>
   </g>
   <g id="matplotlib.axis_2">
    <g id="ytick_1">
     <g id="line2d_8">
      <defs>
       <path d="M 0 0 
L -3.5 0 
" id="ma04a836b95" style="stroke:#000000;stroke-width:0.8;"/>
      </defs>
      <g>
       <use style="stroke:#000000;stroke-width:0.8;" x="57.6" xlink:href="#ma04a836b95" y="307.584"/>
      </g>
     </g>
     <g id="text_8">
      <!-- 0.0 -->
      <g transform="translate(34.696875 311.383219)scale(0.1 -0.1)">
       <use xlink:href="#DejaVuSans-48"/>
       <use x="63.623047" xlink:href="#DejaVuSans-46"/>
       <use x="95.410156" xlink:href="#DejaVuSans-48"/>
      </g>
     </g>
    </g>
    <g id="ytick_2">
     <g id="line2d_9">
      <g>
       <use style="stroke:#000000;stroke-width:0.8;" x="57.6" xlink:href="#ma04a836b95" y="265.306877"/>
      </g>
     </g>
     <g id="text_9">
      <!-- 0.2 -->
      <g transform="translate(34.696875 269.106096)scale(0.1 -0.1)">
       <use xlink:href="#DejaVuSans-48"/>
       <use x="63.623047" xlink:href="#DejaVuSans-46"/>
       <use x="95.410156" xlink:href="#DejaVuSans-50"/>
      </g>
     </g>
    </g>
    <g id="ytick_3">
     <g id="line2d_10">
      <g>
       <use style="stroke:#000000;stroke-width:0.8;" x="57.6" xlink:href="#ma04a836b95" y="223.029754"/>
      </g>
     </g>
     <g id="text_10">
      <!-- 0.4 -->
      <g transform="translate(34.696875 226.828972)scale(0.1 -0.1)">
       <use xlink:href="#DejaVuSans-48"/>
       <use x="63.623047" xlink:href="#DejaVuSans-46"/>
       <use x="95.410156" xlink:href="#DejaVuSans-52"/>
      </g>
     </g>
    </g>
    <g id="ytick_4">
     <g id="line2d_11">
      <g>
       <use style="stroke:#000000;stroke-width:0.8;" x="57.6" xlink:href="#ma04a836b95" y="180.75263"/>
      </g>
     </g>
     <g id="text_11">
      <!-- 0.6 -->
      <defs>
       <path d="M 33.015625 40.375 
Q 26.375 40.375 22.484375 35.828125 
Q 18.609375 31.296875 18.609375 23.390625 
Q 18.609375 15.53125 22.484375 10.953125 
Q 26.375 6.390625 33.015625 6.390625 
Q 39.65625 6.390625 43.53125 10.953125 
Q 47.40625 15.53125 47.40625 23.390625 
Q 47.40625 31.296875 43.53125 35.828125 
Q 39.65625 40.375 33.015625 40.375 
z
M 52.59375 71.296875 
L 52.59375 62.3125 
Q 48.875 64.0625 45.09375 64.984375 
Q 41.3125 65.921875 37.59375 65.921875 
Q 27.828125 65.921875 22.671875 59.328125 
Q 17.53125 52.734375 16.796875 39.40625 
Q 19.671875 43.65625 24.015625 45.921875 
Q 28.375 48.1875 33.59375 48.1875 
Q 44.578125 48.1875 50.953125 41.515625 
Q 57.328125 34.859375 57.328125 23.390625 
Q 57.328125 12.15625 50.6875 5.359375 
Q 44.046875 -1.421875 33.015625 -1.421875 
Q 20.359375 -1.421875 13.671875 8.265625 
Q 6.984375 17.96875 6.984375 36.375 
Q 6.984375 53.65625 15.1875 63.9375 
Q 23.390625 74.21875 37.203125 74.21875 
Q 40.921875 74.21875 44.703125 73.484375 
Q 48.484375 72.75 52.59375 71.296875 
z
" id="DejaVuSans-54"/>
      </defs>
      <g transform="translate(34.696875 184.551849)scale(0.1 -0.1)">
       <use xlink:href="#DejaVuSans-48"/>
       <use x="63.623047" xlink:href="#DejaVuSans-46"/>
       <use x="95.410156" xlink:href="#DejaVuSans-54"/>
      </g>
     </g>
    </g>
    <g id="ytick_5">
     <g id="line2d_12">
      <g>
       <use style="stroke:#000000;stroke-width:0.8;" x="57.6" xlink:href="#ma04a836b95" y="138.475507"/>
      </g>
     </g>
     <g id="text_12">
      <!-- 0.8 -->
      <defs>
       <path d="M 31.78125 34.625 
Q 24.75 34.625 20.71875 30.859375 
Q 16.703125 27.09375 16.703125 20.515625 
Q 16.703125 13.921875 20.71875 10.15625 
Q 24.75 6.390625 31.78125 6.390625 
Q 38.8125 6.390625 42.859375 10.171875 
Q 46.921875 13.96875 46.921875 20.515625 
Q 46.921875 27.09375 42.890625 30.859375 
Q 38.875 34.625 31.78125 34.625 
z
M 21.921875 38.8125 
Q 15.578125 40.375 12.03125 44.71875 
Q 8.5 49.078125 8.5 55.328125 
Q 8.5 64.0625 14.71875 69.140625 
Q 20.953125 74.21875 31.78125 74.21875 
Q 42.671875 74.21875 48.875 69.140625 
Q 55.078125 64.0625 55.078125 55.328125 
Q 55.078125 49.078125 51.53125 44.71875 
Q 48 40.375 41.703125 38.8125 
Q 48.828125 37.15625 52.796875 32.3125 
Q 56.78125 27.484375 56.78125 20.515625 
Q 56.78125 9.90625 50.3125 4.234375 
Q 43.84375 -1.421875 31.78125 -1.421875 
Q 19.734375 -1.421875 13.25 4.234375 
Q 6.78125 9.90625 6.78125 20.515625 
Q 6.78125 27.484375 10.78125 32.3125 
Q 14.796875 37.15625 21.921875 38.8125 
z
M 18.3125 54.390625 
Q 18.3125 48.734375 21.84375 45.5625 
Q 25.390625 42.390625 31.78125 42.390625 
Q 38.140625 42.390625 41.71875 45.5625 
Q 45.3125 48.734375 45.3125 54.390625 
Q 45.3125 60.0625 41.71875 63.234375 
Q 38.140625 66.40625 31.78125 66.40625 
Q 25.390625 66.40625 21.84375 63.234375 
Q 18.3125 60.0625 18.3125 54.390625 
z
" id="DejaVuSans-56"/>
      </defs>
      <g transform="translate(34.696875 142.274726)scale(0.1 -0.1)">
       <use xlink:href="#DejaVuSans-48"/>
       <use x="63.623047" xlink:href="#DejaVuSans-46"/>
       <use x="95.410156" xlink:href="#DejaVuSans-56"/>
      </g>
     </g>
    </g>
    <g id="ytick_6">
     <g id="line2d_13">
      <g>
       <use style="stroke:#000000;stroke-width:0.8;" x="57.6" xlink:href="#ma04a836b95" y="96.198384"/>
      </g>
     </g>
     <g id="text_13">
      <!-- 1.0 -->
      <defs>
       <path d="M 12.40625 8.296875 
L 28.515625 8.296875 
L 28.515625 63.921875 
L 10.984375 60.40625 
L 10.984375 69.390625 
L 28.421875 72.90625 
L 38.28125 72.90625 
L 38.28125 8.296875 
L 54.390625 8.296875 
L 54.390625 0 
L 12.40625 0 
z
" id="DejaVuSans-49"/>
      </defs>
      <g transform="translate(34.696875 99.997603)scale(0.1 -0.1)">
       <use xlink:href="#DejaVuSans-49"/>
       <use x="63.623047" xlink:href="#DejaVuSans-46"/>
       <use x="95.410156" xlink:href="#DejaVuSans-48"/>
      </g>
     </g>
    </g>
    <g id="ytick_7">
     <g id="line2d_14">
      <g>
       <use style="stroke:#000000;stroke-width:0.8;" x="57.6" xlink:href="#ma04a836b95" y="53.921261"/>
      </g>
     </g>
     <g id="text_14">
      <!-- 1.2 -->
      <g transform="translate(34.696875 57.72048)scale(0.1 -0.1)">
       <use xlink:href="#DejaVuSans-49"/>
       <use x="63.623047" xlink:href="#DejaVuSans-46"/>
       <use x="95.410156" xlink:href="#DejaVuSans-50"/>
      </g>
     </g>
    </g>
   </g>
   <g id="line2d_15">
    <path clip-path="url(#p612aca08be)" d="M 73.832727 307.577998 
L 77.112066 307.56614 
L 80.391405 307.538187 
L 83.670744 307.482432 
L 86.950083 307.388296 
L 90.229421 307.252384 
L 93.50876 307.078243 
L 96.788099 306.861644 
L 100.067438 306.567313 
L 103.346777 306.122393 
L 106.626116 305.448216 
L 109.905455 304.511345 
L 113.184793 303.333224 
L 116.464132 301.917005 
L 119.743471 300.135454 
L 123.02281 297.68947 
L 126.302149 294.204916 
L 129.581488 289.412967 
L 132.860826 283.280563 
L 136.140165 276.004387 
L 139.419504 267.904397 
L 142.698843 259.323027 
L 145.978182 250.581155 
L 149.257521 241.935967 
L 152.53686 233.476303 
L 155.816198 225.001299 
L 159.095537 216.008287 
L 162.374876 205.856253 
L 165.654215 194.04905 
L 168.933554 180.513072 
L 172.212893 165.732116 
L 175.492231 150.63943 
L 178.77157 136.297418 
L 182.050909 123.557608 
L 185.330248 112.889799 
L 188.609587 104.366186 
L 191.888926 97.661585 
L 195.168264 92.080979 
L 198.447603 86.798918 
L 201.726942 81.335747 
L 205.006281 75.940696 
L 208.28562 71.51248 
L 211.564959 69.106817 
L 214.844298 69.460729 
L 218.123636 72.834614 
L 221.402975 79.062204 
L 224.682314 87.588639 
L 227.961653 97.53346 
L 231.240992 107.941763 
L 234.520331 118.157029 
L 237.799669 128.0414 
L 241.079008 137.904228 
L 244.358347 148.25353 
L 247.637686 159.530531 
L 250.917025 171.89524 
L 254.196364 185.112556 
L 257.475702 198.598735 
L 260.755041 211.605443 
L 264.03438 223.43163 
L 267.313719 233.580576 
L 270.593058 241.844857 
L 273.872397 248.311043 
L 277.151736 253.286408 
L 280.431074 257.201486 
L 283.710413 260.544332 
L 286.989752 263.804781 
L 290.269091 267.373597 
L 293.54843 271.419253 
L 296.827769 275.838985 
L 300.107107 280.335949 
L 303.386446 284.568483 
L 306.665785 288.278027 
L 309.945124 291.350132 
L 313.224463 293.817283 
L 316.503802 295.820579 
L 319.78314 297.538423 
L 323.062479 299.105145 
L 326.341818 300.563222 
L 329.621157 301.876005 
L 332.900496 302.981842 
L 336.179835 303.846892 
L 339.459174 304.489598 
L 342.738512 304.972784 
L 346.017851 305.370701 
L 349.29719 305.729543 
L 352.576529 306.049517 
L 355.855868 306.30303 
L 359.135207 306.471106 
L 362.414545 306.565283 
L 365.693884 306.621959 
L 368.973223 306.682624 
L 372.252562 306.776924 
L 375.531901 306.913566 
L 378.81124 307.078889 
L 382.090579 307.244697 
L 385.369917 307.383284 
L 388.649256 307.480327 
L 391.928595 307.537507 
L 395.207934 307.565962 
L 398.487273 307.577959 
" style="fill:none;stroke:#008000;stroke-linecap:square;stroke-width:1.5;"/>
   </g>
   <g id="patch_38">
    <path d="M 57.6 307.584 
L 57.6 41.472 
" style="fill:none;stroke:#000000;stroke-linecap:square;stroke-linejoin:miter;stroke-width:0.8;"/>
   </g>
   <g id="patch_39">
    <path d="M 414.72 307.584 
L 414.72 41.472 
" style="fill:none;stroke:#000000;stroke-linecap:square;stroke-linejoin:miter;stroke-width:0.8;"/>
   </g>
   <g id="patch_40">
    <path d="M 57.6 307.584 
L 414.72 307.584 
" style="fill:none;stroke:#000000;stroke-linecap:square;stroke-linejoin:miter;stroke-width:0.8;"/>
   </g>
   <g id="patch_41">
    <path d="M 57.6 41.472 
L 414.72 41.472 
" style="fill:none;stroke:#000000;stroke-linecap:square;stroke-linejoin:miter;stroke-width:0.8;"/>
   </g>
  </g>
 </g>
 <defs>
  <clipPath id="p612aca08be">
   <rect height="266.112" width="357.12" x="57.6" y="41.472"/>
  </clipPath>
 </defs>
</svg>
