<?xml version="1.0" encoding="UTF-8" standalone="no"?>
<svg
   xmlns:dc="http://purl.org/dc/elements/1.1/"
   xmlns:cc="http://creativecommons.org/ns#"
   xmlns:rdf="http://www.w3.org/1999/02/22-rdf-syntax-ns#"
   xmlns:svg="http://www.w3.org/2000/svg"
   xmlns="http://www.w3.org/2000/svg"
   xmlns:xlink="http://www.w3.org/1999/xlink"
   xmlns:sodipodi="http://sodipodi.sourceforge.net/DTD/sodipodi-0.dtd"
   xmlns:inkscape="http://www.inkscape.org/namespaces/inkscape"
   height="576pt"
   version="1.1"
   viewBox="0 0 864 576"
   width="864pt"
   id="svg340"
   sodipodi:docname="inflows.svg"
   inkscape:version="1.0rc1 (09960d6, 2020-04-09)">
  <metadata
     id="metadata344">
    <rdf:RDF>
      <cc:Work
         rdf:about="">
        <dc:format>image/svg+xml</dc:format>
        <dc:type
           rdf:resource="http://purl.org/dc/dcmitype/StillImage" />
      </cc:Work>
    </rdf:RDF>
  </metadata>
  <sodipodi:namedview
     inkscape:document-rotation="0"
     pagecolor="#ffffff"
     bordercolor="#666666"
     borderopacity="1"
     objecttolerance="10"
     gridtolerance="10"
     guidetolerance="10"
     inkscape:pageopacity="0"
     inkscape:pageshadow="2"
     inkscape:window-width="1253"
     inkscape:window-height="804"
     id="namedview342"
     showgrid="false"
     inkscape:zoom="0.66493056"
     inkscape:cx="576"
     inkscape:cy="384"
     inkscape:window-x="0"
     inkscape:window-y="23"
     inkscape:window-maximized="0"
     inkscape:current-layer="svg340" />
  <defs
     id="defs12">
    <style
       type="text/css"
       id="style10">
*{stroke-linecap:butt;stroke-linejoin:round;}
  </style>
  </defs>
  <g
     inkscape:export-ydpi="500"
     inkscape:export-xdpi="500"
     inkscape:export-filename="/Users/abhiram/Desktop/inflow.png"
     id="g1101">
    <g
       transform="translate(0,-16.5)"
       id="xtick_1">
      <g
         id="line2d_1" />
      <g
         id="text_1">
        <!-- 0 -->
        <defs
           id="defs22">
          <path
             d="m 27.046875,69.921875 q 13.578125,0 19.640625,-11.1875 4.6875,-8.640625 4.6875,-23.671875 0,-14.265625 -4.25,-23.59375 -6.15625,-13.375 -20.125,-13.375 -12.59375,0 -18.75,10.9375 -5.125,9.140625 -5.125,24.515625 0,11.90625 3.078125,20.453125 5.765625,15.921875 20.84375,15.921875 z m -0.09375,-63.8125 q 6.84375,0 10.890625,6.046875 4.046875,6.0625 4.046875,22.5625 0,11.90625 -2.9375,19.59375 -2.921875,7.703125 -11.359375,7.703125 -7.765625,0 -11.359375,-7.3125 -3.59375,-7.296875 -3.59375,-21.5 0,-10.6875 2.296875,-17.1875 3.515625,-9.90625 12.015625,-9.90625 z"
             id="Helvetica-48"
             inkscape:connector-curvature="0" />
        </defs>
        <g
           style="fill:#262626"
           transform="matrix(0.14,0,0,-0.14,104.10734,517.54281)"
           id="g26">
          <use
             xlink:href="#Helvetica-48"
             id="use24"
             x="0"
             y="0"
             width="100%"
             height="100%" />
        </g>
      </g>
    </g>
    <g
       transform="translate(0,-16.5)"
       id="xtick_2">
      <g
         id="line2d_2" />
      <g
         id="text_2">
        <!-- 20 -->
        <defs
           id="defs32">
          <path
             d="m 3.125,0 q 0.484375,9.03125 3.734375,15.71875 3.25,6.6875 12.671875,12.15625 l 9.375,5.421875 q 6.296875,3.671875 8.84375,6.25 4,4.0625 4,9.28125 0,6.109375 -3.671875,9.6875 -3.65625,3.59375 -9.75,3.59375 -9.046875,0 -12.5,-6.828125 -1.859375,-3.671875 -2.0625,-10.15625 h -8.9375 q 0.15625,9.125 3.375,14.890625 5.71875,10.15625 20.171875,10.15625 12,0 17.546875,-6.5 5.546875,-6.5 5.546875,-14.453125 0,-8.390625 -5.90625,-14.359375 -3.421875,-3.46875 -12.265625,-8.390625 L 26.609375,22.75 Q 21.828125,20.125 19.09375,17.71875 14.203125,13.484375 12.9375,8.296875 H 51.125 V 0 Z"
             id="Helvetica-50"
             inkscape:connector-curvature="0" />
        </defs>
        <g
           style="fill:#262626"
           transform="matrix(0.14,0,0,-0.14,235.48741,517.54281)"
           id="g38">
          <use
             xlink:href="#Helvetica-50"
             id="use34"
             x="0"
             y="0"
             width="100%"
             height="100%" />
          <use
             x="55.615234"
             xlink:href="#Helvetica-48"
             id="use36"
             y="0"
             width="100%"
             height="100%" />
        </g>
      </g>
    </g>
    <g
       transform="translate(0,-16.5)"
       id="xtick_3">
      <g
         id="line2d_3" />
      <g
         id="text_3">
        <!-- 40 -->
        <defs
           id="defs44">
          <path
             d="M 33.0625,24.75 V 56.453125 L 10.640625,24.75 Z M 33.203125,0 V 17.09375 H 2.546875 V 25.6875 L 34.578125,70.125 H 42 V 24.75 H 52.296875 V 17.09375 H 42 V 0 Z"
             id="Helvetica-52"
             inkscape:connector-curvature="0" />
        </defs>
        <g
           style="fill:#262626"
           transform="matrix(0.14,0,0,-0.14,370.76014,517.54281)"
           id="g50">
          <use
             xlink:href="#Helvetica-52"
             id="use46"
             x="0"
             y="0"
             width="100%"
             height="100%" />
          <use
             x="55.615234"
             xlink:href="#Helvetica-48"
             id="use48"
             y="0"
             width="100%"
             height="100%" />
        </g>
      </g>
    </g>
    <g
       transform="translate(0,-16.5)"
       id="xtick_4">
      <g
         id="line2d_4" />
      <g
         id="text_4">
        <!-- 60 -->
        <defs
           id="defs56">
          <path
             d="m 29.25,70.21875 q 11.71875,0 16.328125,-6.078125 4.625,-6.078125 4.625,-12.53125 H 41.5 q -0.78125,4.15625 -2.484375,6.5 Q 35.84375,62.5 29.390625,62.5 q -7.375,0 -11.71875,-6.8125 -4.34375,-6.8125 -4.828125,-19.5 3.03125,4.4375 7.609375,6.640625 4.203125,1.953125 9.375,1.953125 8.796875,0 15.328125,-5.625 6.546875,-5.609375 6.546875,-16.75 0,-9.515625 -6.203125,-16.875 -6.1875,-7.34375 -17.671875,-7.34375 -9.8125,0 -16.9375,7.453125 -7.125,7.453125 -7.125,25.078125 0,13.03125 3.171875,22.109375 Q 13.03125,70.21875 29.25,70.21875 Z M 28.609375,6 q 6.9375,0 10.375,4.65625 3.453125,4.671875 3.453125,11.03125 0,5.359375 -3.078125,10.21875 -3.078125,4.859375 -11.1875,4.859375 -5.65625,0 -9.9375,-3.765625 -4.265625,-3.75 -4.265625,-11.3125 0,-6.640625 3.875,-11.171875 Q 21.734375,6 28.609375,6 Z"
             id="Helvetica-54"
             inkscape:connector-curvature="0" />
        </defs>
        <g
           style="fill:#262626"
           transform="matrix(0.14,0,0,-0.14,506.03287,517.54281)"
           id="g62">
          <use
             xlink:href="#Helvetica-54"
             id="use58"
             x="0"
             y="0"
             width="100%"
             height="100%" />
          <use
             x="55.615234"
             xlink:href="#Helvetica-48"
             id="use60"
             y="0"
             width="100%"
             height="100%" />
        </g>
      </g>
    </g>
    <g
       transform="translate(0,-16.5)"
       id="xtick_5">
      <g
         id="line2d_5" />
      <g
         id="text_5">
        <!-- 80 -->
        <defs
           id="defs68">
          <path
             d="m 27.203125,40.625 q 5.8125,0 9.078125,3.25 3.265625,3.25 3.265625,7.734375 0,3.90625 -3.125,7.171875 -3.125,3.28125 -9.515625,3.28125 -6.34375,0 -9.1875,-3.28125 -2.828125,-3.265625 -2.828125,-7.65625 0,-4.9375 3.65625,-7.71875 Q 22.21875,40.625 27.203125,40.625 Z M 27.734375,6 q 6.109375,0 10.125,3.296875 4.03125,3.296875 4.03125,9.84375 0,6.78125 -4.15625,10.296875 -4.140625,3.515625 -10.640625,3.515625 -6.296875,0 -10.28125,-3.59375 -3.96875,-3.578125 -3.96875,-9.921875 0,-5.46875 3.640625,-9.453125 Q 20.125,6 27.734375,6 Z m -12.5,31.25 q -3.65625,1.5625 -5.71875,3.671875 -3.84375,3.90625 -3.84375,10.15625 0,7.8125 5.65625,13.421875 5.671875,5.625 16.0625,5.625 10.0625,0 15.765625,-5.3125 5.71875,-5.296875 5.71875,-12.375 0,-6.53125 -3.3125,-10.59375 -1.859375,-2.296875 -5.765625,-4.484375 4.34375,-2 6.828125,-4.59375 Q 51.265625,27.875 51.265625,20.0625 51.265625,10.84375 45.0625,4.421875 38.875,-2 27.546875,-2 17.328125,-2 10.265625,3.53125 3.21875,9.078125 3.21875,19.625 q 0,6.203125 3.03125,10.71875 3.03125,4.515625 8.984375,6.90625 z"
             id="Helvetica-56"
             inkscape:connector-curvature="0" />
        </defs>
        <g
           style="fill:#262626"
           transform="matrix(0.14,0,0,-0.14,641.3056,517.54281)"
           id="g74">
          <use
             xlink:href="#Helvetica-56"
             id="use70"
             x="0"
             y="0"
             width="100%"
             height="100%" />
          <use
             x="55.615234"
             xlink:href="#Helvetica-48"
             id="use72"
             y="0"
             width="100%"
             height="100%" />
        </g>
      </g>
    </g>
    <g
       id="ytick_1">
      <g
         id="line2d_6" />
      <g
         id="text_7">
        <!-- 0.0 -->
        <defs
           id="defs112">
          <path
             d="M 8.546875,10.640625 H 18.75 V 0 H 8.546875 Z"
             id="Helvetica-46"
             inkscape:connector-curvature="0" />
        </defs>
        <g
           style="fill:#262626"
           transform="matrix(0.14,0,0,-0.14,85.04,489.25413)"
           id="g120">
          <use
             xlink:href="#Helvetica-48"
             id="use114"
             x="0"
             y="0"
             width="100%"
             height="100%" />
          <use
             x="55.615234"
             xlink:href="#Helvetica-46"
             id="use116"
             y="0"
             width="100%"
             height="100%" />
          <use
             x="83.398438"
             xlink:href="#Helvetica-48"
             id="use118"
             y="0"
             width="100%"
             height="100%" />
        </g>
      </g>
    </g>
    <g
       id="ytick_2">
      <g
         id="line2d_7" />
      <g
         id="text_8">
        <!-- 0.5 -->
        <defs
           id="defs126">
          <path
             d="m 12.359375,17.828125 q 0.875,-7.53125 6.984375,-10.40625 3.125,-1.46875 7.21875,-1.46875 7.8125,0 11.5625,4.984375 3.765625,4.984375 3.765625,11.03125 0,7.328125 -4.46875,11.328125 -4.46875,4.015625 -10.71875,4.015625 -4.53125,0 -7.78125,-1.765625 -3.25,-1.75 -5.546875,-4.875 l -7.609375,0.4375 5.3125,37.640625 H 47.40625 v -8.5 H 17.671875 l -2.96875,-19.421875 q 2.4375,1.84375 4.640625,2.78125 3.90625,1.609375 9.03125,1.609375 9.609375,0 16.296875,-6.203125 Q 51.375,32.8125 51.375,23.296875 q 0,-9.921875 -6.140625,-17.5 -6.125,-7.5625 -19.546875,-7.5625 -8.546875,0 -15.125,4.8125 Q 4,7.859375 3.21875,17.828125 Z"
             id="Helvetica-53"
             inkscape:connector-curvature="0" />
        </defs>
        <g
           style="fill:#262626"
           transform="matrix(0.14,0,0,-0.14,85.04,438.68344)"
           id="g134">
          <use
             xlink:href="#Helvetica-48"
             id="use128"
             x="0"
             y="0"
             width="100%"
             height="100%" />
          <use
             x="55.615234"
             xlink:href="#Helvetica-46"
             id="use130"
             y="0"
             width="100%"
             height="100%" />
          <use
             x="83.398438"
             xlink:href="#Helvetica-53"
             id="use132"
             y="0"
             width="100%"
             height="100%" />
        </g>
      </g>
    </g>
    <g
       id="ytick_3">
      <g
         id="line2d_8" />
      <g
         id="text_9">
        <!-- 1.0 -->
        <defs
           id="defs140">
          <path
             d="M 9.578125,49.515625 V 56.25 q 9.515625,0.921875 13.265625,3.09375 3.765625,2.1875 5.625,10.28125 h 6.9375 V 0 h -9.375 v 49.515625 z"
             id="Helvetica-49"
             inkscape:connector-curvature="0" />
        </defs>
        <g
           style="fill:#262626"
           transform="matrix(0.14,0,0,-0.14,85.04,388.11274)"
           id="g148">
          <use
             xlink:href="#Helvetica-49"
             id="use142"
             x="0"
             y="0"
             width="100%"
             height="100%" />
          <use
             x="55.615234"
             xlink:href="#Helvetica-46"
             id="use144"
             y="0"
             width="100%"
             height="100%" />
          <use
             x="83.398438"
             xlink:href="#Helvetica-48"
             id="use146"
             y="0"
             width="100%"
             height="100%" />
        </g>
      </g>
    </g>
    <g
       id="ytick_4">
      <g
         id="line2d_9" />
      <g
         id="text_10">
        <!-- 1.5 -->
        <g
           style="fill:#262626"
           transform="matrix(0.14,0,0,-0.14,85.04,337.54204)"
           id="g159">
          <use
             xlink:href="#Helvetica-49"
             id="use153"
             x="0"
             y="0"
             width="100%"
             height="100%" />
          <use
             x="55.615234"
             xlink:href="#Helvetica-46"
             id="use155"
             y="0"
             width="100%"
             height="100%" />
          <use
             x="83.398438"
             xlink:href="#Helvetica-53"
             id="use157"
             y="0"
             width="100%"
             height="100%" />
        </g>
      </g>
    </g>
    <g
       id="ytick_5">
      <g
         id="line2d_10" />
      <g
         id="text_11">
        <!-- 2.0 -->
        <g
           style="fill:#262626"
           transform="matrix(0.14,0,0,-0.14,85.04,286.97135)"
           id="g170">
          <use
             xlink:href="#Helvetica-50"
             id="use164"
             x="0"
             y="0"
             width="100%"
             height="100%" />
          <use
             x="55.615234"
             xlink:href="#Helvetica-46"
             id="use166"
             y="0"
             width="100%"
             height="100%" />
          <use
             x="83.398438"
             xlink:href="#Helvetica-48"
             id="use168"
             y="0"
             width="100%"
             height="100%" />
        </g>
      </g>
    </g>
    <g
       id="ytick_6">
      <g
         id="line2d_11" />
      <g
         id="text_12">
        <!-- 2.5 -->
        <g
           style="fill:#262626"
           transform="matrix(0.14,0,0,-0.14,85.04,236.40065)"
           id="g181">
          <use
             xlink:href="#Helvetica-50"
             id="use175"
             x="0"
             y="0"
             width="100%"
             height="100%" />
          <use
             x="55.615234"
             xlink:href="#Helvetica-46"
             id="use177"
             y="0"
             width="100%"
             height="100%" />
          <use
             x="83.398438"
             xlink:href="#Helvetica-53"
             id="use179"
             y="0"
             width="100%"
             height="100%" />
        </g>
      </g>
    </g>
    <g
       id="ytick_7">
      <g
         id="line2d_12" />
      <g
         id="text_13">
        <!-- 3.0 -->
        <defs
           id="defs187">
          <path
             d="m 25.984375,-1.90625 q -12.40625,0 -18,6.8125 -5.59375,6.8125 -5.59375,16.578125 h 9.1875 Q 12.15625,14.703125 14.109375,11.625 17.53125,6.109375 26.46875,6.109375 q 6.9375,0 11.125,3.703125 4.203125,3.71875 4.203125,9.578125 0,7.21875 -4.421875,10.09375 Q 32.953125,32.375 25.09375,32.375 q -0.875,0 -1.78125,-0.03125 -0.90625,-0.01563 -1.828125,-0.0625 v 7.765625 q 1.375,-0.15625 2.296875,-0.203125 0.921875,-0.04687 2,-0.04687 4.9375,0 8.109375,1.5625 5.5625,2.734375 5.5625,9.765625 0,5.21875 -3.71875,8.046875 -3.703125,2.84375 -8.640625,2.84375 -8.78125,0 -12.15625,-5.859375 -1.84375,-3.21875 -2.09375,-9.1875 h -8.6875 q 0,7.8125 3.125,13.28125 5.359375,9.765625 18.890625,9.765625 10.6875,0 16.546875,-4.765625 5.859375,-4.75 5.859375,-13.78125 0,-6.453125 -3.453125,-10.453125 -2.15625,-2.484375 -5.578125,-3.90625 5.515625,-1.515625 8.609375,-5.84375 3.109375,-4.3125 3.109375,-10.5625 0,-10.015625 -6.59375,-16.3125 -6.578125,-6.296875 -18.6875,-6.296875 z"
             id="Helvetica-51"
             inkscape:connector-curvature="0" />
        </defs>
        <g
           style="fill:#262626"
           transform="matrix(0.14,0,0,-0.14,85.04,185.82995)"
           id="g195">
          <use
             xlink:href="#Helvetica-51"
             id="use189"
             x="0"
             y="0"
             width="100%"
             height="100%" />
          <use
             x="55.615234"
             xlink:href="#Helvetica-46"
             id="use191"
             y="0"
             width="100%"
             height="100%" />
          <use
             x="83.398438"
             xlink:href="#Helvetica-48"
             id="use193"
             y="0"
             width="100%"
             height="100%" />
        </g>
      </g>
    </g>
    <g
       id="ytick_8">
      <g
         id="line2d_13" />
      <g
         id="text_14">
        <!-- 3.5 -->
        <g
           style="fill:#262626"
           transform="matrix(0.14,0,0,-0.14,85.04,135.25926)"
           id="g206">
          <use
             xlink:href="#Helvetica-51"
             id="use200"
             x="0"
             y="0"
             width="100%"
             height="100%" />
          <use
             x="55.615234"
             xlink:href="#Helvetica-46"
             id="use202"
             y="0"
             width="100%"
             height="100%" />
          <use
             x="83.398438"
             xlink:href="#Helvetica-53"
             id="use204"
             y="0"
             width="100%"
             height="100%" />
        </g>
      </g>
    </g>
    <g
       id="ytick_9">
      <g
         id="line2d_14" />
      <g
         id="text_15">
        <!-- 4.0 -->
        <g
           style="fill:#262626"
           transform="matrix(0.14,0,0,-0.14,85.04,84.68856)"
           id="g217">
          <use
             xlink:href="#Helvetica-52"
             id="use211"
             x="0"
             y="0"
             width="100%"
             height="100%" />
          <use
             x="55.615234"
             xlink:href="#Helvetica-46"
             id="use213"
             y="0"
             width="100%"
             height="100%" />
          <use
             x="83.398438"
             xlink:href="#Helvetica-48"
             id="use215"
             y="0"
             width="100%"
             height="100%" />
        </g>
      </g>
    </g>
    <g
       id="line2d_15">
      <path
         inkscape:connector-curvature="0"
         id="path239"
         style="fill:none;stroke:#1f77b4;stroke-width:2;stroke-linecap:round"
         d="m 108,484.23273 h 6.76364 6.76363 6.76364 6.76363 6.76364 6.76364 6.76363 6.76364 6.76364 6.76363 6.76364 6.76364 6.76363 6.76364 6.76363 6.76364 6.76364 6.76363 6.76364 6.76364 6.76363 6.76364 6.76364 6.76363 6.76364 6.76363 6.76364 6.76364 6.76364 6.76363 6.76364 6.76363 6.76364 6.76364 l 6.76363,-2e-5 6.76364,-1.2e-4 6.76363,-0.001 6.76364,-0.007 6.76364,-0.0416 6.76363,-0.20518 6.76364,-0.85326 6.76364,-2.98276 6.76363,-8.73578 6.76364,-21.33232 6.76364,-43.10837 6.76363,-71.18544 6.76364,-93.80765 6.76363,-93.53791 6.76364,-59.546947 h 6.76364 l 6.76363,59.546947 6.76364,93.53791 6.76364,93.80765 6.76363,71.18544 6.76364,43.10837 6.76364,21.33232 6.76363,8.73578 6.76364,2.98276 6.76364,0.85326 6.76363,0.20518 6.76364,0.0416 6.76364,0.007 6.76363,0.001 6.76364,1.2e-4 6.76363,2e-5 h 6.76364 6.76364 6.76363 6.76364 6.76364 6.76363 6.76364 6.76363 6.76364 6.76364 6.76363 6.76364 6.76364 6.76363 6.76364 6.76364 6.76363 6.76364 6.76363 6.76364 6.76364 6.76363 6.76364 6.76364 6.76363 6.76364 6.76363 6.76364 6.76364 6.76363 6.76364 6.76364 6.76363 6.76364"
         clip-path="url(#p4316106baf)" />
    </g>
    <g
       id="line2d_16">
      <path
         inkscape:connector-curvature="0"
         id="path242"
         style="fill:none;stroke:#ff7f0e;stroke-width:2;stroke-linecap:round"
         d="m 108,484.23273 h 6.76364 6.76363 6.76364 6.76363 6.76364 6.76364 6.76363 6.76364 6.76364 6.76363 6.76364 6.76364 6.76363 6.76364 6.76363 6.76364 6.76364 6.76363 6.76364 6.76364 6.76363 6.76364 6.76364 6.76363 6.76364 6.76363 6.76364 6.76364 6.76364 6.76363 6.76364 6.76363 6.76364 l 6.76364,-1e-5 6.76363,-6e-5 6.76364,-5e-4 6.76363,-0.003 6.76364,-0.0187 6.76364,-0.0913 6.76363,-0.38299 6.76364,-1.37422 6.76364,-4.2099 6.76363,-10.97476 6.76364,-24.22838 6.76364,-44.95616 6.76363,-69.2316 6.76364,-86.41268 6.76363,-82.88776 6.76364,-51.55387 h 6.76364 l 6.76363,51.55387 6.76364,82.88776 6.76364,86.41268 6.76363,69.2316 6.76364,44.95616 6.76364,24.22838 6.76363,10.97476 6.76364,4.2099 6.76364,1.37422 6.76363,0.38299 6.76364,0.0913 6.76364,0.0187 6.76363,0.003 6.76364,5e-4 6.76363,6e-5 6.76364,1e-5 h 6.76364 6.76363 6.76364 6.76364 6.76363 6.76364 6.76363 6.76364 6.76364 6.76363 6.76364 6.76364 6.76363 6.76364 6.76364 6.76363 6.76364 6.76363 6.76364 6.76364 6.76363 6.76364 6.76364 6.76363 6.76364 6.76363 6.76364 6.76364 6.76363 6.76364 6.76364 6.76363 6.76364"
         clip-path="url(#p4316106baf)" />
    </g>
    <g
       id="line2d_17">
      <path
         inkscape:connector-curvature="0"
         id="path245"
         style="fill:none;stroke:#2ca02c;stroke-width:2;stroke-linecap:round"
         d="m 108,484.23273 h 6.76364 6.76363 6.76364 6.76363 6.76364 6.76364 6.76363 6.76364 6.76364 6.76363 6.76364 6.76364 6.76363 6.76364 6.76363 6.76364 6.76364 6.76363 6.76364 6.76364 6.76363 6.76364 6.76364 6.76363 6.76364 6.76363 6.76364 6.76364 6.76364 6.76363 6.76364 6.76363 l 6.76364,-1e-5 6.76364,-3e-5 6.76363,-2.5e-4 6.76364,-0.002 6.76363,-0.009 6.76364,-0.0424 6.76364,-0.17768 6.76363,-0.64722 6.76364,-2.04485 6.76364,-5.59038 6.76363,-13.18127 6.76364,-26.67472 6.76364,-45.98302 6.76363,-66.6748 6.76364,-79.41411 6.76363,-73.66911 6.76364,-44.90986 h 6.76364 l 6.76363,44.90986 6.76364,73.66911 6.76364,79.41411 6.76363,66.6748 6.76364,45.98302 6.76364,26.67472 6.76363,13.18127 6.76364,5.59038 6.76364,2.04485 6.76363,0.64722 6.76364,0.17768 6.76364,0.0424 6.76363,0.009 6.76364,0.002 6.76363,2.5e-4 6.76364,3e-5 6.76364,1e-5 h 6.76363 6.76364 6.76364 6.76363 6.76364 6.76363 6.76364 6.76364 6.76363 6.76364 6.76364 6.76363 6.76364 6.76364 6.76363 6.76364 6.76363 6.76364 6.76364 6.76363 6.76364 6.76364 6.76363 6.76364 6.76363 6.76364 6.76364 6.76363 6.76364 6.76364 6.76363 6.76364"
         clip-path="url(#p4316106baf)" />
    </g>
    <g
       id="line2d_18">
      <path
         inkscape:connector-curvature="0"
         id="path248"
         style="fill:none;stroke:#d62728;stroke-width:2;stroke-linecap:round"
         d="m 108,484.23273 h 6.76364 6.76363 6.76364 6.76363 6.76364 6.76364 6.76363 6.76364 6.76364 6.76363 6.76364 6.76364 6.76363 6.76364 6.76363 6.76364 6.76364 6.76363 6.76364 6.76364 6.76363 6.76364 6.76364 6.76363 6.76364 6.76363 6.76364 6.76364 6.76364 6.76363 6.76364 l 6.76363,-1e-5 6.76364,-2e-5 6.76364,-1.3e-4 6.76363,-8.1e-4 6.76364,-0.004 6.76363,-0.0205 6.76364,-0.0853 6.76364,-0.31274 6.76363,-1.00821 6.76364,-2.85214 6.76364,-7.06351 6.76363,-15.26384 6.76364,-28.64104 6.76364,-46.31496 6.76363,-63.734 6.76364,-72.88566 6.76363,-65.67693 6.76364,-39.34588 h 6.76364 l 6.76363,39.34588 6.76364,65.67693 6.76364,72.88566 6.76363,63.734 6.76364,46.31496 6.76364,28.64104 6.76363,15.26384 6.76364,7.06351 6.76364,2.85214 6.76363,1.00821 6.76364,0.31274 6.76364,0.0853 6.76363,0.0205 6.76364,0.004 6.76363,8.1e-4 6.76364,1.3e-4 6.76364,2e-5 6.76363,1e-5 h 6.76364 6.76364 6.76363 6.76364 6.76363 6.76364 6.76364 6.76363 6.76364 6.76364 6.76363 6.76364 6.76364 6.76363 6.76364 6.76363 6.76364 6.76364 6.76363 6.76364 6.76364 6.76363 6.76364 6.76363 6.76364 6.76364 6.76363 6.76364 6.76364 6.76363 6.76364"
         clip-path="url(#p4316106baf)" />
    </g>
    <g
       id="line2d_19">
      <path
         inkscape:connector-curvature="0"
         id="path251"
         style="fill:none;stroke:#9467bd;stroke-width:2;stroke-linecap:round"
         d="m 108,484.23273 h 6.76364 6.76363 6.76364 6.76363 6.76364 6.76364 6.76363 6.76364 6.76364 6.76363 6.76364 6.76364 6.76363 6.76364 6.76363 6.76364 6.76364 6.76363 6.76364 6.76364 6.76363 6.76364 6.76364 6.76363 6.76364 6.76363 6.76364 6.76364 6.76364 6.76363 6.76364 l 6.76363,-2e-5 6.76364,-7e-5 6.76364,-4.3e-4 6.76363,-0.002 6.76364,-0.0103 6.76363,-0.0423 6.76364,-0.15533 6.76364,-0.50679 6.76363,-1.46839 6.76364,-3.77158 6.76364,-8.56757 6.76363,-17.15544 6.76364,-30.1332 6.76364,-46.07984 6.76363,-60.57704 6.76364,-66.85577 6.76363,-58.73294 6.76364,-34.65386 h 6.76364 l 6.76363,34.65386 6.76364,58.73294 6.76364,66.85577 6.76363,60.57704 6.76364,46.07984 6.76364,30.1332 6.76363,17.15544 6.76364,8.56757 6.76364,3.77158 6.76363,1.46839 6.76364,0.50679 6.76364,0.15533 6.76363,0.0423 6.76364,0.0103 6.76363,0.002 6.76364,4.3e-4 6.76364,7e-5 6.76363,2e-5 h 6.76364 6.76364 6.76363 6.76364 6.76363 6.76364 6.76364 6.76363 6.76364 6.76364 6.76363 6.76364 6.76364 6.76363 6.76364 6.76363 6.76364 6.76364 6.76363 6.76364 6.76364 6.76363 6.76364 6.76363 6.76364 6.76364 6.76363 6.76364 6.76364 6.76363 6.76364"
         clip-path="url(#p4316106baf)" />
    </g>
    <g
       id="line2d_20">
      <path
         inkscape:connector-curvature="0"
         id="path254"
         style="fill:none;stroke:#8c564b;stroke-width:2;stroke-linecap:round"
         d="m 108,484.23273 h 6.76364 6.76363 6.76364 6.76363 6.76364 6.76364 6.76363 6.76364 6.76364 6.76363 6.76364 6.76364 6.76363 6.76364 6.76363 6.76364 6.76364 6.76363 6.76364 6.76364 6.76363 6.76364 6.76364 6.76363 6.76364 6.76363 6.76364 6.76364 6.76364 6.76363 l 6.76364,-1e-5 6.76363,-4e-5 6.76364,-2.4e-4 6.76364,-10e-4 6.76363,-0.005 6.76364,-0.0217 6.76363,-0.0794 6.76364,-0.26038 6.76364,-0.76658 6.76363,-2.02221 6.76364,-4.77145 6.76364,-10.04637 6.76363,-18.81312 6.76364,-31.1812 6.76364,-45.39705 6.76363,-57.32887 6.76364,-61.32417 6.76363,-52.68417 6.76364,-30.6714 h 6.76364 l 6.76363,30.6714 6.76364,52.68417 6.76364,61.32417 6.76363,57.32887 6.76364,45.39705 6.76364,31.1812 6.76363,18.81312 6.76364,10.04637 6.76364,4.77145 6.76363,2.02221 6.76364,0.76658 6.76364,0.26038 6.76363,0.0794 6.76364,0.0217 6.76363,0.005 6.76364,10e-4 6.76364,2.4e-4 6.76363,4e-5 6.76364,1e-5 h 6.76364 6.76363 6.76364 6.76363 6.76364 6.76364 6.76363 6.76364 6.76364 6.76363 6.76364 6.76364 6.76363 6.76364 6.76363 6.76364 6.76364 6.76363 6.76364 6.76364 6.76363 6.76364 6.76363 6.76364 6.76364 6.76363 6.76364 6.76364 6.76363 6.76364"
         clip-path="url(#p4316106baf)" />
    </g>
    <g
       id="line2d_21">
      <path
         inkscape:connector-curvature="0"
         id="path257"
         style="fill:none;stroke:#e377c2;stroke-width:2;stroke-linecap:round"
         d="m 108,484.23273 h 6.76364 6.76363 6.76364 6.76363 6.76364 6.76364 6.76363 6.76364 6.76364 6.76363 6.76364 6.76364 6.76363 6.76364 6.76363 6.76364 6.76364 6.76363 6.76364 6.76364 6.76363 6.76364 6.76364 6.76363 6.76364 6.76363 6.76364 6.76364 6.76364 l 6.76363,-1e-5 6.76364,-2e-5 6.76363,-1.4e-4 6.76364,-6.5e-4 6.76364,-0.003 6.76363,-0.0115 6.76364,-0.0417 6.76363,-0.13693 6.76364,-0.40707 6.76364,-1.09441 6.76363,-2.65735 6.76364,-5.81708 6.76364,-11.45322 6.76363,-20.21492 6.76364,-31.82924 6.76364,-44.37229 6.76363,-54.07995 6.76364,-56.27309 6.76363,-47.40046 6.76364,-27.27069 h 6.76364 l 6.76363,27.27069 6.76364,47.40046 6.76364,56.27309 6.76363,54.07995 6.76364,44.37229 6.76364,31.82924 6.76363,20.21492 6.76364,11.45322 6.76364,5.81708 6.76363,2.65735 6.76364,1.09441 6.76364,0.40707 6.76363,0.13693 6.76364,0.0417 6.76363,0.0115 6.76364,0.003 6.76364,6.5e-4 6.76363,1.4e-4 6.76364,2e-5 6.76364,1e-5 h 6.76363 6.76364 6.76363 6.76364 6.76364 6.76363 6.76364 6.76364 6.76363 6.76364 6.76364 6.76363 6.76364 6.76363 6.76364 6.76364 6.76363 6.76364 6.76364 6.76363 6.76364 6.76363 6.76364 6.76364 6.76363 6.76364 6.76364 6.76363 6.76364"
         clip-path="url(#p4316106baf)" />
    </g>
    <g
       id="line2d_22">
      <path
         inkscape:connector-curvature="0"
         id="path260"
         style="fill:none;stroke:#7f7f7f;stroke-width:2;stroke-linecap:round"
         d="m 108,484.23273 h 6.76364 6.76363 6.76364 6.76363 6.76364 6.76364 6.76363 6.76364 6.76364 6.76363 6.76364 6.76364 6.76363 6.76364 6.76363 6.76364 6.76364 6.76363 6.76364 6.76364 6.76363 6.76364 6.76364 6.76363 6.76364 6.76363 6.76364 6.76364 l 6.76364,-1e-5 6.76363,-10e-6 6.76364,-8e-5 6.76363,-3.7e-4 6.76364,-0.002 6.76364,-0.006 6.76363,-0.0225 6.76364,-0.0737 6.76363,-0.22028 6.76364,-0.59992 6.76364,-1.488 6.76363,-3.35663 6.76364,-6.87454 6.76364,-12.75248 6.76363,-21.35568 6.76364,-32.12817 6.76364,-43.09575 6.76363,-50.89385 6.76364,-51.6749 6.76363,-42.77148 6.76364,-24.35026 h 6.76364 l 6.76363,24.35026 6.76364,42.77148 6.76364,51.6749 6.76363,50.89385 6.76364,43.09575 6.76364,32.12817 6.76363,21.35568 6.76364,12.75248 6.76364,6.87454 6.76363,3.35663 6.76364,1.488 6.76364,0.59992 6.76363,0.22028 6.76364,0.0737 6.76363,0.0225 6.76364,0.006 6.76364,0.002 6.76363,3.7e-4 6.76364,8e-5 6.76364,10e-6 6.76363,1e-5 h 6.76364 6.76363 6.76364 6.76364 6.76363 6.76364 6.76364 6.76363 6.76364 6.76364 6.76363 6.76364 6.76363 6.76364 6.76364 6.76363 6.76364 6.76364 6.76363 6.76364 6.76363 6.76364 6.76364 6.76363 6.76364 6.76364 6.76363 6.76364"
         clip-path="url(#p4316106baf)" />
    </g>
    <g
       id="line2d_23">
      <path
         inkscape:connector-curvature="0"
         id="path263"
         style="fill:none;stroke:#bcbd22;stroke-width:2;stroke-linecap:round"
         d="m 108,484.23273 h 6.76364 6.76363 6.76364 6.76363 6.76364 6.76364 6.76363 6.76364 6.76364 6.76363 6.76364 6.76364 6.76363 6.76364 6.76363 6.76364 6.76364 6.76363 6.76364 6.76364 6.76363 6.76364 6.76364 6.76363 6.76364 6.76363 6.76364 6.76364 l 6.76364,-2e-5 6.76363,-4e-5 6.76364,-2.2e-4 6.76363,-9.2e-4 6.76364,-0.004 6.76364,-0.0125 6.76363,-0.0407 6.76364,-0.12159 6.76363,-0.33384 6.76364,-0.84087 6.76364,-1.94092 6.76363,-4.10017 6.76364,-7.91317 6.76364,-13.91959 6.76363,-22.24262 6.76364,-32.13031 6.76364,-41.64227 6.76363,-47.81357 6.76364,-47.49696 6.76363,-38.70395 6.76364,-21.82898 h 6.76364 l 6.76363,21.82898 6.76364,38.70395 6.76364,47.49696 6.76363,47.81357 6.76364,41.64227 6.76364,32.13031 6.76363,22.24262 6.76364,13.91959 6.76364,7.91317 6.76363,4.10017 6.76364,1.94092 6.76364,0.84087 6.76363,0.33384 6.76364,0.12159 6.76363,0.0407 6.76364,0.0125 6.76364,0.004 6.76363,9.2e-4 6.76364,2.2e-4 6.76364,4e-5 6.76363,2e-5 h 6.76364 6.76363 6.76364 6.76364 6.76363 6.76364 6.76364 6.76363 6.76364 6.76364 6.76363 6.76364 6.76363 6.76364 6.76364 6.76363 6.76364 6.76364 6.76363 6.76364 6.76363 6.76364 6.76364 6.76363 6.76364 6.76364 6.76363 6.76364"
         clip-path="url(#p4316106baf)" />
    </g>
    <g
       id="line2d_24">
      <path
         inkscape:connector-curvature="0"
         id="path266"
         style="fill:none;stroke:#17becf;stroke-width:2;stroke-linecap:round"
         d="m 108,484.23273 h 6.76364 6.76363 6.76364 6.76363 6.76364 6.76364 6.76363 6.76364 6.76364 6.76363 6.76364 6.76364 6.76363 6.76364 6.76363 6.76364 6.76364 6.76363 6.76364 6.76364 6.76363 6.76364 6.76364 6.76363 6.76364 6.76363 6.76364 l 6.76364,-1e-5 6.76364,-3e-5 6.76363,-1.3e-4 6.76364,-5.4e-4 6.76363,-0.002 6.76364,-0.007 6.76364,-0.0229 6.76363,-0.0685 6.76364,-0.18885 6.76363,-0.48076 6.76364,-1.12905 6.76364,-2.4436 6.76363,-4.86732 6.76364,-8.90717 6.76364,-14.93994 6.76363,-22.89145 6.76364,-31.88594 6.76364,-40.07259 6.76363,-44.86672 6.76364,-43.70492 6.76363,-35.11901 6.76364,-19.64147 h 6.76364 l 6.76363,19.64147 6.76364,35.11901 6.76364,43.70492 6.76363,44.86672 6.76364,40.07259 6.76364,31.88594 6.76363,22.89145 6.76364,14.93994 6.76364,8.90717 6.76363,4.86732 6.76364,2.4436 6.76364,1.12905 6.76363,0.48076 6.76364,0.18885 6.76363,0.0685 6.76364,0.0229 6.76364,0.007 6.76363,0.002 6.76364,5.4e-4 6.76364,1.3e-4 6.76363,3e-5 6.76364,1e-5 h 6.76363 6.76364 6.76364 6.76363 6.76364 6.76364 6.76363 6.76364 6.76364 6.76363 6.76364 6.76363 6.76364 6.76364 6.76363 6.76364 6.76364 6.76363 6.76364 6.76363 6.76364 6.76364 6.76363 6.76364 6.76364 6.76363 6.76364"
         clip-path="url(#p4316106baf)" />
    </g>
    <g
       id="line2d_25">
      <path
         inkscape:connector-curvature="0"
         id="path269"
         style="fill:none;stroke:#1f77b4;stroke-width:2;stroke-linecap:round"
         d="m 108,484.23273 h 6.76364 6.76363 6.76364 6.76363 6.76364 6.76364 6.76363 6.76364 6.76364 6.76363 6.76364 6.76364 6.76363 6.76364 6.76363 6.76364 6.76364 6.76363 6.76364 6.76364 6.76363 6.76364 6.76364 6.76363 6.76364 6.76363 l 6.76364,-1e-5 6.76364,-2e-5 6.76364,-8e-5 6.76363,-3.2e-4 6.76364,-0.001 6.76363,-0.004 6.76364,-0.0133 6.76364,-0.0394 6.76363,-0.10867 6.76364,-0.27856 6.76363,-0.66255 6.76364,-1.46109 6.76364,-2.98432 6.76363,-5.63832 6.76364,-9.83626 6.76364,-15.80726 6.76363,-23.32306 6.76364,-31.44143 6.76364,-38.43506 6.76363,-42.06955 6.76364,-40.2646 6.76363,-31.94998 6.76364,-17.73469 h 6.76364 l 6.76363,17.73469 6.76364,31.94998 6.76364,40.2646 6.76363,42.06955 6.76364,38.43506 6.76364,31.44143 6.76363,23.32306 6.76364,15.80726 6.76364,9.83626 6.76363,5.63832 6.76364,2.98432 6.76364,1.46109 6.76363,0.66255 6.76364,0.27856 6.76363,0.10867 6.76364,0.0394 6.76364,0.0133 6.76363,0.004 6.76364,0.001 6.76364,3.2e-4 6.76363,8e-5 6.76364,2e-5 6.76363,1e-5 h 6.76364 6.76364 6.76363 6.76364 6.76364 6.76363 6.76364 6.76364 6.76363 6.76364 6.76363 6.76364 6.76364 6.76363 6.76364 6.76364 6.76363 6.76364 6.76363 6.76364 6.76364 6.76363 6.76364 6.76364 6.76363 6.76364"
         clip-path="url(#p4316106baf)" />
    </g>
    <g
       id="line2d_26">
      <path
         inkscape:connector-curvature="0"
         id="path272"
         style="fill:none;stroke:#ff7f0e;stroke-width:2;stroke-linecap:round"
         d="m 108,484.23273 h 6.76364 6.76363 6.76364 6.76363 6.76364 6.76364 6.76363 6.76364 6.76364 6.76363 6.76364 6.76364 6.76363 6.76364 6.76363 6.76364 6.76364 6.76363 6.76364 6.76364 6.76363 6.76364 6.76364 6.76363 6.76364 l 6.76363,-1e-5 6.76364,-10e-6 6.76364,-5e-5 6.76364,-2e-4 6.76363,-7.3e-4 6.76364,-0.002 6.76363,-0.008 6.76364,-0.0231 6.76364,-0.0636 6.76363,-0.16375 6.76364,-0.39295 6.76363,-0.87902 6.76364,-1.83145 6.76364,-3.55038 6.76363,-6.39534 6.76364,-10.68568 6.76364,-16.52191 6.76363,-23.56101 6.76364,-30.83815 6.76364,-36.76751 6.76363,-39.4301 6.76364,-37.1432 6.76363,-29.14038 6.76364,-16.06533 h 6.76364 l 6.76363,16.06533 6.76364,29.14038 6.76364,37.1432 6.76363,39.4301 6.76364,36.76751 6.76364,30.83815 6.76363,23.56101 6.76364,16.52191 6.76364,10.68568 6.76363,6.39534 6.76364,3.55038 6.76364,1.83145 6.76363,0.87902 6.76364,0.39295 6.76363,0.16375 6.76364,0.0636 6.76364,0.0231 6.76363,0.008 6.76364,0.002 6.76364,7.3e-4 6.76363,2e-4 6.76364,5e-5 6.76363,10e-6 6.76364,1e-5 h 6.76364 6.76363 6.76364 6.76364 6.76363 6.76364 6.76364 6.76363 6.76364 6.76363 6.76364 6.76364 6.76363 6.76364 6.76364 6.76363 6.76364 6.76363 6.76364 6.76364 6.76363 6.76364 6.76364 6.76363 6.76364"
         clip-path="url(#p4316106baf)" />
    </g>
    <g
       id="line2d_27">
      <path
         inkscape:connector-curvature="0"
         id="path275"
         style="fill:none;stroke:#2ca02c;stroke-width:2;stroke-linecap:round"
         d="m 108,484.23273 h 6.76364 6.76363 6.76364 6.76363 6.76364 6.76364 6.76363 6.76364 6.76364 6.76363 6.76364 6.76364 6.76363 6.76364 6.76363 6.76364 6.76364 6.76363 6.76364 6.76364 6.76363 6.76364 6.76364 6.76363 6.76364 l 6.76363,-1e-5 6.76364,-4e-5 6.76364,-1.3e-4 6.76364,-4.5e-4 6.76363,-0.002 6.76364,-0.005 6.76363,-0.0138 6.76364,-0.0379 6.76364,-0.0977 6.76363,-0.23585 6.76364,-0.53322 6.76363,-1.12834 6.76364,-2.23309 6.76364,-4.12899 6.76363,-7.12322 6.76364,-11.44578 6.76364,-17.08915 6.76363,-23.62968 6.76364,-30.11217 6.76364,-35.09899 6.76363,-36.95052 6.76364,-34.31002 6.76363,-26.6423 6.76364,-14.59777 h 6.76364 l 6.76363,14.59777 6.76364,26.6423 6.76364,34.31002 6.76363,36.95052 6.76364,35.09899 6.76364,30.11217 6.76363,23.62968 6.76364,17.08915 6.76364,11.44578 6.76363,7.12322 6.76364,4.12899 6.76364,2.23309 6.76363,1.12834 6.76364,0.53322 6.76363,0.23585 6.76364,0.0977 6.76364,0.0379 6.76363,0.0138 6.76364,0.005 6.76364,0.002 6.76363,4.5e-4 6.76364,1.3e-4 6.76363,4e-5 6.76364,1e-5 h 6.76364 6.76363 6.76364 6.76364 6.76363 6.76364 6.76364 6.76363 6.76364 6.76363 6.76364 6.76364 6.76363 6.76364 6.76364 6.76363 6.76364 6.76363 6.76364 6.76364 6.76363 6.76364 6.76364 6.76363 6.76364"
         clip-path="url(#p4316106baf)" />
    </g>
    <g
       id="line2d_28">
      <path
         inkscape:connector-curvature="0"
         id="path278"
         style="fill:none;stroke:#d62728;stroke-width:2;stroke-linecap:round"
         d="m 108,484.23273 h 6.76364 6.76363 6.76364 6.76363 6.76364 6.76364 6.76363 6.76364 6.76364 6.76363 6.76364 6.76364 6.76363 6.76364 6.76363 6.76364 6.76364 6.76363 6.76364 6.76364 6.76363 6.76364 6.76364 6.76363 l 6.76364,-1e-5 6.76363,-2e-5 6.76364,-9e-5 6.76364,-2.8e-4 6.76364,-9.4e-4 6.76363,-0.003 6.76364,-0.008 6.76363,-0.023 6.76364,-0.0592 6.76364,-0.14337 6.76363,-0.32659 6.76364,-0.69943 6.76363,-1.40729 6.76364,-2.65804 6.76364,-4.70805 6.76363,-7.80974 6.76364,-12.11134 6.76364,-17.51767 6.76363,-23.55296 6.76364,-29.29439 6.76364,-33.45135 6.76363,-34.62894 6.76364,-31.73667 6.76363,-24.41497 6.76364,-13.30265 h 6.76364 l 6.76363,13.30265 6.76364,24.41497 6.76364,31.73667 6.76363,34.62894 6.76364,33.45135 6.76364,29.29439 6.76363,23.55296 6.76364,17.51767 6.76364,12.11134 6.76363,7.80974 6.76364,4.70805 6.76364,2.65804 6.76363,1.40729 6.76364,0.69943 6.76363,0.32659 6.76364,0.14337 6.76364,0.0592 6.76363,0.023 6.76364,0.008 6.76364,0.003 6.76363,9.4e-4 6.76364,2.8e-4 6.76363,9e-5 6.76364,2e-5 6.76364,1e-5 h 6.76363 6.76364 6.76364 6.76363 6.76364 6.76364 6.76363 6.76364 6.76363 6.76364 6.76364 6.76363 6.76364 6.76364 6.76363 6.76364 6.76363 6.76364 6.76364 6.76363 6.76364 6.76364 6.76363 6.76364"
         clip-path="url(#p4316106baf)" />
    </g>
    <g
       id="line2d_29">
      <path
         inkscape:connector-curvature="0"
         id="path281"
         style="fill:none;stroke:#9467bd;stroke-width:2;stroke-linecap:round"
         d="m 108,484.23273 h 6.76364 6.76363 6.76364 6.76363 6.76364 6.76364 6.76363 6.76364 6.76364 6.76363 6.76364 6.76364 6.76363 6.76364 6.76363 6.76364 6.76364 6.76363 6.76364 6.76364 6.76363 6.76364 6.76364 l 6.76363,-1e-5 6.76364,-10e-6 6.76363,-6e-5 6.76364,-1.8e-4 6.76364,-6e-4 6.76364,-0.002 6.76363,-0.005 6.76364,-0.0142 6.76363,-0.0364 6.76364,-0.0883 6.76364,-0.20219 6.76363,-0.43691 6.76364,-0.89063 6.76363,-1.71149 6.76364,-3.09798 6.76364,-5.27664 6.76363,-8.44566 6.76364,-12.68081 6.76364,-17.81835 6.76363,-23.35347 6.76364,-28.41076 6.76364,-31.84074 6.76363,-32.46069 6.76364,-29.39726 6.76363,-22.42367 6.76364,-12.15547 h 6.76364 l 6.76363,12.15547 6.76364,22.42367 6.76364,29.39726 6.76363,32.46069 6.76364,31.84074 6.76364,28.41076 6.76363,23.35347 6.76364,17.81835 6.76364,12.68081 6.76363,8.44566 6.76364,5.27664 6.76364,3.09798 6.76363,1.71149 6.76364,0.89063 6.76363,0.43691 6.76364,0.20219 6.76364,0.0883 6.76363,0.0364 6.76364,0.0142 6.76364,0.005 6.76363,0.002 6.76364,6e-4 6.76363,1.8e-4 6.76364,6e-5 6.76364,10e-6 6.76363,1e-5 h 6.76364 6.76364 6.76363 6.76364 6.76364 6.76363 6.76364 6.76363 6.76364 6.76364 6.76363 6.76364 6.76364 6.76363 6.76364 6.76363 6.76364 6.76364 6.76363 6.76364 6.76364 6.76363 6.76364"
         clip-path="url(#p4316106baf)" />
    </g>
    <g
       id="line2d_30">
      <path
         inkscape:connector-curvature="0"
         id="path284"
         style="fill:none;stroke:#8c564b;stroke-width:2;stroke-linecap:round"
         d="m 108,484.23273 h 6.76364 6.76363 6.76364 6.76363 6.76364 6.76364 6.76363 6.76364 6.76364 6.76363 6.76364 6.76364 6.76363 6.76364 6.76363 6.76364 6.76364 6.76363 6.76364 6.76364 6.76363 6.76364 l 6.76364,-1e-5 6.76363,-10e-6 6.76364,-3e-5 6.76363,-1.3e-4 6.76364,-3.8e-4 6.76364,-10e-4 6.76364,-0.003 6.76363,-0.009 6.76364,-0.0228 6.76363,-0.0551 6.76364,-0.1266 6.76364,-0.27535 6.76363,-0.567 6.76364,-1.10485 6.76363,-2.03589 6.76364,-3.54467 6.76364,-5.82541 6.76363,-9.02451 6.76364,-13.15554 6.76364,-18.00327 6.76363,-23.05198 6.76364,-27.48292 6.76364,-30.27866 6.76363,-30.43932 6.76364,-27.26831 6.76363,-20.63872 6.76364,-11.13581 h 6.76364 l 6.76363,11.13581 6.76364,20.63872 6.76364,27.26831 6.76363,30.43932 6.76364,30.27866 6.76364,27.48292 6.76363,23.05198 6.76364,18.00327 6.76364,13.15554 6.76363,9.02451 6.76364,5.82541 6.76364,3.54467 6.76363,2.03589 6.76364,1.10485 6.76363,0.567 6.76364,0.27535 6.76364,0.1266 6.76363,0.0551 6.76364,0.0228 6.76364,0.009 6.76363,0.003 6.76364,10e-4 6.76363,3.8e-4 6.76364,1.3e-4 6.76364,3e-5 6.76363,10e-6 6.76364,1e-5 h 6.76364 6.76363 6.76364 6.76364 6.76363 6.76364 6.76363 6.76364 6.76364 6.76363 6.76364 6.76364 6.76363 6.76364 6.76363 6.76364 6.76364 6.76363 6.76364 6.76364 6.76363 6.76364"
         clip-path="url(#p4316106baf)" />
    </g>
    <g
       id="line2d_31">
      <path
         inkscape:connector-curvature="0"
         id="path287"
         style="fill:none;stroke:#e377c2;stroke-width:2;stroke-linecap:round"
         d="m 108,484.23273 h 6.76364 6.76363 6.76364 6.76363 6.76364 6.76364 6.76363 6.76364 6.76364 6.76363 6.76364 6.76364 6.76363 6.76364 6.76363 6.76364 6.76364 6.76363 6.76364 6.76364 6.76363 6.76364 l 6.76364,-1e-5 6.76363,-3e-5 6.76364,-8e-5 6.76363,-2.6e-4 6.76364,-7.5e-4 6.76364,-0.002 6.76364,-0.006 6.76363,-0.0144 6.76364,-0.0349 6.76363,-0.0802 6.76364,-0.17521 6.76364,-0.36357 6.76363,-0.71635 6.76364,-1.33938 6.76363,-2.37496 6.76364,-3.99042 6.76364,-6.34663 6.76363,-9.54231 6.76364,-13.53906 6.76364,-18.08499 6.76363,-22.66722 6.76364,-26.52858 6.76364,-28.77299 6.76363,-28.55735 6.76364,-25.32867 6.76363,-19.03464 6.76364,-10.22654 h 6.76364 l 6.76363,10.22654 6.76364,19.03464 6.76364,25.32867 6.76363,28.55735 6.76364,28.77299 6.76364,26.52858 6.76363,22.66722 6.76364,18.08499 6.76364,13.53906 6.76363,9.54231 6.76364,6.34663 6.76364,3.99042 6.76363,2.37496 6.76364,1.33938 6.76363,0.71635 6.76364,0.36357 6.76364,0.17521 6.76363,0.0802 6.76364,0.0349 6.76364,0.0144 6.76363,0.006 6.76364,0.002 6.76363,7.5e-4 6.76364,2.6e-4 6.76364,8e-5 6.76363,3e-5 6.76364,1e-5 h 6.76364 6.76363 6.76364 6.76364 6.76363 6.76364 6.76363 6.76364 6.76364 6.76363 6.76364 6.76364 6.76363 6.76364 6.76363 6.76364 6.76364 6.76363 6.76364 6.76364 6.76363 6.76364"
         clip-path="url(#p4316106baf)" />
    </g>
    <g
       id="line2d_32">
      <path
         inkscape:connector-curvature="0"
         id="path290"
         style="fill:none;stroke:#7f7f7f;stroke-width:2;stroke-linecap:round"
         d="m 108,484.23273 h 6.76364 6.76363 6.76364 6.76363 6.76364 6.76364 6.76363 6.76364 6.76364 6.76363 6.76364 6.76364 6.76363 6.76364 6.76363 6.76364 6.76364 6.76363 6.76364 6.76364 6.76363 l 6.76364,-1e-5 6.76364,-2e-5 6.76363,-5e-5 6.76364,-1.7e-4 6.76363,-5e-4 6.76364,-0.001 6.76364,-0.004 6.76364,-0.009 6.76363,-0.0224 6.76364,-0.0514 6.76363,-0.11263 6.76364,-0.23502 6.76364,-0.4671 6.76363,-0.88376 6.76364,-1.59092 6.76363,-2.72312 6.76364,-4.42824 6.76364,-6.8343 6.76363,-9.99722 6.76364,-13.83645 6.76364,-18.07592 6.76363,-22.21584 6.76364,-25.56208 6.76364,-27.32883 6.76363,-26.80668 6.76364,-23.55931 6.76363,-17.5896 6.76364,-9.41318 h 6.76364 l 6.76363,9.41318 6.76364,17.5896 6.76364,23.55931 6.76363,26.80668 6.76364,27.32883 6.76364,25.56208 6.76363,22.21584 6.76364,18.07592 6.76364,13.83645 6.76363,9.99722 6.76364,6.8343 6.76364,4.42824 6.76363,2.72312 6.76364,1.59092 6.76363,0.88376 6.76364,0.4671 6.76364,0.23502 6.76363,0.11263 6.76364,0.0514 6.76364,0.0224 6.76363,0.009 6.76364,0.004 6.76363,0.001 6.76364,5e-4 6.76364,1.7e-4 6.76363,5e-5 6.76364,2e-5 6.76364,1e-5 h 6.76363 6.76364 6.76364 6.76363 6.76364 6.76363 6.76364 6.76364 6.76363 6.76364 6.76364 6.76363 6.76364 6.76363 6.76364 6.76364 6.76363 6.76364 6.76364 6.76363 6.76364"
         clip-path="url(#p4316106baf)" />
    </g>
    <g
       id="line2d_33">
      <path
         inkscape:connector-curvature="0"
         id="path293"
         style="fill:none;stroke:#bcbd22;stroke-width:2;stroke-linecap:round"
         d="m 108,484.23273 h 6.76364 6.76363 6.76364 6.76363 6.76364 6.76364 6.76363 6.76364 6.76364 6.76363 6.76364 6.76364 6.76363 6.76364 6.76363 6.76364 6.76364 6.76363 6.76364 6.76364 l 6.76363,-1e-5 6.76364,-10e-6 6.76364,-4e-5 6.76363,-1.2e-4 6.76364,-3.3e-4 6.76363,-9.2e-4 6.76364,-0.002 6.76364,-0.006 6.76364,-0.0145 6.76363,-0.0334 6.76364,-0.0732 6.76363,-0.15325 6.76364,-0.30662 6.76364,-0.58567 6.76363,-1.06751 6.76364,-1.85578 6.76363,-3.0749 6.76364,-4.85209 6.76364,-7.28401 6.76363,-10.38914 6.76364,-14.0538 6.76364,-17.98807 6.76363,-21.71235 6.76364,-24.59493 6.76364,-25.94904 6.76363,-25.17905 6.76364,-21.94323 6.76363,-16.28472 6.76364,-8.68347 h 6.76364 l 6.76363,8.68347 6.76364,16.28472 6.76364,21.94323 6.76363,25.17905 6.76364,25.94904 6.76364,24.59493 6.76363,21.71235 6.76364,17.98807 6.76364,14.0538 6.76363,10.38914 6.76364,7.28401 6.76364,4.85209 6.76363,3.0749 6.76364,1.85578 6.76363,1.06751 6.76364,0.58567 6.76364,0.30662 6.76363,0.15325 6.76364,0.0732 6.76364,0.0334 6.76363,0.0145 6.76364,0.006 6.76363,0.002 6.76364,9.2e-4 6.76364,3.3e-4 6.76363,1.2e-4 6.76364,4e-5 6.76364,10e-6 6.76363,1e-5 h 6.76364 6.76364 6.76363 6.76364 6.76363 6.76364 6.76364 6.76363 6.76364 6.76364 6.76363 6.76364 6.76363 6.76364 6.76364 6.76363 6.76364 6.76364 6.76363 6.76364"
         clip-path="url(#p4316106baf)" />
    </g>
    <g
       id="line2d_34">
      <path
         inkscape:connector-curvature="0"
         id="path296"
         style="fill:none;stroke:#17becf;stroke-width:2;stroke-linecap:round"
         d="m 108,484.23273 h 6.76364 6.76363 6.76364 6.76363 6.76364 6.76364 6.76363 6.76364 6.76364 6.76363 6.76364 6.76364 6.76363 6.76364 6.76363 6.76364 6.76364 6.76363 6.76364 l 6.76364,-1e-5 6.76363,-10e-6 6.76364,-2e-5 6.76364,-8e-5 6.76363,-2.3e-4 6.76364,-6.2e-4 6.76363,-0.002 6.76364,-0.004 6.76364,-0.01 6.76364,-0.0219 6.76363,-0.048 6.76364,-0.10085 6.76363,-0.20278 6.76364,-0.39022 6.76364,-0.71855 6.76363,-1.26541 6.76364,-2.13011 6.76363,-3.42521 6.76364,-5.25693 6.76364,-7.69281 6.76363,-10.71934 6.76364,-14.19783 6.76364,-17.83267 6.76363,-21.16932 6.76364,-23.63621 6.76364,-24.63486 6.76363,-23.66624 6.76364,-20.46516 6.76363,-15.10375 6.76364,-8.02695 h 6.76364 l 6.76363,8.02695 6.76364,15.10375 6.76364,20.46516 6.76363,23.66624 6.76364,24.63486 6.76364,23.63621 6.76363,21.16932 6.76364,17.83267 6.76364,14.19783 6.76363,10.71934 6.76364,7.69281 6.76364,5.25693 6.76363,3.42521 6.76364,2.13011 6.76363,1.26541 6.76364,0.71855 6.76364,0.39022 6.76363,0.20278 6.76364,0.10085 6.76364,0.048 6.76363,0.0219 6.76364,0.01 6.76363,0.004 6.76364,0.002 6.76364,6.2e-4 6.76363,2.3e-4 6.76364,8e-5 6.76364,2e-5 6.76363,10e-6 6.76364,1e-5 h 6.76364 6.76363 6.76364 6.76363 6.76364 6.76364 6.76363 6.76364 6.76364 6.76363 6.76364 6.76363 6.76364 6.76364 6.76363 6.76364 6.76364 6.76363 6.76364"
         clip-path="url(#p4316106baf)" />
    </g>
    <g
       transform="matrix(1,0,0,0.95454546,0,3.1418177)"
       id="patch_3">
      <path
         inkscape:connector-curvature="0"
         id="path299"
         style="fill:none;stroke:#262626;stroke-linecap:square;stroke-linejoin:miter"
         d="M 108,504 V 69.12" />
    </g>
    <g
       transform="matrix(1,0,0,0.95454546,0,3.1418177)"
       id="patch_4">
      <path
         inkscape:connector-curvature="0"
         id="path302"
         style="fill:none;stroke:#262626;stroke-linecap:square;stroke-linejoin:miter"
         d="M 777.6,504 V 69.12" />
    </g>
    <path
       d="M 108,486 H 777.6"
       style="fill:none;stroke:#262626;stroke-linecap:square;stroke-linejoin:miter"
       id="path305"
       inkscape:connector-curvature="0" />
    <g
       id="patch_6">
      <path
         inkscape:connector-curvature="0"
         id="path308"
         style="fill:none;stroke:#262626;stroke-linecap:square;stroke-linejoin:miter"
         d="M 108,69.12 H 777.6" />
    </g>
  </g>
  <defs
     id="defs338">
    <clipPath
       id="p4316106baf">
      <rect
         height="434.88"
         width="669.6"
         x="108"
         y="69.12"
         id="rect335" />
    </clipPath>
  </defs>
</svg>
