<?xml version="1.0" encoding="utf-8" standalone="no"?>
<!DOCTYPE svg PUBLIC "-//W3C//DTD SVG 1.1//EN"
  "http://www.w3.org/Graphics/SVG/1.1/DTD/svg11.dtd">
<!-- Created with matplotlib (https://matplotlib.org/) -->
<svg height="345.6pt" version="1.1" viewBox="0 0 460.8 345.6" width="460.8pt" xmlns="http://www.w3.org/2000/svg" xmlns:xlink="http://www.w3.org/1999/xlink">
 <defs>
  <style type="text/css">
*{stroke-linecap:butt;stroke-linejoin:round;}
  </style>
 </defs>
 <g id="figure_1">
  <g id="patch_1">
   <path d="M 0 345.6 
L 460.8 345.6 
L 460.8 0 
L 0 0 
z
" style="fill:#ffffff;"/>
  </g>
  <g id="axes_1">
   <g id="patch_2">
    <path d="M 57.6 307.584 
L 414.72 307.584 
L 414.72 41.472 
L 57.6 41.472 
z
" style="fill:#ffffff;"/>
   </g>
   <g id="PolyCollection_1">
    <defs>
     <path d="M 73.832727 -293.892923 
L 73.832727 -290.221127 
L 74.157707 -287.181144 
L 74.482686 -283.614288 
L 74.807666 -280.344774 
L 75.132645 -277.242337 
L 75.457625 -274.25062 
L 75.782604 -271.340684 
L 76.107584 -268.495495 
L 76.432563 -265.704071 
L 76.757543 -262.958867 
L 77.082523 -260.254451 
L 77.407502 -257.586771 
L 77.732482 -254.952718 
L 78.057461 -252.349857 
L 78.382441 -249.776244 
L 78.70742 -247.230305 
L 79.0324 -244.71075 
L 79.357379 -242.216514 
L 79.682359 -239.746708 
L 80.007338 -237.300585 
L 80.332318 -234.877518 
L 80.657297 -232.476975 
L 80.982277 -230.098504 
L 81.307256 -227.741722 
L 81.632236 -225.406304 
L 81.957215 -223.091973 
L 82.282195 -220.798494 
L 82.607174 -218.525672 
L 82.932154 -216.273338 
L 83.257133 -214.041357 
L 83.582113 -211.829612 
L 83.907093 -209.638014 
L 84.232072 -207.466486 
L 84.557052 -205.314974 
L 84.882031 -203.183433 
L 85.207011 -201.071836 
L 85.53199 -198.980165 
L 85.85697 -196.908412 
L 86.181949 -194.856581 
L 86.506929 -192.82468 
L 86.831908 -190.812729 
L 87.156888 -188.82075 
L 87.481867 -186.848776 
L 87.806847 -184.89684 
L 88.131826 -182.964982 
L 88.456806 -181.053247 
L 88.781785 -179.161681 
L 89.106765 -177.290335 
L 89.431744 -175.439262 
L 89.756724 -173.608517 
L 90.081704 -171.798159 
L 90.406683 -170.008244 
L 90.731663 -168.238834 
L 91.056642 -166.48999 
L 91.381622 -164.761773 
L 91.706601 -163.054245 
L 92.031581 -161.36747 
L 92.35656 -159.70151 
L 92.68154 -158.056427 
L 93.006519 -156.432283 
L 93.331499 -154.82914 
L 93.656478 -153.247057 
L 93.981458 -151.686096 
L 94.306437 -150.146314 
L 94.631417 -148.627769 
L 94.956396 -147.130516 
L 95.281376 -145.654611 
L 95.606355 -144.200106 
L 95.931335 -142.767051 
L 96.256314 -141.355496 
L 96.581294 -139.965487 
L 96.906274 -138.59707 
L 97.231253 -137.250285 
L 97.556233 -135.925174 
L 97.881212 -134.621774 
L 98.206192 -133.340118 
L 98.531171 -132.08024 
L 98.856151 -130.842167 
L 99.18113 -129.625926 
L 99.50611 -128.43154 
L 99.831089 -127.259028 
L 100.156069 -126.108406 
L 100.481048 -124.979688 
L 100.806028 -123.872883 
L 101.131007 -122.787997 
L 101.455987 -121.725032 
L 101.780966 -120.683986 
L 102.105946 -119.664855 
L 102.430925 -118.667628 
L 102.755905 -117.692292 
L 103.080885 -116.738829 
L 103.405864 -115.807218 
L 103.730844 -114.897432 
L 104.055823 -114.009442 
L 104.380803 -113.143211 
L 104.705782 -112.2987 
L 105.030762 -111.475864 
L 105.355741 -110.674656 
L 105.680721 -109.895021 
L 106.0057 -109.136899 
L 106.33068 -108.400228 
L 106.655659 -107.684937 
L 106.980639 -106.990955 
L 107.305618 -106.318199 
L 107.630598 -105.666587 
L 107.955577 -105.036028 
L 108.280557 -104.426427 
L 108.605536 -103.837682 
L 108.930516 -103.269686 
L 109.255495 -102.722327 
L 109.580475 -102.195486 
L 109.905455 -101.68904 
L 110.230434 -101.202857 
L 110.555414 -100.736802 
L 110.880393 -100.290733 
L 111.205373 -99.864499 
L 111.530352 -99.457948 
L 111.855332 -99.070916 
L 112.180311 -98.703238 
L 112.505291 -98.354738 
L 112.83027 -98.025236 
L 113.15525 -97.714545 
L 113.480229 -97.422471 
L 113.805209 -97.148814 
L 114.130188 -96.893367 
L 114.455168 -96.655914 
L 114.780147 -96.436237 
L 115.105127 -96.234107 
L 115.430106 -96.04929 
L 115.755086 -95.881545 
L 116.080066 -95.730624 
L 116.405045 -95.596274 
L 116.730025 -95.478231 
L 117.055004 -95.376229 
L 117.379984 -95.289993 
L 117.704963 -95.219243 
L 118.029943 -95.163689 
L 118.354922 -95.123039 
L 118.679902 -95.096992 
L 119.004881 -95.085239 
L 119.329861 -95.087464 
L 119.65484 -95.103344 
L 119.97982 -95.132542 
L 120.304799 -95.174707 
L 120.629779 -95.229464 
L 120.954758 -95.296404 
L 121.279738 -95.375058 
L 121.604717 -95.464859 
L 121.929697 -95.565067 
L 122.254676 -95.674625 
L 122.579656 -95.791898 
L 122.904636 -95.914171 
L 123.229615 -96.036713 
L 123.554595 -96.15125 
L 123.879574 -96.244337 
L 124.204554 -96.29866 
L 124.529533 -96.302346 
L 124.854513 -96.260911 
L 125.179492 -96.194063 
L 125.504472 -96.1214 
L 125.829451 -96.055284 
L 126.154431 -96.001714 
L 126.47941 -95.962883 
L 126.80439 -95.93895 
L 127.129369 -95.928973 
L 127.454349 -95.931335 
L 127.779328 -95.943909 
L 128.104308 -95.964098 
L 128.429287 -95.988843 
L 128.754267 -96.014679 
L 129.079247 -96.037929 
L 129.404226 -96.055102 
L 129.729206 -96.063467 
L 130.054185 -96.061626 
L 130.379165 -96.049775 
L 130.704144 -96.029487 
L 131.029124 -96.00318 
L 131.354103 -95.97356 
L 131.679083 -95.943211 
L 132.004062 -95.914382 
L 132.329042 -95.888932 
L 132.654021 -95.868352 
L 132.979001 -95.853823 
L 133.30398 -95.846275 
L 133.62896 -95.846422 
L 133.953939 -95.854784 
L 134.278919 -95.871671 
L 134.603898 -95.897117 
L 134.928878 -95.930748 
L 135.253857 -95.97152 
L 135.578837 -96.017281 
L 135.903817 -96.064075 
L 136.228796 -96.105258 
L 136.553776 -96.130952 
L 136.878755 -96.12925 
L 137.203735 -96.090473 
L 137.528714 -96.012331 
L 137.853694 -95.900671 
L 138.178673 -95.765194 
L 138.503653 -95.615023 
L 138.828632 -95.456927 
L 139.153612 -95.295389 
L 139.478591 -95.133249 
L 139.803571 -94.97228 
L 140.12855 -94.813597 
L 140.45353 -94.657914 
L 140.778509 -94.5057 
L 141.103489 -94.357269 
L 141.428468 -94.21284 
L 141.753448 -94.072569 
L 142.078428 -93.936575 
L 142.403407 -93.804946 
L 142.728387 -93.677756 
L 143.053366 -93.555064 
L 143.378346 -93.436918 
L 143.703325 -93.323364 
L 144.028305 -93.214437 
L 144.353284 -93.11017 
L 144.678264 -93.010593 
L 145.003243 -92.915732 
L 145.328223 -92.825608 
L 145.653202 -92.740242 
L 145.978182 -92.659649 
L 146.303161 -92.583845 
L 146.628141 -92.512841 
L 146.95312 -92.446645 
L 147.2781 -92.385264 
L 147.603079 -92.328702 
L 147.928059 -92.27696 
L 148.253038 -92.230038 
L 148.578018 -92.187933 
L 148.902998 -92.150639 
L 149.227977 -92.118149 
L 149.552957 -92.090453 
L 149.877936 -92.067538 
L 150.202916 -92.04939 
L 150.527895 -92.035994 
L 150.852875 -92.02733 
L 151.177854 -92.023379 
L 151.502834 -92.024118 
L 151.827813 -92.029523 
L 152.152793 -92.039568 
L 152.477772 -92.054225 
L 152.802752 -92.073463 
L 153.127731 -92.097252 
L 153.452711 -92.125557 
L 153.77769 -92.158344 
L 154.10267 -92.195576 
L 154.427649 -92.237214 
L 154.752629 -92.283216 
L 155.077609 -92.333542 
L 155.402588 -92.388148 
L 155.727568 -92.446986 
L 156.052547 -92.51001 
L 156.377527 -92.57717 
L 156.702506 -92.648414 
L 157.027486 -92.723689 
L 157.352465 -92.802938 
L 157.677445 -92.886102 
L 158.002424 -92.973121 
L 158.327404 -93.063931 
L 158.652383 -93.158462 
L 158.977363 -93.256645 
L 159.302342 -93.358402 
L 159.627322 -93.463652 
L 159.952301 -93.572309 
L 160.277281 -93.684276 
L 160.60226 -93.79945 
L 160.92724 -93.917714 
L 161.252219 -94.038939 
L 161.577199 -94.162977 
L 161.902179 -94.289656 
L 162.227158 -94.418773 
L 162.552138 -94.550088 
L 162.877117 -94.683305 
L 163.202097 -94.818058 
L 163.527076 -94.953881 
L 163.852056 -95.090181 
L 164.177035 -95.226179 
L 164.502015 -95.360852 
L 164.826994 -95.492852 
L 165.151974 -95.620407 
L 165.476953 -95.741243 
L 165.801933 -95.852571 
L 166.126912 -95.951249 
L 166.451892 -96.034241 
L 166.776871 -96.099401 
L 167.101851 -96.146344 
L 167.42683 -96.17687 
L 167.75181 -96.194545 
L 168.07679 -96.203667 
L 168.401769 -96.208244 
L 168.726749 -96.21139 
L 169.051728 -96.215155 
L 169.376708 -96.220598 
L 169.701687 -96.227956 
L 170.026667 -96.236808 
L 170.351646 -96.246201 
L 170.676626 -96.254709 
L 171.001605 -96.260477 
L 171.326585 -96.261337 
L 171.651564 -96.25505 
L 171.976544 -96.239678 
L 172.301523 -96.214001 
L 172.626503 -96.177822 
L 172.951482 -96.131986 
L 173.276462 -96.078106 
L 173.601441 -96.018178 
L 173.926421 -95.954253 
L 174.2514 -95.888217 
L 174.57638 -95.821698 
L 174.90136 -95.756044 
L 175.226339 -95.69235 
L 175.551319 -95.63149 
L 175.876298 -95.574163 
L 176.201278 -95.520928 
L 176.526257 -95.472233 
L 176.851237 -95.428438 
L 177.176216 -95.389837 
L 177.501196 -95.356664 
L 177.826175 -95.329112 
L 178.151155 -95.307332 
L 178.476134 -95.291445 
L 178.801114 -95.281542 
L 179.126093 -95.277684 
L 179.451073 -95.279908 
L 179.776052 -95.288225 
L 180.101032 -95.302616 
L 180.426011 -95.323033 
L 180.750991 -95.349395 
L 181.075971 -95.381582 
L 181.40095 -95.419431 
L 181.72593 -95.462723 
L 182.050909 -95.511176 
L 182.375889 -95.564432 
L 182.700868 -95.622031 
L 183.025848 -95.683397 
L 183.350827 -95.747806 
L 183.675807 -95.814354 
L 184.000786 -95.88193 
L 184.325766 -95.949191 
L 184.650745 -96.014561 
L 184.975725 -96.076284 
L 185.300704 -96.132545 
L 185.625684 -96.181688 
L 185.950663 -96.222506 
L 186.275643 -96.254514 
L 186.600622 -96.278092 
L 186.925602 -96.294367 
L 187.250581 -96.304909 
L 187.575561 -96.31137 
L 187.900541 -96.315214 
L 188.22552 -96.317587 
L 188.5505 -96.319294 
L 188.875479 -96.320851 
L 189.200459 -96.322581 
L 189.525438 -96.324694 
L 189.850418 -96.327314 
L 190.175397 -96.330476 
L 190.500377 -96.334113 
L 190.825356 -96.338057 
L 191.150336 -96.342052 
L 191.475315 -96.345781 
L 191.800295 -96.34891 
L 192.125274 -96.35116 
L 192.450254 -96.352382 
L 192.775233 -96.352606 
L 193.100213 -96.352057 
L 193.425192 -96.351113 
L 193.750172 -96.350184 
L 194.075152 -96.349578 
L 194.400131 -96.349416 
L 194.725111 -96.349644 
L 195.05009 -96.350114 
L 195.37507 -96.35069 
L 195.700049 -96.351294 
L 196.025029 -96.351838 
L 196.350008 -96.352123 
L 196.674988 -96.351856 
L 196.999967 -96.350707 
L 197.324947 -96.34841 
L 197.649926 -96.344865 
L 197.974906 -96.340179 
L 198.299885 -96.334635 
L 198.624865 -96.328627 
L 198.949844 -96.322577 
L 199.274824 -96.316879 
L 199.599803 -96.311873 
L 199.924783 -96.307866 
L 200.249762 -96.305153 
L 200.574742 -96.304023 
L 200.899722 -96.304739 
L 201.224701 -96.307501 
L 201.549681 -96.312337 
L 201.87466 -96.318889 
L 202.19964 -96.326116 
L 202.524619 -96.331954 
L 202.849599 -96.333088 
L 203.174578 -96.325051 
L 203.499558 -96.302933 
L 203.824537 -96.262679 
L 204.149517 -96.202371 
L 204.474496 -96.122635 
L 204.799476 -96.026002 
L 205.124455 -95.915817 
L 205.449435 -95.795367 
L 205.774414 -95.667438 
L 206.099394 -95.534219 
L 206.424373 -95.397366 
L 206.749353 -95.258105 
L 207.074333 -95.117347 
L 207.399312 -94.975771 
L 207.724292 -94.833888 
L 208.049271 -94.692087 
L 208.374251 -94.550673 
L 208.69923 -94.409882 
L 209.02421 -94.269907 
L 209.349189 -94.130903 
L 209.674169 -93.992997 
L 209.999148 -93.856297 
L 210.324128 -93.720894 
L 210.649107 -93.586866 
L 210.974087 -93.45428 
L 211.299066 -93.323196 
L 211.624046 -93.193667 
L 211.949025 -93.065739 
L 212.274005 -92.939455 
L 212.598984 -92.814855 
L 212.923964 -92.691972 
L 213.248943 -92.570839 
L 213.573923 -92.451488 
L 213.898903 -92.333945 
L 214.223882 -92.218238 
L 214.548862 -92.104391 
L 214.873841 -91.992428 
L 215.198821 -91.882371 
L 215.5238 -91.774242 
L 215.84878 -91.668062 
L 216.173759 -91.56385 
L 216.498739 -91.461626 
L 216.823718 -91.361409 
L 217.148698 -91.263217 
L 217.473677 -91.167067 
L 217.798657 -91.072979 
L 218.123636 -90.980968 
L 218.448616 -90.891052 
L 218.773595 -90.803247 
L 219.098575 -90.717571 
L 219.423554 -90.63404 
L 219.748534 -90.552671 
L 220.073514 -90.473479 
L 220.398493 -90.396482 
L 220.723473 -90.321696 
L 221.048452 -90.249137 
L 221.373432 -90.178821 
L 221.698411 -90.110766 
L 222.023391 -90.044987 
L 222.34837 -89.981503 
L 222.67335 -89.920328 
L 222.998329 -89.86148 
L 223.323309 -89.804976 
L 223.648288 -89.750833 
L 223.973268 -89.699069 
L 224.298247 -89.6497 
L 224.623227 -89.602745 
L 224.948206 -89.55822 
L 225.273186 -89.516145 
L 225.598165 -89.476536 
L 225.923145 -89.439413 
L 226.248124 -89.404794 
L 226.573104 -89.372697 
L 226.898084 -89.343141 
L 227.223063 -89.316145 
L 227.548043 -89.291729 
L 227.873022 -89.269913 
L 228.198002 -89.250715 
L 228.522981 -89.234157 
L 228.847961 -89.220258 
L 229.17294 -89.209039 
L 229.49792 -89.200521 
L 229.822899 -89.194724 
L 230.147879 -89.191672 
L 230.472858 -89.191385 
L 230.797838 -89.193885 
L 231.122817 -89.199195 
L 231.447797 -89.207338 
L 231.772776 -89.218338 
L 232.097756 -89.232217 
L 232.422735 -89.249001 
L 232.747715 -89.268714 
L 233.072695 -89.291381 
L 233.397674 -89.317027 
L 233.722654 -89.34568 
L 234.047633 -89.377367 
L 234.372613 -89.412115 
L 234.697592 -89.449952 
L 235.022572 -89.490909 
L 235.347551 -89.535016 
L 235.672531 -89.582303 
L 235.99751 -89.632804 
L 236.32249 -89.686552 
L 236.647469 -89.743582 
L 236.972449 -89.803931 
L 237.297428 -89.867637 
L 237.622408 -89.93474 
L 237.947387 -90.005282 
L 238.272367 -90.079307 
L 238.597346 -90.156863 
L 238.922326 -90.237998 
L 239.247305 -90.322765 
L 239.572285 -90.411222 
L 239.897265 -90.503428 
L 240.222244 -90.599448 
L 240.547224 -90.699352 
L 240.872203 -90.803218 
L 241.197183 -90.911126 
L 241.522162 -91.023168 
L 241.847142 -91.139443 
L 242.172121 -91.26006 
L 242.497101 -91.385142 
L 242.82208 -91.514822 
L 243.14706 -91.649253 
L 243.472039 -91.788606 
L 243.797019 -91.933073 
L 244.121998 -92.082875 
L 244.446978 -92.238266 
L 244.771957 -92.399537 
L 245.096937 -92.56703 
L 245.421916 -92.741145 
L 245.746896 -92.922358 
L 246.071876 -93.111237 
L 246.396855 -93.308473 
L 246.721835 -93.514912 
L 247.046814 -93.731607 
L 247.371794 -93.959888 
L 247.696773 -94.201462 
L 248.021753 -94.458553 
L 248.346732 -94.734091 
L 248.671712 -95.031903 
L 248.996691 -95.356553 
L 249.321671 -95.710695 
L 249.64665 -96.075956 
L 249.97163 -96.308633 
L 250.296609 -96.14775 
L 250.621589 -95.793975 
L 250.946568 -95.44495 
L 251.271548 -95.131937 
L 251.596527 -94.853137 
L 251.921507 -94.603326 
L 252.246486 -94.377989 
L 252.571466 -94.173648 
L 252.896446 -93.987657 
L 253.221425 -93.817987 
L 253.546405 -93.66305 
L 253.871384 -93.521591 
L 254.196364 -93.392598 
L 254.521343 -93.275243 
L 254.846323 -93.168846 
L 255.171302 -93.072837 
L 255.496282 -92.986736 
L 255.821261 -92.910137 
L 256.146241 -92.842693 
L 256.47122 -92.784105 
L 256.7962 -92.734117 
L 257.121179 -92.692507 
L 257.446159 -92.659084 
L 257.771138 -92.633681 
L 258.096118 -92.616157 
L 258.421097 -92.606389 
L 258.746077 -92.604275 
L 259.071057 -92.609729 
L 259.396036 -92.622683 
L 259.721016 -92.643082 
L 260.045995 -92.670889 
L 260.370975 -92.706082 
L 260.695954 -92.748655 
L 261.020934 -92.798618 
L 261.345913 -92.855998 
L 261.670893 -92.920844 
L 261.995872 -92.993224 
L 262.320852 -93.073232 
L 262.645831 -93.160986 
L 262.970811 -93.256638 
L 263.29579 -93.360379 
L 263.62077 -93.472438 
L 263.945749 -93.593103 
L 264.270729 -93.722718 
L 264.595708 -93.861709 
L 264.920688 -94.010591 
L 265.245667 -94.169993 
L 265.570647 -94.34068 
L 265.895627 -94.523571 
L 266.220606 -94.719747 
L 266.545586 -94.930397 
L 266.870565 -95.156581 
L 267.195545 -95.398401 
L 267.520524 -95.652244 
L 267.845504 -95.901796 
L 268.170483 -96.094415 
L 268.495463 -96.132003 
L 268.820442 -95.990482 
L 269.145422 -95.763087 
L 269.470401 -95.519949 
L 269.795381 -95.285576 
L 270.12036 -95.066115 
L 270.44534 -94.86215 
L 270.770319 -94.672751 
L 271.095299 -94.496688 
L 271.420278 -94.332795 
L 271.745258 -94.180056 
L 272.070238 -94.037614 
L 272.395217 -93.904755 
L 272.720197 -93.780881 
L 273.045176 -93.665494 
L 273.370156 -93.558173 
L 273.695135 -93.458563 
L 274.020115 -93.366365 
L 274.345094 -93.281321 
L 274.670074 -93.203214 
L 274.995053 -93.131855 
L 275.320033 -93.067083 
L 275.645012 -93.00876 
L 275.969992 -92.956766 
L 276.294971 -92.910999 
L 276.619951 -92.871371 
L 276.94493 -92.837809 
L 277.26991 -92.810249 
L 277.594889 -92.78864 
L 277.919869 -92.772939 
L 278.244848 -92.763115 
L 278.569828 -92.759142 
L 278.894808 -92.761005 
L 279.219787 -92.768696 
L 279.544767 -92.782215 
L 279.869746 -92.801571 
L 280.194726 -92.826779 
L 280.519705 -92.857866 
L 280.844685 -92.894867 
L 281.169664 -92.937826 
L 281.494644 -92.986799 
L 281.819623 -93.041854 
L 282.144603 -93.103072 
L 282.469582 -93.170551 
L 282.794562 -93.244406 
L 283.119541 -93.324771 
L 283.444521 -93.411806 
L 283.7695 -93.505697 
L 284.09448 -93.606664 
L 284.419459 -93.714968 
L 284.744439 -93.830914 
L 285.069419 -93.954867 
L 285.394398 -94.087261 
L 285.719378 -94.22861 
L 286.044357 -94.37953 
L 286.369337 -94.54075 
L 286.694316 -94.713123 
L 287.019296 -94.897606 
L 287.344275 -95.095157 
L 287.669255 -95.306394 
L 287.994234 -95.530516 
L 288.319214 -95.761992 
L 288.644193 -95.980758 
L 288.969173 -96.131385 
L 289.294152 -96.131006 
L 289.619132 -95.977473 
L 289.944111 -95.75351 
L 290.269091 -95.516553 
L 290.59407 -95.287603 
L 290.91905 -95.072446 
L 291.244029 -94.871915 
L 291.569009 -94.685363 
L 291.893989 -94.511792 
L 292.218968 -94.350203 
L 292.543948 -94.199708 
L 292.868927 -94.059547 
L 293.193907 -93.929077 
L 293.518886 -93.807756 
L 293.843866 -93.695129 
L 294.168845 -93.590811 
L 294.493825 -93.494474 
L 294.818804 -93.405839 
L 295.143784 -93.324664 
L 295.468763 -93.250742 
L 295.793743 -93.183892 
L 296.118722 -93.123957 
L 296.443702 -93.070796 
L 296.768681 -93.024288 
L 297.093661 -92.984322 
L 297.41864 -92.950799 
L 297.74362 -92.923632 
L 298.0686 -92.902739 
L 298.393579 -92.888045 
L 298.718559 -92.879483 
L 299.043538 -92.876989 
L 299.368518 -92.880501 
L 299.693497 -92.889964 
L 300.018477 -92.905323 
L 300.343456 -92.926525 
L 300.668436 -92.953517 
L 300.993415 -92.98625 
L 301.318395 -93.024672 
L 301.643374 -93.068733 
L 301.968354 -93.118382 
L 302.293333 -93.173565 
L 302.618313 -93.234229 
L 302.943292 -93.300317 
L 303.268272 -93.37177 
L 303.593251 -93.448527 
L 303.918231 -93.530521 
L 304.24321 -93.617682 
L 304.56819 -93.709933 
L 304.89317 -93.807192 
L 305.218149 -93.909367 
L 305.543129 -94.016356 
L 305.868108 -94.128045 
L 306.193088 -94.244303 
L 306.518067 -94.364982 
L 306.843047 -94.489904 
L 307.168026 -94.618859 
L 307.493006 -94.75159 
L 307.817985 -94.887779 
L 308.142965 -95.027018 
L 308.467944 -95.16878 
L 308.792924 -95.312356 
L 309.117903 -95.456781 
L 309.442883 -95.600709 
L 309.767862 -95.742241 
L 310.092842 -95.878692 
L 310.417821 -96.006342 
L 310.742801 -96.12032 
L 311.067781 -96.214969 
L 311.39276 -96.285094 
L 311.71774 -96.327945 
L 312.042719 -96.344574 
L 312.367699 -96.339058 
L 312.692678 -96.316126 
L 313.017658 -96.279214 
L 313.342637 -96.229936 
L 313.667617 -96.168609 
L 313.992596 -96.095122 
L 314.317576 -96.009608 
L 314.642555 -95.912715 
L 314.967535 -95.805575 
L 315.292514 -95.689622 
L 315.617494 -95.566386 
L 315.942473 -95.437341 
L 316.267453 -95.303816 
L 316.592432 -95.166963 
L 316.917412 -95.027753 
L 317.242391 -94.886997 
L 317.567371 -94.745363 
L 317.892351 -94.603405 
L 318.21733 -94.461579 
L 318.54231 -94.320267 
L 318.867289 -94.179785 
L 319.192269 -94.040401 
L 319.517248 -93.902343 
L 319.842228 -93.765806 
L 320.167207 -93.630955 
L 320.492187 -93.497938 
L 320.817166 -93.366882 
L 321.142146 -93.2379 
L 321.467125 -93.111092 
L 321.792105 -92.986548 
L 322.117084 -92.864349 
L 322.442064 -92.744569 
L 322.767043 -92.627275 
L 323.092023 -92.51253 
L 323.417002 -92.40039 
L 323.741982 -92.290908 
L 324.066962 -92.184134 
L 324.391941 -92.080114 
L 324.716921 -91.978892 
L 325.0419 -91.880509 
L 325.36688 -91.785003 
L 325.691859 -91.692413 
L 326.016839 -91.602772 
L 326.341818 -91.516115 
L 326.666798 -91.432474 
L 326.991777 -91.35188 
L 327.316757 -91.274363 
L 327.641736 -91.199951 
L 327.966716 -91.128672 
L 328.291695 -91.060554 
L 328.616675 -90.995621 
L 328.941654 -90.9339 
L 329.266634 -90.875414 
L 329.591613 -90.820188 
L 329.916593 -90.768245 
L 330.241572 -90.719608 
L 330.566552 -90.674299 
L 330.891532 -90.632339 
L 331.216511 -90.59375 
L 331.541491 -90.558553 
L 331.86647 -90.526768 
L 332.19145 -90.498415 
L 332.516429 -90.473515 
L 332.841409 -90.452086 
L 333.166388 -90.434148 
L 333.491368 -90.41972 
L 333.816347 -90.408821 
L 334.141327 -90.40147 
L 334.466306 -90.397685 
L 334.791286 -90.397484 
L 335.116265 -90.400887 
L 335.441245 -90.407912 
L 335.766224 -90.418577 
L 336.091204 -90.432901 
L 336.416183 -90.450903 
L 336.741163 -90.472601 
L 337.066143 -90.498015 
L 337.391122 -90.527165 
L 337.716102 -90.56007 
L 338.041081 -90.596751 
L 338.366061 -90.637229 
L 338.69104 -90.681526 
L 339.01602 -90.729665 
L 339.340999 -90.781669 
L 339.665979 -90.837563 
L 339.990958 -90.897374 
L 340.315938 -90.961128 
L 340.640917 -91.028856 
L 340.965897 -91.100588 
L 341.290876 -91.176358 
L 341.615856 -91.256204 
L 341.940835 -91.340164 
L 342.265815 -91.428281 
L 342.590794 -91.520604 
L 342.915774 -91.617182 
L 343.240753 -91.718075 
L 343.565733 -91.823346 
L 343.890713 -91.933066 
L 344.215692 -92.047315 
L 344.540672 -92.166182 
L 344.865651 -92.289771 
L 345.190631 -92.418196 
L 345.51561 -92.55159 
L 345.84059 -92.690104 
L 346.165569 -92.833916 
L 346.490549 -92.983228 
L 346.815528 -93.138279 
L 347.140508 -93.299349 
L 347.465487 -93.466766 
L 347.790467 -93.640924 
L 348.115446 -93.82229 
L 348.440426 -94.011425 
L 348.765405 -94.208999 
L 349.090385 -94.415814 
L 349.415364 -94.632806 
L 349.740344 -94.861011 
L 350.065324 -95.1014 
L 350.390303 -95.354294 
L 350.715283 -95.617479 
L 351.040262 -95.880073 
L 351.365242 -96.104709 
L 351.690221 -96.204725 
L 352.015201 -96.11791 
L 352.34018 -95.915585 
L 352.66516 -95.684985 
L 352.990139 -95.461888 
L 353.315119 -95.255999 
L 353.640098 -95.068764 
L 353.965078 -94.899323 
L 354.290057 -94.746311 
L 354.615037 -94.608386 
L 354.940016 -94.484368 
L 355.264996 -94.373262 
L 355.589975 -94.274233 
L 355.914955 -94.186587 
L 356.239934 -94.109748 
L 356.564914 -94.043231 
L 356.889894 -93.986631 
L 357.214873 -93.939611 
L 357.539853 -93.901885 
L 357.864832 -93.873216 
L 358.189812 -93.853407 
L 358.514791 -93.842298 
L 358.839771 -93.839758 
L 359.16475 -93.845687 
L 359.48973 -93.860012 
L 359.814709 -93.882686 
L 360.139689 -93.913687 
L 360.464668 -93.953019 
L 360.789648 -94.000714 
L 361.114627 -94.056831 
L 361.439607 -94.121459 
L 361.764586 -94.194724 
L 362.089566 -94.276787 
L 362.414545 -94.36785 
L 362.739525 -94.468165 
L 363.064505 -94.578034 
L 363.389484 -94.697811 
L 363.714464 -94.8279 
L 364.039443 -94.968729 
L 364.364423 -95.120686 
L 364.689402 -95.28395 
L 365.014382 -95.458076 
L 365.339361 -95.640966 
L 365.664341 -95.82632 
L 365.98932 -95.997868 
L 366.3143 -96.120718 
L 366.639279 -96.1475 
L 366.964259 -96.06436 
L 367.289238 -95.909957 
L 367.614218 -95.727941 
L 367.939197 -95.542196 
L 368.264177 -95.362642 
L 368.589156 -95.192857 
L 368.914136 -95.033858 
L 369.239115 -94.885671 
L 369.564095 -94.747963 
L 369.889075 -94.620299 
L 370.214054 -94.502242 
L 370.539034 -94.393393 
L 370.864013 -94.293401 
L 371.188993 -94.201966 
L 371.513972 -94.118834 
L 371.838952 -94.043792 
L 372.163931 -93.976664 
L 372.488911 -93.917305 
L 372.81389 -93.8656 
L 373.13887 -93.821458 
L 373.463849 -93.78481 
L 373.788829 -93.755609 
L 374.113808 -93.733827 
L 374.438788 -93.719454 
L 374.763767 -93.712497 
L 375.088747 -93.712983 
L 375.413726 -93.720954 
L 375.738706 -93.736473 
L 376.063686 -93.759623 
L 376.388665 -93.790508 
L 376.713645 -93.829257 
L 377.038624 -93.876028 
L 377.363604 -93.931007 
L 377.688583 -93.99442 
L 378.013563 -94.066537 
L 378.338542 -94.147678 
L 378.663522 -94.238228 
L 378.988501 -94.338648 
L 379.313481 -94.449497 
L 379.63846 -94.57145 
L 379.96344 -94.705329 
L 380.288419 -94.852134 
L 380.613399 -95.013072 
L 380.938378 -95.189551 
L 381.263358 -95.383061 
L 381.588337 -95.594611 
L 381.913317 -95.82262 
L 382.238296 -96.055182 
L 382.563276 -96.245397 
L 382.888256 -96.286472 
L 383.213235 -96.13634 
L 383.538215 -95.896354 
L 383.863194 -95.642675 
L 384.188174 -95.399328 
L 384.513153 -95.171485 
L 384.838133 -94.959225 
L 385.163112 -94.761436 
L 385.488092 -94.57687 
L 385.813071 -94.404426 
L 386.138051 -94.243194 
L 386.46303 -94.092443 
L 386.78801 -93.951593 
L 387.112989 -93.820189 
L 387.437969 -93.697877 
L 387.762948 -93.584385 
L 388.087928 -93.479509 
L 388.412907 -93.383103 
L 388.737887 -93.29507 
L 389.062867 -93.215355 
L 389.387846 -93.143941 
L 389.712826 -93.080846 
L 390.037805 -93.026117 
L 390.362785 -92.979836 
L 390.687764 -92.942111 
L 391.012744 -92.913081 
L 391.337723 -92.892916 
L 391.662703 -92.88182 
L 391.987682 -92.88003 
L 392.312662 -92.887823 
L 392.637641 -92.905518 
L 392.962621 -92.933486 
L 393.2876 -92.972151 
L 393.61258 -93.022008 
L 393.937559 -93.083628 
L 394.262539 -93.157682 
L 394.587518 -93.244956 
L 394.912498 -93.346386 
L 395.237477 -93.463092 
L 395.562457 -93.596438 
L 395.887437 -93.7481 
L 396.212416 -93.920184 
L 396.537396 -94.115377 
L 396.862375 -94.337191 
L 397.187355 -94.590316 
L 397.512334 -94.881103 
L 397.837314 -95.217962 
L 398.162293 -95.609418 
L 398.487273 -96.040736 
L 398.487273 -99.770841 
L 398.487273 -99.770841 
L 398.162293 -100.183311 
L 397.837314 -100.556434 
L 397.512334 -100.87548 
L 397.187355 -101.148979 
L 396.862375 -101.385345 
L 396.537396 -101.590937 
L 396.212416 -101.770447 
L 395.887437 -101.927392 
L 395.562457 -102.064464 
L 395.237477 -102.183771 
L 394.912498 -102.286996 
L 394.587518 -102.375503 
L 394.262539 -102.450417 
L 393.937559 -102.512676 
L 393.61258 -102.563068 
L 393.2876 -102.602264 
L 392.962621 -102.630839 
L 392.637641 -102.649286 
L 392.312662 -102.658032 
L 391.987682 -102.657443 
L 391.662703 -102.64784 
L 391.337723 -102.629496 
L 391.012744 -102.602647 
L 390.687764 -102.567491 
L 390.362785 -102.524195 
L 390.037805 -102.472893 
L 389.712826 -102.413687 
L 389.387846 -102.346651 
L 389.062867 -102.271824 
L 388.737887 -102.189217 
L 388.412907 -102.098801 
L 388.087928 -102.000511 
L 387.762948 -101.894237 
L 387.437969 -101.779821 
L 387.112989 -101.657044 
L 386.78801 -101.525619 
L 386.46303 -101.385174 
L 386.138051 -101.235237 
L 385.813071 -101.075209 
L 385.488092 -100.904337 
L 385.163112 -100.721691 
L 384.838133 -100.526144 
L 384.513153 -100.316426 
L 384.188174 -100.091396 
L 383.863194 -99.851107 
L 383.538215 -99.600701 
L 383.213235 -99.364171 
L 382.888256 -99.217648 
L 382.563276 -99.262449 
L 382.238296 -99.456473 
L 381.913317 -99.692892 
L 381.588337 -99.924778 
L 381.263358 -100.140193 
L 380.938378 -100.337532 
L 380.613399 -100.517778 
L 380.288419 -100.682397 
L 379.96344 -100.832777 
L 379.63846 -100.970106 
L 379.313481 -101.095366 
L 378.988501 -101.209363 
L 378.663522 -101.312759 
L 378.338542 -101.406098 
L 378.013563 -101.489833 
L 377.688583 -101.564338 
L 377.363604 -101.629927 
L 377.038624 -101.686861 
L 376.713645 -101.735362 
L 376.388665 -101.775614 
L 376.063686 -101.80777 
L 375.738706 -101.831959 
L 375.413726 -101.848285 
L 375.088747 -101.856832 
L 374.763767 -101.857665 
L 374.438788 -101.85083 
L 374.113808 -101.836357 
L 373.788829 -101.81426 
L 373.463849 -101.784534 
L 373.13887 -101.747158 
L 372.81389 -101.702093 
L 372.488911 -101.649278 
L 372.163931 -101.588632 
L 371.838952 -101.520049 
L 371.513972 -101.443395 
L 371.188993 -101.358505 
L 370.864013 -101.265178 
L 370.539034 -101.163171 
L 370.214054 -101.052196 
L 369.889075 -100.931917 
L 369.564095 -100.801946 
L 369.239115 -100.66186 
L 368.914136 -100.511238 
L 368.589156 -100.349759 
L 368.264177 -100.177465 
L 367.939197 -99.995386 
L 367.614218 -99.807114 
L 367.289238 -99.622583 
L 366.964259 -99.46569 
L 366.639279 -99.380101 
L 366.3143 -99.404486 
L 365.98932 -99.525004 
L 365.664341 -99.694301 
L 365.339361 -99.877496 
L 365.014382 -100.058332 
L 364.689402 -100.230521 
L 364.364423 -100.391977 
L 364.039443 -100.542267 
L 363.714464 -100.681581 
L 363.389484 -100.81032 
L 363.064505 -100.928921 
L 362.739525 -101.037799 
L 362.414545 -101.137319 
L 362.089566 -101.227792 
L 361.764586 -101.309479 
L 361.439607 -101.382593 
L 361.114627 -101.447304 
L 360.789648 -101.503745 
L 360.464668 -101.552014 
L 360.139689 -101.592178 
L 359.814709 -101.624276 
L 359.48973 -101.648319 
L 359.16475 -101.664292 
L 358.839771 -101.672154 
L 358.514791 -101.671838 
L 358.189812 -101.663248 
L 357.864832 -101.646261 
L 357.539853 -101.620719 
L 357.214873 -101.586429 
L 356.889894 -101.543159 
L 356.564914 -101.490626 
L 356.239934 -101.428494 
L 355.914955 -101.356361 
L 355.589975 -101.273746 
L 355.264996 -101.180071 
L 354.940016 -101.074643 
L 354.615037 -100.956629 
L 354.290057 -100.825032 
L 353.965078 -100.678672 
L 353.640098 -100.516206 
L 353.315119 -100.336265 
L 352.990139 -100.137989 
L 352.66516 -99.922818 
L 352.34018 -99.700456 
L 352.015201 -99.506676 
L 351.690221 -99.428706 
L 351.365242 -99.537865 
L 351.040262 -99.771934 
L 350.715283 -100.044245 
L 350.390303 -100.317422 
L 350.065324 -100.580577 
L 349.740344 -100.831487 
L 349.415364 -101.070465 
L 349.090385 -101.298471 
L 348.765405 -101.516533 
L 348.440426 -101.725575 
L 348.115446 -101.926389 
L 347.790467 -102.119634 
L 347.465487 -102.305859 
L 347.140508 -102.48552 
L 346.815528 -102.658997 
L 346.490549 -102.826606 
L 346.165569 -102.988614 
L 345.84059 -103.145246 
L 345.51561 -103.296692 
L 345.190631 -103.443114 
L 344.865651 -103.584649 
L 344.540672 -103.721416 
L 344.215692 -103.853515 
L 343.890713 -103.981032 
L 343.565733 -104.104044 
L 343.240753 -104.222614 
L 342.915774 -104.336797 
L 342.590794 -104.446643 
L 342.265815 -104.552192 
L 341.940835 -104.65348 
L 341.615856 -104.750538 
L 341.290876 -104.843394 
L 340.965897 -104.932071 
L 340.640917 -105.016588 
L 340.315938 -105.096964 
L 339.990958 -105.173212 
L 339.665979 -105.245347 
L 339.340999 -105.31338 
L 339.01602 -105.37732 
L 338.69104 -105.437176 
L 338.366061 -105.492956 
L 338.041081 -105.544665 
L 337.716102 -105.592311 
L 337.391122 -105.635898 
L 337.066143 -105.675431 
L 336.741163 -105.710915 
L 336.416183 -105.742354 
L 336.091204 -105.769751 
L 335.766224 -105.793112 
L 335.441245 -105.812439 
L 335.116265 -105.827738 
L 334.791286 -105.839012 
L 334.466306 -105.846266 
L 334.141327 -105.849505 
L 333.816347 -105.848734 
L 333.491368 -105.843959 
L 333.166388 -105.835186 
L 332.841409 -105.822421 
L 332.516429 -105.805672 
L 332.19145 -105.784947 
L 331.86647 -105.760254 
L 331.541491 -105.731602 
L 331.216511 -105.699001 
L 330.891532 -105.662463 
L 330.566552 -105.621999 
L 330.241572 -105.577621 
L 329.916593 -105.529343 
L 329.591613 -105.477179 
L 329.266634 -105.421146 
L 328.941654 -105.361261 
L 328.616675 -105.29754 
L 328.291695 -105.230005 
L 327.966716 -105.158674 
L 327.641736 -105.083571 
L 327.316757 -105.004719 
L 326.991777 -104.922143 
L 326.666798 -104.83587 
L 326.341818 -104.745928 
L 326.016839 -104.652349 
L 325.691859 -104.555164 
L 325.36688 -104.454409 
L 325.0419 -104.350121 
L 324.716921 -104.242339 
L 324.391941 -104.131107 
L 324.066962 -104.016469 
L 323.741982 -103.898475 
L 323.417002 -103.777176 
L 323.092023 -103.65263 
L 322.767043 -103.524898 
L 322.442064 -103.394046 
L 322.117084 -103.260144 
L 321.792105 -103.123273 
L 321.467125 -102.983517 
L 321.142146 -102.84097 
L 320.817166 -102.695737 
L 320.492187 -102.547931 
L 320.167207 -102.397684 
L 319.842228 -102.245138 
L 319.517248 -102.090458 
L 319.192269 -101.933832 
L 318.867289 -101.775473 
L 318.54231 -101.615631 
L 318.21733 -101.454596 
L 317.892351 -101.292711 
L 317.567371 -101.130379 
L 317.242391 -100.968086 
L 316.917412 -100.806412 
L 316.592432 -100.646055 
L 316.267453 -100.487855 
L 315.942473 -100.332815 
L 315.617494 -100.182121 
L 315.292514 -100.037135 
L 314.967535 -99.899367 
L 314.642555 -99.770384 
L 314.317576 -99.651658 
L 313.992596 -99.544362 
L 313.667617 -99.449184 
L 313.342637 -99.366301 
L 313.017658 -99.295645 
L 312.692678 -99.237579 
L 312.367699 -99.193761 
L 312.042719 -99.167672 
L 311.71774 -99.164084 
L 311.39276 -99.187113 
L 311.067781 -99.237846 
L 310.742801 -99.31357 
L 310.417821 -99.409124 
L 310.092842 -99.518878 
L 309.767862 -99.63799 
L 309.442883 -99.762768 
L 309.117903 -99.89055 
L 308.792924 -100.019459 
L 308.467944 -100.14817 
L 308.142965 -100.275734 
L 307.817985 -100.401463 
L 307.493006 -100.52484 
L 307.168026 -100.645473 
L 306.843047 -100.763054 
L 306.518067 -100.877336 
L 306.193088 -100.988115 
L 305.868108 -101.095222 
L 305.543129 -101.198511 
L 305.218149 -101.297856 
L 304.89317 -101.393143 
L 304.56819 -101.484272 
L 304.24321 -101.571149 
L 303.918231 -101.653688 
L 303.593251 -101.73181 
L 303.268272 -101.805439 
L 302.943292 -101.874501 
L 302.618313 -101.938928 
L 302.293333 -101.998652 
L 301.968354 -102.053607 
L 301.643374 -102.103726 
L 301.318395 -102.148947 
L 300.993415 -102.189203 
L 300.668436 -102.224431 
L 300.343456 -102.254564 
L 300.018477 -102.279536 
L 299.693497 -102.299279 
L 299.368518 -102.313722 
L 299.043538 -102.322792 
L 298.718559 -102.326413 
L 298.393579 -102.324506 
L 298.0686 -102.316987 
L 297.74362 -102.303765 
L 297.41864 -102.284746 
L 297.093661 -102.259827 
L 296.768681 -102.228895 
L 296.443702 -102.191831 
L 296.118722 -102.1485 
L 295.793743 -102.098757 
L 295.468763 -102.042439 
L 295.143784 -101.979362 
L 294.818804 -101.909323 
L 294.493825 -101.832088 
L 294.168845 -101.747392 
L 293.843866 -101.654931 
L 293.518886 -101.554351 
L 293.193907 -101.445244 
L 292.868927 -101.327127 
L 292.543948 -101.199436 
L 292.218968 -101.061502 
L 291.893989 -100.912539 
L 291.569009 -100.751636 
L 291.244029 -100.57777 
L 290.91905 -100.389917 
L 290.59407 -100.187408 
L 290.269091 -99.971052 
L 289.944111 -99.746611 
L 289.619132 -99.535065 
L 289.294152 -99.393827 
L 288.969173 -99.405598 
L 288.644193 -99.568209 
L 288.319214 -99.798774 
L 287.994234 -100.041844 
L 287.669255 -100.277333 
L 287.344275 -100.499692 
L 287.019296 -100.708103 
L 286.694316 -100.903164 
L 286.369337 -101.085818 
L 286.044357 -101.257004 
L 285.719378 -101.417558 
L 285.394398 -101.568196 
L 285.069419 -101.709516 
L 284.744439 -101.842021 
L 284.419459 -101.966129 
L 284.09448 -102.082194 
L 283.7695 -102.190507 
L 283.444521 -102.291319 
L 283.119541 -102.384837 
L 282.794562 -102.471238 
L 282.469582 -102.550672 
L 282.144603 -102.623265 
L 281.819623 -102.689123 
L 281.494644 -102.748335 
L 281.169664 -102.800977 
L 280.844685 -102.84711 
L 280.519705 -102.886784 
L 280.194726 -102.920039 
L 279.869746 -102.946907 
L 279.544767 -102.967408 
L 279.219787 -102.981558 
L 278.894808 -102.989362 
L 278.569828 -102.990821 
L 278.244848 -102.985925 
L 277.919869 -102.974659 
L 277.594889 -102.957001 
L 277.26991 -102.932918 
L 276.94493 -102.902373 
L 276.619951 -102.865316 
L 276.294971 -102.821689 
L 275.969992 -102.771424 
L 275.645012 -102.714438 
L 275.320033 -102.650637 
L 274.995053 -102.579908 
L 274.670074 -102.502122 
L 274.345094 -102.417126 
L 274.020115 -102.324742 
L 273.695135 -102.224764 
L 273.370156 -102.116946 
L 273.045176 -102.001001 
L 272.720197 -101.876588 
L 272.395217 -101.743301 
L 272.070238 -101.600657 
L 271.745258 -101.448074 
L 271.420278 -101.284855 
L 271.095299 -101.110162 
L 270.770319 -100.922998 
L 270.44534 -100.722216 
L 270.12036 -100.506608 
L 269.795381 -100.275265 
L 269.470401 -100.028794 
L 269.145422 -99.773366 
L 268.820442 -99.533514 
L 268.495463 -99.379394 
L 268.170483 -99.404268 
L 267.845504 -99.584085 
L 267.520524 -99.820778 
L 267.195545 -100.061731 
L 266.870565 -100.290663 
L 266.545586 -100.503991 
L 266.220606 -100.70185 
L 265.895627 -100.88533 
L 265.570647 -101.055655 
L 265.245667 -101.213937 
L 264.920688 -101.361132 
L 264.595708 -101.498036 
L 264.270729 -101.625313 
L 263.945749 -101.743513 
L 263.62077 -101.853096 
L 263.29579 -101.954442 
L 262.970811 -102.047872 
L 262.645831 -102.13365 
L 262.320852 -102.212002 
L 261.995872 -102.283111 
L 261.670893 -102.347133 
L 261.345913 -102.404193 
L 261.020934 -102.454393 
L 260.695954 -102.497813 
L 260.370975 -102.534512 
L 260.045995 -102.564532 
L 259.721016 -102.587898 
L 259.396036 -102.604616 
L 259.071057 -102.614678 
L 258.746077 -102.618058 
L 258.421097 -102.614713 
L 258.096118 -102.604585 
L 257.771138 -102.587594 
L 257.446159 -102.563642 
L 257.121179 -102.532609 
L 256.7962 -102.49435 
L 256.47122 -102.448693 
L 256.146241 -102.395433 
L 255.821261 -102.33433 
L 255.496282 -102.265101 
L 255.171302 -102.187411 
L 254.846323 -102.100864 
L 254.521343 -102.00499 
L 254.196364 -101.899227 
L 253.871384 -101.782899 
L 253.546405 -101.655183 
L 253.221425 -101.515067 
L 252.896446 -101.361293 
L 252.571466 -101.192273 
L 252.246486 -101.00597 
L 251.921507 -100.79973 
L 251.596527 -100.570065 
L 251.271548 -100.312447 
L 250.946568 -100.021635 
L 250.621589 -99.695813 
L 250.296609 -99.36622 
L 249.97163 -99.230474 
L 249.64665 -99.489216 
L 249.321671 -99.881443 
L 248.996691 -100.263421 
L 248.671712 -100.616748 
L 248.346732 -100.944047 
L 248.021753 -101.249852 
L 247.696773 -101.537956 
L 247.371794 -101.811259 
L 247.046814 -102.071953 
L 246.721835 -102.32171 
L 246.396855 -102.561827 
L 246.071876 -102.793324 
L 245.746896 -103.017012 
L 245.421916 -103.233548 
L 245.096937 -103.443464 
L 244.771957 -103.647201 
L 244.446978 -103.845125 
L 244.121998 -104.03754 
L 243.797019 -104.224702 
L 243.472039 -104.406828 
L 243.14706 -104.584102 
L 242.82208 -104.756682 
L 242.497101 -104.924699 
L 242.172121 -105.08827 
L 241.847142 -105.247493 
L 241.522162 -105.402451 
L 241.197183 -105.553217 
L 240.872203 -105.699853 
L 240.547224 -105.842413 
L 240.222244 -105.980941 
L 239.897265 -106.115477 
L 239.572285 -106.246054 
L 239.247305 -106.3727 
L 238.922326 -106.495438 
L 238.597346 -106.614288 
L 238.272367 -106.729266 
L 237.947387 -106.840386 
L 237.622408 -106.947658 
L 237.297428 -107.051091 
L 236.972449 -107.15069 
L 236.647469 -107.246462 
L 236.32249 -107.338408 
L 235.99751 -107.426531 
L 235.672531 -107.510831 
L 235.347551 -107.591309 
L 235.022572 -107.667962 
L 234.697592 -107.740791 
L 234.372613 -107.809791 
L 234.047633 -107.87496 
L 233.722654 -107.936296 
L 233.397674 -107.993795 
L 233.072695 -108.047454 
L 232.747715 -108.097268 
L 232.422735 -108.143235 
L 232.097756 -108.185351 
L 231.772776 -108.223613 
L 231.447797 -108.258017 
L 231.122817 -108.28856 
L 230.797838 -108.31524 
L 230.472858 -108.338054 
L 230.147879 -108.357001 
L 229.822899 -108.372079 
L 229.49792 -108.383287 
L 229.17294 -108.390625 
L 228.847961 -108.394092 
L 228.522981 -108.39369 
L 228.198002 -108.389419 
L 227.873022 -108.381283 
L 227.548043 -108.369282 
L 227.223063 -108.353422 
L 226.898084 -108.333706 
L 226.573104 -108.310139 
L 226.248124 -108.282727 
L 225.923145 -108.251477 
L 225.598165 -108.216397 
L 225.273186 -108.177495 
L 224.948206 -108.134781 
L 224.623227 -108.088266 
L 224.298247 -108.037961 
L 223.973268 -107.98388 
L 223.648288 -107.926035 
L 223.323309 -107.864442 
L 222.998329 -107.799117 
L 222.67335 -107.730078 
L 222.34837 -107.657344 
L 222.023391 -107.580933 
L 221.698411 -107.500867 
L 221.373432 -107.41717 
L 221.048452 -107.329865 
L 220.723473 -107.238977 
L 220.398493 -107.144533 
L 220.073514 -107.046563 
L 219.748534 -106.945095 
L 219.423554 -106.840161 
L 219.098575 -106.731796 
L 218.773595 -106.620033 
L 218.448616 -106.504909 
L 218.123636 -106.386464 
L 217.798657 -106.264737 
L 217.473677 -106.139772 
L 217.148698 -106.011611 
L 216.823718 -105.880303 
L 216.498739 -105.745896 
L 216.173759 -105.60844 
L 215.84878 -105.46799 
L 215.5238 -105.324601 
L 215.198821 -105.178331 
L 214.873841 -105.029241 
L 214.548862 -104.877396 
L 214.223882 -104.722862 
L 213.898903 -104.56571 
L 213.573923 -104.406013 
L 213.248943 -104.243848 
L 212.923964 -104.079296 
L 212.598984 -103.912443 
L 212.274005 -103.743377 
L 211.949025 -103.572193 
L 211.624046 -103.398993 
L 211.299066 -103.223881 
L 210.974087 -103.046972 
L 210.649107 -102.868386 
L 210.324128 -102.688254 
L 209.999148 -102.506717 
L 209.674169 -102.323927 
L 209.349189 -102.140055 
L 209.02421 -101.955288 
L 208.69923 -101.769836 
L 208.374251 -101.583941 
L 208.049271 -101.397881 
L 207.724292 -101.211987 
L 207.399312 -101.026653 
L 207.074333 -100.842366 
L 206.749353 -100.659735 
L 206.424373 -100.479541 
L 206.099394 -100.302796 
L 205.774414 -100.130837 
L 205.449435 -99.965425 
L 205.124455 -99.808863 
L 204.799476 -99.664054 
L 204.474496 -99.5344 
L 204.149517 -99.423366 
L 203.824537 -99.33361 
L 203.499558 -99.265882 
L 203.174578 -99.218395 
L 202.849599 -99.187221 
L 202.524619 -99.167575 
L 202.19964 -99.1551 
L 201.87466 -99.146566 
L 201.549681 -99.139953 
L 201.224701 -99.134197 
L 200.899722 -99.128839 
L 200.574742 -99.123708 
L 200.249762 -99.118725 
L 199.924783 -99.113812 
L 199.599803 -99.108884 
L 199.274824 -99.103868 
L 198.949844 -99.098726 
L 198.624865 -99.093496 
L 198.299885 -99.08831 
L 197.974906 -99.083371 
L 197.649926 -99.078887 
L 197.324947 -99.075001 
L 196.999967 -99.071743 
L 196.674988 -99.069073 
L 196.350008 -99.066949 
L 196.025029 -99.065431 
L 195.700049 -99.06473 
L 195.37507 -99.065133 
L 195.05009 -99.066854 
L 194.725111 -99.069947 
L 194.400131 -99.074289 
L 194.075152 -99.079637 
L 193.750172 -99.085736 
L 193.425192 -99.092403 
L 193.100213 -99.099537 
L 192.775233 -99.107052 
L 192.450254 -99.114807 
L 192.125274 -99.122569 
L 191.800295 -99.130018 
L 191.475315 -99.136784 
L 191.150336 -99.142514 
L 190.825356 -99.14693 
L 190.500377 -99.149874 
L 190.175397 -99.151329 
L 189.850418 -99.151409 
L 189.525438 -99.150354 
L 189.200459 -99.148508 
L 188.875479 -99.146282 
L 188.5505 -99.144128 
L 188.22552 -99.142555 
L 187.900541 -99.142204 
L 187.575561 -99.143964 
L 187.250581 -99.149043 
L 186.925602 -99.158964 
L 186.600622 -99.175433 
L 186.275643 -99.200063 
L 185.950663 -99.234008 
L 185.625684 -99.277656 
L 185.300704 -99.330524 
L 184.975725 -99.391388 
L 184.650745 -99.458568 
L 184.325766 -99.530213 
L 184.000786 -99.60452 
L 183.675807 -99.679862 
L 183.350827 -99.754832 
L 183.025848 -99.828249 
L 182.700868 -99.899136 
L 182.375889 -99.966686 
L 182.050909 -100.030235 
L 181.72593 -100.089237 
L 181.40095 -100.143236 
L 181.075971 -100.191856 
L 180.750991 -100.23478 
L 180.426011 -100.271746 
L 180.101032 -100.302534 
L 179.776052 -100.326965 
L 179.451073 -100.344894 
L 179.126093 -100.356208 
L 178.801114 -100.360824 
L 178.476134 -100.358691 
L 178.151155 -100.349788 
L 177.826175 -100.334126 
L 177.501196 -100.311752 
L 177.176216 -100.282755 
L 176.851237 -100.247267 
L 176.526257 -100.205474 
L 176.201278 -100.157629 
L 175.876298 -100.104062 
L 175.551319 -100.045201 
L 175.226339 -99.981597 
L 174.90136 -99.913952 
L 174.57638 -99.843161 
L 174.2514 -99.770347 
L 173.926421 -99.696905 
L 173.601441 -99.624523 
L 173.276462 -99.555168 
L 172.951482 -99.490983 
L 172.626503 -99.434077 
L 172.301523 -99.386196 
L 171.976544 -99.348334 
L 171.651564 -99.320463 
L 171.326585 -99.301548 
L 171.001605 -99.289842 
L 170.676626 -99.283291 
L 170.351646 -99.279903 
L 170.026667 -99.277976 
L 169.701687 -99.27621 
L 169.376708 -99.273739 
L 169.051728 -99.270186 
L 168.726749 -99.265799 
L 168.401769 -99.261616 
L 168.07679 -99.259637 
L 167.75181 -99.262913 
L 167.42683 -99.275369 
L 167.101851 -99.301214 
L 166.776871 -99.343925 
L 166.451892 -99.405213 
L 166.126912 -99.484612 
L 165.801933 -99.579899 
L 165.476953 -99.687967 
L 165.151974 -99.80561 
L 164.826994 -99.929979 
L 164.502015 -100.058746 
L 164.177035 -100.19009 
L 163.852056 -100.322619 
L 163.527076 -100.455269 
L 163.202097 -100.587229 
L 162.877117 -100.717873 
L 162.552138 -100.846712 
L 162.227158 -100.973358 
L 161.902179 -101.097498 
L 161.577199 -101.218877 
L 161.252219 -101.337283 
L 160.92724 -101.45254 
L 160.60226 -101.564496 
L 160.277281 -101.673023 
L 159.952301 -101.778009 
L 159.627322 -101.879358 
L 159.302342 -101.976984 
L 158.977363 -102.070813 
L 158.652383 -102.160779 
L 158.327404 -102.246825 
L 158.002424 -102.328899 
L 157.677445 -102.406957 
L 157.352465 -102.480959 
L 157.027486 -102.55087 
L 156.702506 -102.616662 
L 156.377527 -102.678307 
L 156.052547 -102.735783 
L 155.727568 -102.789073 
L 155.402588 -102.838159 
L 155.077609 -102.883031 
L 154.752629 -102.923678 
L 154.427649 -102.960093 
L 154.10267 -102.992271 
L 153.77769 -103.020211 
L 153.452711 -103.04391 
L 153.127731 -103.063372 
L 152.802752 -103.078599 
L 152.477772 -103.089596 
L 152.152793 -103.09637 
L 151.827813 -103.098929 
L 151.502834 -103.097281 
L 151.177854 -103.091438 
L 150.852875 -103.081411 
L 150.527895 -103.067211 
L 150.202916 -103.048853 
L 149.877936 -103.02635 
L 149.552957 -102.999718 
L 149.227977 -102.96897 
L 148.902998 -102.934123 
L 148.578018 -102.895193 
L 148.253038 -102.852195 
L 147.928059 -102.805147 
L 147.603079 -102.754063 
L 147.2781 -102.698961 
L 146.95312 -102.639857 
L 146.628141 -102.576765 
L 146.303161 -102.509702 
L 145.978182 -102.438681 
L 145.653202 -102.363717 
L 145.328223 -102.284824 
L 145.003243 -102.202014 
L 144.678264 -102.115299 
L 144.353284 -102.024689 
L 144.028305 -101.930195 
L 143.703325 -101.831827 
L 143.378346 -101.729594 
L 143.053366 -101.623505 
L 142.728387 -101.513572 
L 142.403407 -101.399806 
L 142.078428 -101.282225 
L 141.753448 -101.160855 
L 141.428468 -101.035734 
L 141.103489 -100.906923 
L 140.778509 -100.774515 
L 140.45353 -100.638662 
L 140.12855 -100.499606 
L 139.803571 -100.357734 
L 139.478591 -100.213676 
L 139.153612 -100.068455 
L 138.828632 -99.923749 
L 138.503653 -99.78229 
L 138.178673 -99.648453 
L 137.853694 -99.528889 
L 137.528714 -99.432598 
L 137.203735 -99.369148 
L 136.878755 -99.34425 
L 136.553776 -99.355467 
L 136.228796 -99.392969 
L 135.903817 -99.444694 
L 135.578837 -99.500608 
L 135.253857 -99.553916 
L 134.928878 -99.600515 
L 134.603898 -99.638118 
L 134.278919 -99.665559 
L 133.953939 -99.682355 
L 133.62896 -99.688453 
L 133.30398 -99.684101 
L 132.979001 -99.669778 
L 132.654021 -99.646192 
L 132.329042 -99.614295 
L 132.004062 -99.575328 
L 131.679083 -99.530882 
L 131.354103 -99.482957 
L 131.029124 -99.433992 
L 130.704144 -99.386804 
L 130.379165 -99.344391 
L 130.054185 -99.309516 
L 129.729206 -99.284155 
L 129.404226 -99.268971 
L 129.079247 -99.263096 
L 128.754267 -99.264395 
L 128.429287 -99.270025 
L 128.104308 -99.277013 
L 127.779328 -99.282641 
L 127.454349 -99.284641 
L 127.129369 -99.28124 
L 126.80439 -99.271165 
L 126.47941 -99.25368 
L 126.154431 -99.228742 
L 125.829451 -99.197423 
L 125.504472 -99.162833 
L 125.179492 -99.131899 
L 124.854513 -99.117902 
L 124.529533 -99.141355 
L 124.204554 -99.222864 
L 123.879574 -99.368829 
L 123.554595 -99.56824 
L 123.229615 -99.80463 
L 122.904636 -100.065381 
L 122.579656 -100.343029 
L 122.254676 -100.633637 
L 121.929697 -100.935261 
L 121.604717 -101.247025 
L 121.279738 -101.568613 
L 120.954758 -101.900006 
L 120.629779 -102.241343 
L 120.304799 -102.592845 
L 119.97982 -102.954774 
L 119.65484 -103.327411 
L 119.329861 -103.711044 
L 119.004881 -104.105961 
L 118.679902 -104.512443 
L 118.354922 -104.930767 
L 118.029943 -105.361199 
L 117.704963 -105.803999 
L 117.379984 -106.259417 
L 117.055004 -106.727693 
L 116.730025 -107.209062 
L 116.405045 -107.703746 
L 116.080066 -108.211963 
L 115.755086 -108.73392 
L 115.430106 -109.269817 
L 115.105127 -109.819847 
L 114.780147 -110.384195 
L 114.455168 -110.963037 
L 114.130188 -111.556544 
L 113.805209 -112.164881 
L 113.480229 -112.788201 
L 113.15525 -113.426656 
L 112.83027 -114.080388 
L 112.505291 -114.749533 
L 112.180311 -115.434221 
L 111.855332 -116.134574 
L 111.530352 -116.850711 
L 111.205373 -117.582741 
L 110.880393 -118.330768 
L 110.555414 -119.094892 
L 110.230434 -119.875204 
L 109.905455 -120.671792 
L 109.580475 -121.484735 
L 109.255495 -122.314107 
L 108.930516 -123.159979 
L 108.605536 -124.022413 
L 108.280557 -124.901467 
L 107.955577 -125.797193 
L 107.630598 -126.709637 
L 107.305618 -127.63884 
L 106.980639 -128.584838 
L 106.655659 -129.547661 
L 106.33068 -130.527334 
L 106.0057 -131.523878 
L 105.680721 -132.537305 
L 105.355741 -133.567626 
L 105.030762 -134.614846 
L 104.705782 -135.678962 
L 104.380803 -136.759971 
L 104.055823 -137.85786 
L 103.730844 -138.972615 
L 103.405864 -140.104215 
L 103.080885 -141.252634 
L 102.755905 -142.417844 
L 102.430925 -143.599809 
L 102.105946 -144.79849 
L 101.780966 -146.013843 
L 101.455987 -147.24582 
L 101.131007 -148.494367 
L 100.806028 -149.759428 
L 100.481048 -151.04094 
L 100.156069 -152.338836 
L 99.831089 -153.653046 
L 99.50611 -154.983496 
L 99.18113 -156.330105 
L 98.856151 -157.692789 
L 98.531171 -159.071461 
L 98.206192 -160.466029 
L 97.881212 -161.876396 
L 97.556233 -163.302462 
L 97.231253 -164.744122 
L 96.906274 -166.201266 
L 96.581294 -167.673783 
L 96.256314 -169.161555 
L 95.931335 -170.664461 
L 95.606355 -172.182375 
L 95.281376 -173.715169 
L 94.956396 -175.262708 
L 94.631417 -176.824856 
L 94.306437 -178.401471 
L 93.981458 -179.992407 
L 93.656478 -181.597514 
L 93.331499 -183.216639 
L 93.006519 -184.849622 
L 92.68154 -186.496303 
L 92.35656 -188.156513 
L 92.031581 -189.830083 
L 91.706601 -191.516836 
L 91.381622 -193.216594 
L 91.056642 -194.929171 
L 90.731663 -196.654379 
L 90.406683 -198.392023 
L 90.081704 -200.141906 
L 89.756724 -201.903823 
L 89.431744 -203.677566 
L 89.106765 -205.462921 
L 88.781785 -207.259668 
L 88.456806 -209.06758 
L 88.131826 -210.886428 
L 87.806847 -212.715972 
L 87.481867 -214.555968 
L 87.156888 -216.406165 
L 86.831908 -218.266303 
L 86.506929 -220.136115 
L 86.181949 -222.015326 
L 85.85697 -223.903651 
L 85.53199 -225.800796 
L 85.207011 -227.706455 
L 84.882031 -229.620313 
L 84.557052 -231.542041 
L 84.232072 -233.471296 
L 83.907093 -235.407722 
L 83.582113 -237.350944 
L 83.257133 -239.300571 
L 82.932154 -241.256191 
L 82.607174 -243.217369 
L 82.282195 -245.183644 
L 81.957215 -247.154528 
L 81.632236 -249.1295 
L 81.307256 -251.107999 
L 80.982277 -253.089425 
L 80.657297 -255.073124 
L 80.332318 -257.058388 
L 80.007338 -259.044439 
L 79.682359 -261.030416 
L 79.357379 -263.015365 
L 79.0324 -264.998212 
L 78.70742 -266.977742 
L 78.382441 -268.952562 
L 78.057461 -270.921057 
L 77.732482 -272.881326 
L 77.407502 -274.831101 
L 77.082523 -276.767621 
L 76.757543 -278.687455 
L 76.432563 -280.586228 
L 76.107584 -282.458188 
L 75.782604 -284.295469 
L 75.457625 -286.08677 
L 75.132645 -287.81474 
L 74.807666 -289.450125 
L 74.482686 -290.936255 
L 74.157707 -292.142552 
L 73.832727 -293.892923 
z
" id="mac71cd1822" style="stroke:#3a9679;stroke-opacity:0.4;"/>
    </defs>
    <g clip-path="url(#p3a7777588c)">
     <use style="fill:#3a9679;fill-opacity:0.4;stroke:#3a9679;stroke-opacity:0.4;" x="0" xlink:href="#mac71cd1822" y="345.6"/>
    </g>
   </g>
   <g id="matplotlib.axis_1">
    <g id="xtick_1">
     <g id="line2d_1">
      <defs>
       <path d="M 0 0 
L 0 3.5 
" id="m9b1b621d96" style="stroke:#000000;stroke-width:0.8;"/>
      </defs>
      <g>
       <use style="stroke:#000000;stroke-width:0.8;" x="73.832727" xlink:href="#m9b1b621d96" y="307.584"/>
      </g>
     </g>
     <g id="text_1">
      <!-- 0.0 -->
      <defs>
       <path d="M 31.78125 66.40625 
Q 24.171875 66.40625 20.328125 58.90625 
Q 16.5 51.421875 16.5 36.375 
Q 16.5 21.390625 20.328125 13.890625 
Q 24.171875 6.390625 31.78125 6.390625 
Q 39.453125 6.390625 43.28125 13.890625 
Q 47.125 21.390625 47.125 36.375 
Q 47.125 51.421875 43.28125 58.90625 
Q 39.453125 66.40625 31.78125 66.40625 
z
M 31.78125 74.21875 
Q 44.046875 74.21875 50.515625 64.515625 
Q 56.984375 54.828125 56.984375 36.375 
Q 56.984375 17.96875 50.515625 8.265625 
Q 44.046875 -1.421875 31.78125 -1.421875 
Q 19.53125 -1.421875 13.0625 8.265625 
Q 6.59375 17.96875 6.59375 36.375 
Q 6.59375 54.828125 13.0625 64.515625 
Q 19.53125 74.21875 31.78125 74.21875 
z
" id="DejaVuSans-48"/>
       <path d="M 10.6875 12.40625 
L 21 12.40625 
L 21 0 
L 10.6875 0 
z
" id="DejaVuSans-46"/>
      </defs>
      <g transform="translate(65.881165 322.182437)scale(0.1 -0.1)">
       <use xlink:href="#DejaVuSans-48"/>
       <use x="63.623047" xlink:href="#DejaVuSans-46"/>
       <use x="95.410156" xlink:href="#DejaVuSans-48"/>
      </g>
     </g>
    </g>
    <g id="xtick_2">
     <g id="line2d_2">
      <g>
       <use style="stroke:#000000;stroke-width:0.8;" x="138.828632" xlink:href="#m9b1b621d96" y="307.584"/>
      </g>
     </g>
     <g id="text_2">
      <!-- 0.2 -->
      <defs>
       <path d="M 19.1875 8.296875 
L 53.609375 8.296875 
L 53.609375 0 
L 7.328125 0 
L 7.328125 8.296875 
Q 12.9375 14.109375 22.625 23.890625 
Q 32.328125 33.6875 34.8125 36.53125 
Q 39.546875 41.84375 41.421875 45.53125 
Q 43.3125 49.21875 43.3125 52.78125 
Q 43.3125 58.59375 39.234375 62.25 
Q 35.15625 65.921875 28.609375 65.921875 
Q 23.96875 65.921875 18.8125 64.3125 
Q 13.671875 62.703125 7.8125 59.421875 
L 7.8125 69.390625 
Q 13.765625 71.78125 18.9375 73 
Q 24.125 74.21875 28.421875 74.21875 
Q 39.75 74.21875 46.484375 68.546875 
Q 53.21875 62.890625 53.21875 53.421875 
Q 53.21875 48.921875 51.53125 44.890625 
Q 49.859375 40.875 45.40625 35.40625 
Q 44.1875 33.984375 37.640625 27.21875 
Q 31.109375 20.453125 19.1875 8.296875 
z
" id="DejaVuSans-50"/>
      </defs>
      <g transform="translate(130.87707 322.182437)scale(0.1 -0.1)">
       <use xlink:href="#DejaVuSans-48"/>
       <use x="63.623047" xlink:href="#DejaVuSans-46"/>
       <use x="95.410156" xlink:href="#DejaVuSans-50"/>
      </g>
     </g>
    </g>
    <g id="xtick_3">
     <g id="line2d_3">
      <g>
       <use style="stroke:#000000;stroke-width:0.8;" x="203.824537" xlink:href="#m9b1b621d96" y="307.584"/>
      </g>
     </g>
     <g id="text_3">
      <!-- 0.4 -->
      <defs>
       <path d="M 37.796875 64.3125 
L 12.890625 25.390625 
L 37.796875 25.390625 
z
M 35.203125 72.90625 
L 47.609375 72.90625 
L 47.609375 25.390625 
L 58.015625 25.390625 
L 58.015625 17.1875 
L 47.609375 17.1875 
L 47.609375 0 
L 37.796875 0 
L 37.796875 17.1875 
L 4.890625 17.1875 
L 4.890625 26.703125 
z
" id="DejaVuSans-52"/>
      </defs>
      <g transform="translate(195.872975 322.182437)scale(0.1 -0.1)">
       <use xlink:href="#DejaVuSans-48"/>
       <use x="63.623047" xlink:href="#DejaVuSans-46"/>
       <use x="95.410156" xlink:href="#DejaVuSans-52"/>
      </g>
     </g>
    </g>
    <g id="xtick_4">
     <g id="line2d_4">
      <g>
       <use style="stroke:#000000;stroke-width:0.8;" x="268.820442" xlink:href="#m9b1b621d96" y="307.584"/>
      </g>
     </g>
     <g id="text_4">
      <!-- 0.6 -->
      <defs>
       <path d="M 33.015625 40.375 
Q 26.375 40.375 22.484375 35.828125 
Q 18.609375 31.296875 18.609375 23.390625 
Q 18.609375 15.53125 22.484375 10.953125 
Q 26.375 6.390625 33.015625 6.390625 
Q 39.65625 6.390625 43.53125 10.953125 
Q 47.40625 15.53125 47.40625 23.390625 
Q 47.40625 31.296875 43.53125 35.828125 
Q 39.65625 40.375 33.015625 40.375 
z
M 52.59375 71.296875 
L 52.59375 62.3125 
Q 48.875 64.0625 45.09375 64.984375 
Q 41.3125 65.921875 37.59375 65.921875 
Q 27.828125 65.921875 22.671875 59.328125 
Q 17.53125 52.734375 16.796875 39.40625 
Q 19.671875 43.65625 24.015625 45.921875 
Q 28.375 48.1875 33.59375 48.1875 
Q 44.578125 48.1875 50.953125 41.515625 
Q 57.328125 34.859375 57.328125 23.390625 
Q 57.328125 12.15625 50.6875 5.359375 
Q 44.046875 -1.421875 33.015625 -1.421875 
Q 20.359375 -1.421875 13.671875 8.265625 
Q 6.984375 17.96875 6.984375 36.375 
Q 6.984375 53.65625 15.1875 63.9375 
Q 23.390625 74.21875 37.203125 74.21875 
Q 40.921875 74.21875 44.703125 73.484375 
Q 48.484375 72.75 52.59375 71.296875 
z
" id="DejaVuSans-54"/>
      </defs>
      <g transform="translate(260.86888 322.182437)scale(0.1 -0.1)">
       <use xlink:href="#DejaVuSans-48"/>
       <use x="63.623047" xlink:href="#DejaVuSans-46"/>
       <use x="95.410156" xlink:href="#DejaVuSans-54"/>
      </g>
     </g>
    </g>
    <g id="xtick_5">
     <g id="line2d_5">
      <g>
       <use style="stroke:#000000;stroke-width:0.8;" x="333.816347" xlink:href="#m9b1b621d96" y="307.584"/>
      </g>
     </g>
     <g id="text_5">
      <!-- 0.8 -->
      <defs>
       <path d="M 31.78125 34.625 
Q 24.75 34.625 20.71875 30.859375 
Q 16.703125 27.09375 16.703125 20.515625 
Q 16.703125 13.921875 20.71875 10.15625 
Q 24.75 6.390625 31.78125 6.390625 
Q 38.8125 6.390625 42.859375 10.171875 
Q 46.921875 13.96875 46.921875 20.515625 
Q 46.921875 27.09375 42.890625 30.859375 
Q 38.875 34.625 31.78125 34.625 
z
M 21.921875 38.8125 
Q 15.578125 40.375 12.03125 44.71875 
Q 8.5 49.078125 8.5 55.328125 
Q 8.5 64.0625 14.71875 69.140625 
Q 20.953125 74.21875 31.78125 74.21875 
Q 42.671875 74.21875 48.875 69.140625 
Q 55.078125 64.0625 55.078125 55.328125 
Q 55.078125 49.078125 51.53125 44.71875 
Q 48 40.375 41.703125 38.8125 
Q 48.828125 37.15625 52.796875 32.3125 
Q 56.78125 27.484375 56.78125 20.515625 
Q 56.78125 9.90625 50.3125 4.234375 
Q 43.84375 -1.421875 31.78125 -1.421875 
Q 19.734375 -1.421875 13.25 4.234375 
Q 6.78125 9.90625 6.78125 20.515625 
Q 6.78125 27.484375 10.78125 32.3125 
Q 14.796875 37.15625 21.921875 38.8125 
z
M 18.3125 54.390625 
Q 18.3125 48.734375 21.84375 45.5625 
Q 25.390625 42.390625 31.78125 42.390625 
Q 38.140625 42.390625 41.71875 45.5625 
Q 45.3125 48.734375 45.3125 54.390625 
Q 45.3125 60.0625 41.71875 63.234375 
Q 38.140625 66.40625 31.78125 66.40625 
Q 25.390625 66.40625 21.84375 63.234375 
Q 18.3125 60.0625 18.3125 54.390625 
z
" id="DejaVuSans-56"/>
      </defs>
      <g transform="translate(325.864785 322.182437)scale(0.1 -0.1)">
       <use xlink:href="#DejaVuSans-48"/>
       <use x="63.623047" xlink:href="#DejaVuSans-46"/>
       <use x="95.410156" xlink:href="#DejaVuSans-56"/>
      </g>
     </g>
    </g>
    <g id="xtick_6">
     <g id="line2d_6">
      <g>
       <use style="stroke:#000000;stroke-width:0.8;" x="398.812252" xlink:href="#m9b1b621d96" y="307.584"/>
      </g>
     </g>
     <g id="text_6">
      <!-- 1.0 -->
      <defs>
       <path d="M 12.40625 8.296875 
L 28.515625 8.296875 
L 28.515625 63.921875 
L 10.984375 60.40625 
L 10.984375 69.390625 
L 28.421875 72.90625 
L 38.28125 72.90625 
L 38.28125 8.296875 
L 54.390625 8.296875 
L 54.390625 0 
L 12.40625 0 
z
" id="DejaVuSans-49"/>
      </defs>
      <g transform="translate(390.86069 322.182437)scale(0.1 -0.1)">
       <use xlink:href="#DejaVuSans-49"/>
       <use x="63.623047" xlink:href="#DejaVuSans-46"/>
       <use x="95.410156" xlink:href="#DejaVuSans-48"/>
      </g>
     </g>
    </g>
    <g id="text_7">
     <!-- Valve Setting -->
     <defs>
      <path d="M 28.609375 0 
L 0.78125 72.90625 
L 11.078125 72.90625 
L 34.1875 11.53125 
L 57.328125 72.90625 
L 67.578125 72.90625 
L 39.796875 0 
z
" id="DejaVuSans-86"/>
      <path d="M 34.28125 27.484375 
Q 23.390625 27.484375 19.1875 25 
Q 14.984375 22.515625 14.984375 16.5 
Q 14.984375 11.71875 18.140625 8.90625 
Q 21.296875 6.109375 26.703125 6.109375 
Q 34.1875 6.109375 38.703125 11.40625 
Q 43.21875 16.703125 43.21875 25.484375 
L 43.21875 27.484375 
z
M 52.203125 31.203125 
L 52.203125 0 
L 43.21875 0 
L 43.21875 8.296875 
Q 40.140625 3.328125 35.546875 0.953125 
Q 30.953125 -1.421875 24.3125 -1.421875 
Q 15.921875 -1.421875 10.953125 3.296875 
Q 6 8.015625 6 15.921875 
Q 6 25.140625 12.171875 29.828125 
Q 18.359375 34.515625 30.609375 34.515625 
L 43.21875 34.515625 
L 43.21875 35.40625 
Q 43.21875 41.609375 39.140625 45 
Q 35.0625 48.390625 27.6875 48.390625 
Q 23 48.390625 18.546875 47.265625 
Q 14.109375 46.140625 10.015625 43.890625 
L 10.015625 52.203125 
Q 14.9375 54.109375 19.578125 55.046875 
Q 24.21875 56 28.609375 56 
Q 40.484375 56 46.34375 49.84375 
Q 52.203125 43.703125 52.203125 31.203125 
z
" id="DejaVuSans-97"/>
      <path d="M 9.421875 75.984375 
L 18.40625 75.984375 
L 18.40625 0 
L 9.421875 0 
z
" id="DejaVuSans-108"/>
      <path d="M 2.984375 54.6875 
L 12.5 54.6875 
L 29.59375 8.796875 
L 46.6875 54.6875 
L 56.203125 54.6875 
L 35.6875 0 
L 23.484375 0 
z
" id="DejaVuSans-118"/>
      <path d="M 56.203125 29.59375 
L 56.203125 25.203125 
L 14.890625 25.203125 
Q 15.484375 15.921875 20.484375 11.0625 
Q 25.484375 6.203125 34.421875 6.203125 
Q 39.59375 6.203125 44.453125 7.46875 
Q 49.3125 8.734375 54.109375 11.28125 
L 54.109375 2.78125 
Q 49.265625 0.734375 44.1875 -0.34375 
Q 39.109375 -1.421875 33.890625 -1.421875 
Q 20.796875 -1.421875 13.15625 6.1875 
Q 5.515625 13.8125 5.515625 26.8125 
Q 5.515625 40.234375 12.765625 48.109375 
Q 20.015625 56 32.328125 56 
Q 43.359375 56 49.78125 48.890625 
Q 56.203125 41.796875 56.203125 29.59375 
z
M 47.21875 32.234375 
Q 47.125 39.59375 43.09375 43.984375 
Q 39.0625 48.390625 32.421875 48.390625 
Q 24.90625 48.390625 20.390625 44.140625 
Q 15.875 39.890625 15.1875 32.171875 
z
" id="DejaVuSans-101"/>
      <path id="DejaVuSans-32"/>
      <path d="M 53.515625 70.515625 
L 53.515625 60.890625 
Q 47.90625 63.578125 42.921875 64.890625 
Q 37.9375 66.21875 33.296875 66.21875 
Q 25.25 66.21875 20.875 63.09375 
Q 16.5 59.96875 16.5 54.203125 
Q 16.5 49.359375 19.40625 46.890625 
Q 22.3125 44.4375 30.421875 42.921875 
L 36.375 41.703125 
Q 47.40625 39.59375 52.65625 34.296875 
Q 57.90625 29 57.90625 20.125 
Q 57.90625 9.515625 50.796875 4.046875 
Q 43.703125 -1.421875 29.984375 -1.421875 
Q 24.8125 -1.421875 18.96875 -0.25 
Q 13.140625 0.921875 6.890625 3.21875 
L 6.890625 13.375 
Q 12.890625 10.015625 18.65625 8.296875 
Q 24.421875 6.59375 29.984375 6.59375 
Q 38.421875 6.59375 43.015625 9.90625 
Q 47.609375 13.234375 47.609375 19.390625 
Q 47.609375 24.75 44.3125 27.78125 
Q 41.015625 30.8125 33.5 32.328125 
L 27.484375 33.5 
Q 16.453125 35.6875 11.515625 40.375 
Q 6.59375 45.0625 6.59375 53.421875 
Q 6.59375 63.09375 13.40625 68.65625 
Q 20.21875 74.21875 32.171875 74.21875 
Q 37.3125 74.21875 42.625 73.28125 
Q 47.953125 72.359375 53.515625 70.515625 
z
" id="DejaVuSans-83"/>
      <path d="M 18.3125 70.21875 
L 18.3125 54.6875 
L 36.8125 54.6875 
L 36.8125 47.703125 
L 18.3125 47.703125 
L 18.3125 18.015625 
Q 18.3125 11.328125 20.140625 9.421875 
Q 21.96875 7.515625 27.59375 7.515625 
L 36.8125 7.515625 
L 36.8125 0 
L 27.59375 0 
Q 17.1875 0 13.234375 3.875 
Q 9.28125 7.765625 9.28125 18.015625 
L 9.28125 47.703125 
L 2.6875 47.703125 
L 2.6875 54.6875 
L 9.28125 54.6875 
L 9.28125 70.21875 
z
" id="DejaVuSans-116"/>
      <path d="M 9.421875 54.6875 
L 18.40625 54.6875 
L 18.40625 0 
L 9.421875 0 
z
M 9.421875 75.984375 
L 18.40625 75.984375 
L 18.40625 64.59375 
L 9.421875 64.59375 
z
" id="DejaVuSans-105"/>
      <path d="M 54.890625 33.015625 
L 54.890625 0 
L 45.90625 0 
L 45.90625 32.71875 
Q 45.90625 40.484375 42.875 44.328125 
Q 39.84375 48.1875 33.796875 48.1875 
Q 26.515625 48.1875 22.3125 43.546875 
Q 18.109375 38.921875 18.109375 30.90625 
L 18.109375 0 
L 9.078125 0 
L 9.078125 54.6875 
L 18.109375 54.6875 
L 18.109375 46.1875 
Q 21.34375 51.125 25.703125 53.5625 
Q 30.078125 56 35.796875 56 
Q 45.21875 56 50.046875 50.171875 
Q 54.890625 44.34375 54.890625 33.015625 
z
" id="DejaVuSans-110"/>
      <path d="M 45.40625 27.984375 
Q 45.40625 37.75 41.375 43.109375 
Q 37.359375 48.484375 30.078125 48.484375 
Q 22.859375 48.484375 18.828125 43.109375 
Q 14.796875 37.75 14.796875 27.984375 
Q 14.796875 18.265625 18.828125 12.890625 
Q 22.859375 7.515625 30.078125 7.515625 
Q 37.359375 7.515625 41.375 12.890625 
Q 45.40625 18.265625 45.40625 27.984375 
z
M 54.390625 6.78125 
Q 54.390625 -7.171875 48.1875 -13.984375 
Q 42 -20.796875 29.203125 -20.796875 
Q 24.46875 -20.796875 20.265625 -20.09375 
Q 16.0625 -19.390625 12.109375 -17.921875 
L 12.109375 -9.1875 
Q 16.0625 -11.328125 19.921875 -12.34375 
Q 23.78125 -13.375 27.78125 -13.375 
Q 36.625 -13.375 41.015625 -8.765625 
Q 45.40625 -4.15625 45.40625 5.171875 
L 45.40625 9.625 
Q 42.625 4.78125 38.28125 2.390625 
Q 33.9375 0 27.875 0 
Q 17.828125 0 11.671875 7.65625 
Q 5.515625 15.328125 5.515625 27.984375 
Q 5.515625 40.671875 11.671875 48.328125 
Q 17.828125 56 27.875 56 
Q 33.9375 56 38.28125 53.609375 
Q 42.625 51.21875 45.40625 46.390625 
L 45.40625 54.6875 
L 54.390625 54.6875 
z
" id="DejaVuSans-103"/>
     </defs>
     <g transform="translate(202.763906 335.860562)scale(0.1 -0.1)">
      <use xlink:href="#DejaVuSans-86"/>
      <use x="68.298828" xlink:href="#DejaVuSans-97"/>
      <use x="129.578125" xlink:href="#DejaVuSans-108"/>
      <use x="157.361328" xlink:href="#DejaVuSans-118"/>
      <use x="216.541016" xlink:href="#DejaVuSans-101"/>
      <use x="278.064453" xlink:href="#DejaVuSans-32"/>
      <use x="309.851562" xlink:href="#DejaVuSans-83"/>
      <use x="373.328125" xlink:href="#DejaVuSans-101"/>
      <use x="434.851562" xlink:href="#DejaVuSans-116"/>
      <use x="474.060547" xlink:href="#DejaVuSans-116"/>
      <use x="513.269531" xlink:href="#DejaVuSans-105"/>
      <use x="541.052734" xlink:href="#DejaVuSans-110"/>
      <use x="604.431641" xlink:href="#DejaVuSans-103"/>
     </g>
    </g>
   </g>
   <g id="matplotlib.axis_2">
    <g id="ytick_1">
     <g id="line2d_7">
      <defs>
       <path d="M 0 0 
L -3.5 0 
" id="ma2bcfeca9e" style="stroke:#000000;stroke-width:0.8;"/>
      </defs>
      <g>
       <use style="stroke:#000000;stroke-width:0.8;" x="57.6" xlink:href="#ma2bcfeca9e" y="298.737433"/>
      </g>
     </g>
     <g id="text_8">
      <!-- 5 -->
      <defs>
       <path d="M 10.59375 35.5 
L 73.1875 35.5 
L 73.1875 27.203125 
L 10.59375 27.203125 
z
" id="DejaVuSans-8722"/>
       <path d="M 10.796875 72.90625 
L 49.515625 72.90625 
L 49.515625 64.59375 
L 19.828125 64.59375 
L 19.828125 46.734375 
Q 21.96875 47.46875 24.109375 47.828125 
Q 26.265625 48.1875 28.421875 48.1875 
Q 40.625 48.1875 47.75 41.5 
Q 54.890625 34.8125 54.890625 23.390625 
Q 54.890625 11.625 47.5625 5.09375 
Q 40.234375 -1.421875 26.90625 -1.421875 
Q 22.3125 -1.421875 17.546875 -0.640625 
Q 12.796875 0.140625 7.71875 1.703125 
L 7.71875 11.625 
Q 12.109375 9.234375 16.796875 8.0625 
Q 21.484375 6.890625 26.703125 6.890625 
Q 35.15625 6.890625 40.078125 11.328125 
Q 45.015625 15.765625 45.015625 23.390625 
Q 45.015625 31 40.078125 35.4375 
Q 35.15625 39.890625 26.703125 39.890625 
Q 22.75 39.890625 18.8125 39.015625 
Q 14.890625 38.140625 10.796875 36.28125 
z
" id="DejaVuSans-53"/>
      </defs>
      <g transform="translate(35.857813 302.536652)scale(0.1 -0.1)">
       <use xlink:href="#DejaVuSans-8722"/>
       <use x="83.789062" xlink:href="#DejaVuSans-53"/>
      </g>
     </g>
    </g>
    <g id="ytick_2">
     <g id="line2d_8">
      <g>
       <use style="stroke:#000000;stroke-width:0.8;" x="57.6" xlink:href="#ma2bcfeca9e" y="247.338861"/>
      </g>
     </g>
     <g id="text_9">
      <!-- 0 -->
      <g transform="translate(44.2375 251.13808)scale(0.1 -0.1)">
       <use xlink:href="#DejaVuSans-48"/>
      </g>
     </g>
    </g>
    <g id="ytick_3">
     <g id="line2d_9">
      <g>
       <use style="stroke:#000000;stroke-width:0.8;" x="57.6" xlink:href="#ma2bcfeca9e" y="195.940288"/>
      </g>
     </g>
     <g id="text_10">
      <!-- 5 -->
      <g transform="translate(44.2375 199.739507)scale(0.1 -0.1)">
       <use xlink:href="#DejaVuSans-53"/>
      </g>
     </g>
    </g>
    <g id="ytick_4">
     <g id="line2d_10">
      <g>
       <use style="stroke:#000000;stroke-width:0.8;" x="57.6" xlink:href="#ma2bcfeca9e" y="144.541716"/>
      </g>
     </g>
     <g id="text_11">
      <!-- 10 -->
      <g transform="translate(37.875 148.340935)scale(0.1 -0.1)">
       <use xlink:href="#DejaVuSans-49"/>
       <use x="63.623047" xlink:href="#DejaVuSans-48"/>
      </g>
     </g>
    </g>
    <g id="ytick_5">
     <g id="line2d_11">
      <g>
       <use style="stroke:#000000;stroke-width:0.8;" x="57.6" xlink:href="#ma2bcfeca9e" y="93.143143"/>
      </g>
     </g>
     <g id="text_12">
      <!-- 15 -->
      <g transform="translate(37.875 96.942362)scale(0.1 -0.1)">
       <use xlink:href="#DejaVuSans-49"/>
       <use x="63.623047" xlink:href="#DejaVuSans-53"/>
      </g>
     </g>
    </g>
    <g id="ytick_6">
     <g id="line2d_12">
      <g>
       <use style="stroke:#000000;stroke-width:0.8;" x="57.6" xlink:href="#ma2bcfeca9e" y="41.744571"/>
      </g>
     </g>
     <g id="text_13">
      <!-- 20 -->
      <g transform="translate(37.875 45.54379)scale(0.1 -0.1)">
       <use xlink:href="#DejaVuSans-50"/>
       <use x="63.623047" xlink:href="#DejaVuSans-48"/>
      </g>
     </g>
    </g>
    <g id="text_14">
     <!-- Objective -->
     <defs>
      <path d="M 39.40625 66.21875 
Q 28.65625 66.21875 22.328125 58.203125 
Q 16.015625 50.203125 16.015625 36.375 
Q 16.015625 22.609375 22.328125 14.59375 
Q 28.65625 6.59375 39.40625 6.59375 
Q 50.140625 6.59375 56.421875 14.59375 
Q 62.703125 22.609375 62.703125 36.375 
Q 62.703125 50.203125 56.421875 58.203125 
Q 50.140625 66.21875 39.40625 66.21875 
z
M 39.40625 74.21875 
Q 54.734375 74.21875 63.90625 63.9375 
Q 73.09375 53.65625 73.09375 36.375 
Q 73.09375 19.140625 63.90625 8.859375 
Q 54.734375 -1.421875 39.40625 -1.421875 
Q 24.03125 -1.421875 14.8125 8.828125 
Q 5.609375 19.09375 5.609375 36.375 
Q 5.609375 53.65625 14.8125 63.9375 
Q 24.03125 74.21875 39.40625 74.21875 
z
" id="DejaVuSans-79"/>
      <path d="M 48.6875 27.296875 
Q 48.6875 37.203125 44.609375 42.84375 
Q 40.53125 48.484375 33.40625 48.484375 
Q 26.265625 48.484375 22.1875 42.84375 
Q 18.109375 37.203125 18.109375 27.296875 
Q 18.109375 17.390625 22.1875 11.75 
Q 26.265625 6.109375 33.40625 6.109375 
Q 40.53125 6.109375 44.609375 11.75 
Q 48.6875 17.390625 48.6875 27.296875 
z
M 18.109375 46.390625 
Q 20.953125 51.265625 25.265625 53.625 
Q 29.59375 56 35.59375 56 
Q 45.5625 56 51.78125 48.09375 
Q 58.015625 40.1875 58.015625 27.296875 
Q 58.015625 14.40625 51.78125 6.484375 
Q 45.5625 -1.421875 35.59375 -1.421875 
Q 29.59375 -1.421875 25.265625 0.953125 
Q 20.953125 3.328125 18.109375 8.203125 
L 18.109375 0 
L 9.078125 0 
L 9.078125 75.984375 
L 18.109375 75.984375 
z
" id="DejaVuSans-98"/>
      <path d="M 9.421875 54.6875 
L 18.40625 54.6875 
L 18.40625 -0.984375 
Q 18.40625 -11.421875 14.421875 -16.109375 
Q 10.453125 -20.796875 1.609375 -20.796875 
L -1.8125 -20.796875 
L -1.8125 -13.1875 
L 0.59375 -13.1875 
Q 5.71875 -13.1875 7.5625 -10.8125 
Q 9.421875 -8.453125 9.421875 -0.984375 
z
M 9.421875 75.984375 
L 18.40625 75.984375 
L 18.40625 64.59375 
L 9.421875 64.59375 
z
" id="DejaVuSans-106"/>
      <path d="M 48.78125 52.59375 
L 48.78125 44.1875 
Q 44.96875 46.296875 41.140625 47.34375 
Q 37.3125 48.390625 33.40625 48.390625 
Q 24.65625 48.390625 19.8125 42.84375 
Q 14.984375 37.3125 14.984375 27.296875 
Q 14.984375 17.28125 19.8125 11.734375 
Q 24.65625 6.203125 33.40625 6.203125 
Q 37.3125 6.203125 41.140625 7.25 
Q 44.96875 8.296875 48.78125 10.40625 
L 48.78125 2.09375 
Q 45.015625 0.34375 40.984375 -0.53125 
Q 36.96875 -1.421875 32.421875 -1.421875 
Q 20.0625 -1.421875 12.78125 6.34375 
Q 5.515625 14.109375 5.515625 27.296875 
Q 5.515625 40.671875 12.859375 48.328125 
Q 20.21875 56 33.015625 56 
Q 37.15625 56 41.109375 55.140625 
Q 45.0625 54.296875 48.78125 52.59375 
z
" id="DejaVuSans-99"/>
     </defs>
     <g transform="translate(29.778125 198.238156)rotate(-90)scale(0.1 -0.1)">
      <use xlink:href="#DejaVuSans-79"/>
      <use x="78.710938" xlink:href="#DejaVuSans-98"/>
      <use x="142.1875" xlink:href="#DejaVuSans-106"/>
      <use x="169.970703" xlink:href="#DejaVuSans-101"/>
      <use x="231.494141" xlink:href="#DejaVuSans-99"/>
      <use x="286.474609" xlink:href="#DejaVuSans-116"/>
      <use x="325.683594" xlink:href="#DejaVuSans-105"/>
      <use x="353.466797" xlink:href="#DejaVuSans-118"/>
      <use x="412.646484" xlink:href="#DejaVuSans-101"/>
     </g>
    </g>
   </g>
   <g id="line2d_13">
    <path clip-path="url(#p3a7777588c)" d="M 73.832727 53.542975 
L 78.057461 83.964543 
L 81.957215 110.476749 
L 85.53199 133.20952 
L 88.781785 152.389326 
L 91.706601 168.314459 
L 94.306437 181.326107 
L 96.906274 193.200832 
L 99.18113 202.621985 
L 101.455987 211.114574 
L 103.405864 217.644284 
L 105.355741 223.478859 
L 107.305618 228.62148 
L 109.255495 233.081783 
L 110.880393 236.28925 
L 112.505291 239.047864 
L 114.130188 241.375044 
L 115.755086 243.292267 
L 117.379984 244.825295 
L 119.004881 246.0044 
L 120.629779 246.864596 
L 122.254676 247.445869 
L 123.879574 247.793417 
L 125.829451 247.973647 
L 128.429287 247.970566 
L 135.903817 247.845616 
L 153.127731 248.019688 
L 178.801114 247.778817 
L 195.700049 247.891988 
L 204.474496 247.771483 
L 211.949025 247.281034 
L 219.748534 246.851117 
L 225.598165 246.753533 
L 231.772776 246.879025 
L 239.897265 247.290548 
L 251.921507 247.898472 
L 258.746077 247.988834 
L 268.170483 247.850658 
L 279.869746 247.725761 
L 290.59407 247.862494 
L 303.593251 248.009832 
L 311.71774 247.853985 
L 327.966716 247.456327 
L 337.391122 247.518469 
L 363.714464 247.845259 
L 398.487273 247.694212 
L 398.487273 247.694212 
" style="fill:none;stroke:#183661;stroke-linecap:square;"/>
   </g>
   <g id="line2d_14">
    <path clip-path="url(#p3a7777588c)" d="M 73.832727 307.584 
L 125.179492 307.501772 
L 125.829451 307.049277 
L 126.47941 306.513534 
L 127.129369 306.349518 
L 127.779328 306.57526 
L 129.079247 307.284111 
L 130.054185 307.488756 
L 132.004062 307.532099 
L 137.853694 307.465219 
L 138.178673 307.302466 
L 138.503653 307.010573 
L 139.153612 305.979891 
L 139.803571 304.424683 
L 140.778509 301.457073 
L 145.328223 286.42286 
L 146.628141 283.223169 
L 147.603079 281.360537 
L 148.578018 279.999681 
L 149.227977 279.381629 
L 149.877936 278.997929 
L 150.527895 278.84805 
L 151.177854 278.928845 
L 151.827813 279.234682 
L 152.477772 279.757574 
L 153.452711 280.925963 
L 154.427649 282.516053 
L 155.727568 285.199617 
L 157.352465 289.246363 
L 162.877117 303.901331 
L 163.852056 305.684634 
L 164.502015 306.555849 
L 165.151974 307.133123 
L 165.801933 307.43291 
L 166.776871 307.562307 
L 171.326585 307.583831 
L 176.201278 307.477163 
L 180.426011 307.151587 
L 182.375889 307.331322 
L 184.975725 307.56602 
L 190.500377 307.583699 
L 206.749353 307.480261 
L 207.724292 307.220482 
L 208.69923 306.714165 
L 209.674169 305.926934 
L 210.649107 304.853069 
L 211.949025 302.995295 
L 213.248943 300.697831 
L 214.873841 297.31015 
L 216.823718 292.690761 
L 223.973268 275.161908 
L 225.598165 272.028755 
L 226.898084 269.965387 
L 228.198002 268.359655 
L 229.17294 267.485521 
L 230.147879 266.913508 
L 231.122817 266.657162 
L 232.097756 266.726471 
L 233.072695 267.127737 
L 234.047633 267.86345 
L 235.022572 268.932197 
L 235.99751 270.328567 
L 237.297428 272.683058 
L 238.597346 275.568741 
L 240.222244 279.849401 
L 242.172121 285.80635 
L 244.771957 294.644307 
L 247.371794 303.417453 
L 248.346732 306.091194 
L 248.996691 307.25262 
L 249.321671 307.514037 
L 249.97163 307.583889 
L 250.621589 307.469921 
L 250.946568 306.970219 
L 251.596527 304.867914 
L 254.521343 293.149776 
L 255.496282 290.314738 
L 256.47122 288.238307 
L 257.121179 287.289136 
L 257.771138 286.689691 
L 258.421097 286.436705 
L 259.071057 286.523338 
L 259.721016 286.939483 
L 260.370975 287.671902 
L 261.020934 288.704254 
L 261.995872 290.771439 
L 262.970811 293.38714 
L 264.270729 297.539344 
L 266.870565 306.14938 
L 267.520524 307.31198 
L 267.845504 307.524395 
L 268.820442 307.56673 
L 269.145422 307.498315 
L 269.470401 307.31463 
L 270.12036 306.558298 
L 271.095299 304.81492 
L 274.020115 299.079894 
L 275.320033 297.118325 
L 276.294971 296.030123 
L 277.26991 295.30876 
L 277.919869 295.041954 
L 278.569828 294.950113 
L 279.219787 295.033808 
L 279.869746 295.29135 
L 280.844685 295.994315 
L 281.819623 297.055603 
L 282.794562 298.438811 
L 284.09448 300.690845 
L 287.344275 306.717037 
L 287.994234 307.366601 
L 288.644193 307.570721 
L 289.619132 307.561066 
L 289.944111 307.454487 
L 290.269091 307.165259 
L 290.91905 305.983965 
L 291.893989 303.310147 
L 294.818804 294.719709 
L 296.118722 291.800613 
L 297.093661 290.16619 
L 298.0686 289.054528 
L 298.718559 288.615398 
L 299.368518 288.421138 
L 300.018477 288.471088 
L 300.668436 288.761577 
L 301.318395 289.285986 
L 302.293333 290.489432 
L 303.268272 292.15185 
L 304.56819 294.973673 
L 306.193088 299.178494 
L 308.467944 305.083077 
L 309.117903 306.338385 
L 309.767862 307.161913 
L 310.417821 307.511814 
L 311.39276 307.582942 
L 315.942473 307.492375 
L 316.917412 307.188646 
L 317.567371 306.784169 
L 318.21733 306.188886 
L 319.192269 304.933067 
L 320.167207 303.275858 
L 321.467125 300.551719 
L 323.092023 296.561958 
L 328.941654 281.545909 
L 330.241572 278.92988 
L 331.541491 276.815302 
L 332.516429 275.606739 
L 333.491368 274.751782 
L 334.466306 274.27105 
L 335.116265 274.165846 
L 335.766224 274.236221 
L 336.416183 274.483619 
L 337.066143 274.908197 
L 338.041081 275.874416 
L 339.01602 277.226987 
L 339.990958 278.949708 
L 341.290876 281.781458 
L 342.590794 285.154468 
L 344.215692 289.977376 
L 349.090385 305.151363 
L 349.740344 306.5085 
L 350.390303 307.335903 
L 351.040262 307.574509 
L 352.66516 307.512516 
L 352.990139 307.340045 
L 353.640098 306.615887 
L 354.940016 304.41054 
L 356.239934 302.32034 
L 357.214873 301.194723 
L 357.864832 300.711782 
L 358.514791 300.456869 
L 359.16475 300.432485 
L 359.814709 300.634327 
L 360.464668 301.051808 
L 361.439607 302.043085 
L 362.414545 303.388321 
L 364.689402 306.828679 
L 365.339361 307.38747 
L 365.98932 307.567648 
L 367.289238 307.552615 
L 367.939197 307.318691 
L 368.589156 306.738826 
L 369.564095 305.43304 
L 371.838952 302.192396 
L 372.81389 301.169102 
L 373.788829 300.496814 
L 374.438788 300.266345 
L 375.088747 300.219056 
L 375.738706 300.357918 
L 376.388665 300.681749 
L 377.363604 301.500656 
L 378.338542 302.679897 
L 379.63846 304.66019 
L 380.938378 306.666146 
L 381.588337 307.342237 
L 382.238296 307.573154 
L 383.538215 307.529929 
L 383.863194 307.344966 
L 384.188174 306.973086 
L 384.838133 305.760412 
L 386.138051 302.4617 
L 387.762948 298.302507 
L 388.737887 296.234604 
L 389.712826 294.668392 
L 390.362785 293.95805 
L 391.012744 293.547158 
L 391.662703 293.459281 
L 392.312662 293.71407 
L 392.962621 294.32654 
L 393.61258 295.305654 
L 394.262539 296.651581 
L 395.237477 299.321538 
L 397.837314 307.331194 
L 398.162293 307.558331 
L 398.487273 307.583883 
L 398.487273 307.583883 
" style="fill:none;stroke:#ff0000;stroke-linecap:square;stroke-width:2;"/>
   </g>
   <g id="patch_3">
    <path d="M 57.6 307.584 
L 57.6 41.472 
" style="fill:none;stroke:#000000;stroke-linecap:square;stroke-linejoin:miter;stroke-width:0.8;"/>
   </g>
   <g id="patch_4">
    <path d="M 57.6 307.584 
L 414.72 307.584 
" style="fill:none;stroke:#000000;stroke-linecap:square;stroke-linejoin:miter;stroke-width:0.8;"/>
   </g>
  </g>
 </g>
 <defs>
  <clipPath id="p3a7777588c">
   <rect height="266.112" width="357.12" x="57.6" y="41.472"/>
  </clipPath>
 </defs>
</svg>
